<?xml version="1.0" encoding="UTF-8" standalone="no" ?>
<!DOCTYPE svg PUBLIC "-//W3C//DTD SVG 1.1//EN" "http://www.w3.org/Graphics/SVG/1.1/DTD/svg11.dtd">
<svg xmlns="http://www.w3.org/2000/svg" xmlns:xlink="http://www.w3.org/1999/xlink" version="1.1" width="1080" height="1080" viewBox="0 0 1080 1080" xml:space="preserve">
<desc>Created with Fabric.js 5.2.4</desc>
<defs>
</defs>
<g transform="matrix(1 0 0 1 540 540)" id="b0c06ae7-5948-4d22-888a-f9b48f356eb3"  >
<rect style="stroke: none; stroke-width: 1; stroke-dasharray: none; stroke-linecap: butt; stroke-dashoffset: 0; stroke-linejoin: miter; stroke-miterlimit: 4; fill: rgb(255,255,255); fill-rule: nonzero; opacity: 1; visibility: hidden;" vector-effect="non-scaling-stroke"  x="-540" y="-540" rx="0" ry="0" width="1080" height="1080" />
</g>
<g transform="matrix(1 0 0 1 540 540)" id="5fcd94f0-1825-477c-b212-cce8f8e68fec"  >
</g>
<g transform="matrix(1 0 0 1 133.38 170.34)"  >
<rect style="stroke: none; stroke-width: 1; stroke-dasharray: none; stroke-linecap: butt; stroke-dashoffset: 0; stroke-linejoin: miter; stroke-miterlimit: 4; fill: rgb(255,255,255); fill-opacity: 0; fill-rule: nonzero; opacity: 1;" vector-effect="non-scaling-stroke"  x="-50" y="-50" rx="0" ry="0" width="100" height="100" />
</g>
<g transform="matrix(-6.73 0 0 6.73 583.39 620.34)"  >
<path style="stroke: none; stroke-width: 1; stroke-dasharray: none; stroke-linecap: butt; stroke-dashoffset: 0; stroke-linejoin: miter; stroke-miterlimit: 4; fill: rgb(0,0,0); fill-rule: evenodd; opacity: 1;" vector-effect="non-scaling-stroke"  transform=" translate(-61.44, -50.45)" d="M 115.39 56.45 L 115.32000000000001 59.050000000000004 L 90.3 66.32 L 88.84 63.11999999999999 C 88.03 61.459999999999994 84.75 62.40999999999999 85.47 64.88 C 86.51 68.42 88.11 71.16 89.63 73.94999999999999 C 98 89.36999999999999 127.47999999999999 84.49999999999999 119.14 60.58999999999999 L 119.07000000000001 56.04999999999999 C 121.31 55.07999999999999 122.88000000000001 52.84999999999999 122.88000000000001 50.24999999999999 C 122.88000000000001 46.75999999999999 120.05000000000001 43.92999999999999 116.56 43.92999999999999 C 116.48 43.92999999999999 116.4 43.92999999999999 116.32000000000001 43.92999999999999 L 119.05000000000001 42.769999999999996 L 106.85000000000001 11.119999999999997 C 103.06 -0.66 99 -2.21 92.42 2.41 L 57.85 35.36 L 57.01 34.519999999999996 L 49.46 34.519999999999996 C 47.160000000000004 34.519999999999996 45.28 36.4 45.28 38.699999999999996 L 45.28 54.669999999999995 L 33.74 54.669999999999995 L 33.74 53.9 C 33.74 52.4 32.510000000000005 51.17 31.01 51.17 L 15.74 51.17 C 14.24 51.17 13.01 52.4 13.01 53.9 L 13.01 54.67 L 8.79 54.67 C 5.93 54.67 3.589999999999999 57.010000000000005 3.589999999999999 59.870000000000005 L 3.589999999999999 66.36 C 3.589999999999999 69.23 5.9399999999999995 71.57 8.799999999999999 71.57 L 64.05 71.57 C 66.92 71.57 69.25999999999999 69.22 69.25999999999999 66.36 L 69.25999999999999 58.14 L 69.25999999999999 54.67 L 69.25999999999999 46.79 L 67.41999999999999 44.94 L 95.39 15.4 L 109.57 46.79 L 112.19 45.68 C 110.99 46.83 110.25 48.45 110.25 50.24 C 110.24 53.33 112.46 55.9 115.39 56.45 L 115.39 56.45 z M 13.59 73.72 L 59.06999999999999 73.72 C 66.53999999999999 73.72 72.66 79.83 72.66 87.31 L 72.66 87.31 C 72.66 94.78 66.55 100.9 59.06999999999999 100.9 L 13.59 100.9 C 6.11 100.89 0 94.78 0 87.3 L 0 87.3 C 0 79.83 6.11 73.72 13.59 73.72 L 13.59 73.72 z M 17.45 86.08 C 17.61 86.08 17.73 86.63 17.73 87.31 C 17.73 87.99000000000001 17.6 88.54 17.45 88.54 L 16.36 88.54 L 16.36 89.63000000000001 C 16.36 89.79 15.809999999999999 89.91000000000001 15.129999999999999 89.91000000000001 C 14.45 89.91000000000001 13.899999999999999 89.78000000000002 13.899999999999999 89.63000000000001 L 13.899999999999999 88.54 L 12.809999999999999 88.54 C 12.649999999999999 88.54 12.53 87.99000000000001 12.53 87.31 C 12.53 86.63 12.66 86.08 12.809999999999999 86.08 L 13.899999999999999 86.08 L 13.899999999999999 84.99 C 13.899999999999999 84.83 14.45 84.71 15.129999999999999 84.71 C 15.809999999999999 84.71 16.36 84.83999999999999 16.36 84.99 L 16.36 86.08 L 17.45 86.08 L 17.45 86.08 z M 56.42 84.98 C 56.42 84.82000000000001 56.97 84.7 57.65 84.7 C 58.33 84.7 58.879999999999995 84.83 58.879999999999995 84.98 L 58.879999999999995 86.07000000000001 L 59.97 86.07000000000001 C 60.129999999999995 86.07000000000001 60.25 86.62 60.25 87.30000000000001 C 60.25 87.98000000000002 60.12 88.53000000000002 59.97 88.53000000000002 L 58.879999999999995 88.53000000000002 L 58.879999999999995 89.62000000000002 C 58.879999999999995 89.78000000000002 58.33 89.90000000000002 57.65 89.90000000000002 C 56.97 89.90000000000002 56.42 89.77000000000002 56.42 89.62000000000002 L 56.42 88.53000000000002 L 55.33 88.53000000000002 C 55.17 88.53000000000002 55.05 87.98000000000002 55.05 87.30000000000001 C 55.05 86.62 55.18 86.07000000000001 55.33 86.07000000000001 L 56.42 86.07000000000001 L 56.42 84.98 L 56.42 84.98 z M 57.65 77.36 C 63.14 77.36 67.59 81.81 67.59 87.3 C 67.59 92.78999999999999 63.14 97.24 57.650000000000006 97.24 C 52.160000000000004 97.24 47.71000000000001 92.78999999999999 47.71000000000001 87.3 C 47.71000000000001 81.81 52.16 77.36 57.65 77.36 L 57.65 77.36 z M 15.13 77.36 C 20.62 77.36 25.07 81.81 25.07 87.3 C 25.07 92.78999999999999 20.62 97.24 15.13 97.24 C 9.64 97.24 5.190000000000001 92.78999999999999 5.190000000000001 87.3 C 5.190000000000001 81.81 9.64 77.36 15.13 77.36 L 15.13 77.36 z M 97.01 5.3 C 98.94000000000001 5.3 100.51 6.87 100.51 8.8 C 100.51 10.73 98.94000000000001 12.3 97.01 12.3 C 95.08 12.3 93.51 10.73 93.51 8.8 C 93.51 6.87 95.07 5.3 97.01 5.3 L 97.01 5.3 z" stroke-linecap="round" />
</g>
</svg>