<?xml version="1.0" encoding="UTF-8" standalone="no" ?>
<!DOCTYPE svg PUBLIC "-//W3C//DTD SVG 1.1//EN" "http://www.w3.org/Graphics/SVG/1.1/DTD/svg11.dtd">
<svg xmlns="http://www.w3.org/2000/svg" xmlns:xlink="http://www.w3.org/1999/xlink" version="1.1" width="1080" height="1080" viewBox="0 0 1080 1080" xml:space="preserve">
<desc>Created with Fabric.js 5.2.4</desc>
<defs>
</defs>
<rect x="0" y="0" width="100%" height="100%" fill="transparent"></rect>
<g transform="matrix(1 0 0 1 540 540)" id="b0c06ae7-5948-4d22-888a-f9b48f356eb3"  >
<rect style="stroke: none; stroke-width: 1; stroke-dasharray: none; stroke-linecap: butt; stroke-dashoffset: 0; stroke-linejoin: miter; stroke-miterlimit: 4; fill: rgb(255,255,255); fill-rule: nonzero; opacity: 1; visibility: hidden;" vector-effect="non-scaling-stroke"  x="-540" y="-540" rx="0" ry="0" width="1080" height="1080" />
</g>
<g transform="matrix(1 0 0 1 540 540)" id="5fcd94f0-1825-477c-b212-cce8f8e68fec"  >
</g>
<g transform="matrix(1 0 0 1 133.38 170.34)"  >
<rect style="stroke: none; stroke-width: 1; stroke-dasharray: none; stroke-linecap: butt; stroke-dashoffset: 0; stroke-linejoin: miter; stroke-miterlimit: 4; fill: rgb(255,255,255); fill-opacity: 0; fill-rule: nonzero; opacity: 1;" vector-effect="non-scaling-stroke"  x="-50" y="-50" rx="0" ry="0" width="100" height="100" />
</g>
<g transform="matrix(1 0 0 1 133.38 179.51)"  >
<rect style="stroke: none; stroke-width: 1; stroke-dasharray: none; stroke-linecap: butt; stroke-dashoffset: 0; stroke-linejoin: miter; stroke-miterlimit: 4; fill: rgb(255,255,255); fill-opacity: 0; fill-rule: nonzero; opacity: 1;" vector-effect="non-scaling-stroke"  x="-50" y="-50" rx="0" ry="0" width="100" height="100" />
</g>
<g transform="matrix(-6.73 0 0 6.73 583.39 629.51)"  >
<path style="stroke: none; stroke-width: 1; stroke-dasharray: none; stroke-linecap: butt; stroke-dashoffset: 0; stroke-linejoin: miter; stroke-miterlimit: 4; fill: rgb(0,0,0); fill-rule: evenodd; opacity: 1;" vector-effect="non-scaling-stroke"  transform=" translate(-61.44, -47.73)" d="M 50.84 40.8 C 61.550000000000004 49.97 64.87 64.09 60.64 77.28999999999999 L 93.42 77.28999999999999 C 96.54 68.05 105.94 62.74999999999999 116.49000000000001 67.22999999999999 L 120.28000000000002 44.92999999999999 C 120.92000000000002 41.169999999999995 117.16000000000001 37.99999999999999 113.35000000000002 37.99999999999999 L 92.19 37.99999999999999 L 92.19 21.21 C 92.19 19.900000000000002 91.14 18.810000000000002 89.84 18.75 L 89.84 10.07 L 86.6 10.07 L 86.6 18.75 C 85.33 18.84 84.32 19.91 84.32 21.2 L 84.32 38 L 67.8 38 C 70.96 23.05 67.27 17.94 65.14 2.729999999999997 C 64.3 0.55 62.65 0.06 60.79 0 L 22.29 0 C 20.36 0.02 19.02 0.98 18.32 2.98 L 15.71 28.13 L 10.510000000000002 34.269999999999996 C 8.240000000000002 36.9 8.900000000000002 36.29 10.990000000000002 39.42999999999999 C 11.350000000000001 39.169999999999995 11.710000000000003 38.90999999999999 12.080000000000002 38.669999999999995 C 23.02 31.51 40.54 32.8 50.84 40.8 L 50.84 40.8 z M 89.38 5.41 C 89.53 5.26 89.77 5.25 89.92999999999999 5.4 C 90.08 5.550000000000001 90.08999999999999 5.79 89.94 5.95 C 89.64999999999999 6.25 89.75999999999999 6.68 89.86 7.08 C 90.04 7.76 90.2 8.38 89.38 8.85 C 89.19 8.959999999999999 88.96 8.889999999999999 88.85 8.709999999999999 C 88.74 8.53 88.82 8.29 89 8.18 C 89.3 8.01 89.21 7.66 89.11 7.279999999999999 C 88.96 6.68 88.79 6.03 89.38 5.41 L 89.38 5.41 z M 87.04 5.41 C 87.19000000000001 5.26 87.43 5.25 87.59 5.4 C 87.74000000000001 5.550000000000001 87.75 5.79 87.60000000000001 5.95 C 87.31 6.25 87.42 6.68 87.52000000000001 7.08 C 87.70000000000002 7.76 87.86000000000001 8.38 87.04 8.85 C 86.85000000000001 8.959999999999999 86.62 8.889999999999999 86.51 8.709999999999999 C 86.4 8.52 86.47 8.29 86.65 8.18 C 86.95 8.01 86.86 7.66 86.76 7.279999999999999 C 86.61 6.68 86.44 6.03 87.04 5.41 L 87.04 5.41 z M 44.45 8.32 L 44.45 26.87 C 48.74 27.84 52.980000000000004 29.17 57.150000000000006 30.87 C 59.330000000000005 31.76 61.900000000000006 28.89 61.440000000000005 26.580000000000002 L 58.64 12.6 C 58.18 10.29 56.71 8.309999999999999 54.35 8.309999999999999 L 44.45 8.309999999999999 L 44.45 8.32 z M 40.19 26.02 L 40.19 8.32 L 29.589999999999996 8.32 C 27.229999999999997 8.32 25.839999999999996 10.31 25.299999999999997 12.61 L 23.439999999999998 20.63 C 22.909999999999997 22.93 25.369999999999997 24.88 27.729999999999997 24.919999999999998 C 31.93 24.96 36.08 25.33 40.19 26.02 L 40.19 26.02 z M 109.85 69 C 117.03999999999999 69 122.88 74.83 122.88 82.03 C 122.88 89.22 117.05 95.05 109.85 95.05 C 102.64999999999999 95.05 96.83 89.22 96.83 82.03 C 96.83 74.83 102.66 69 109.85 69 L 109.85 69 z M 27.83 39.79 C 43.199999999999996 39.79 55.66 52.25 55.66 67.62 C 55.66 82.99000000000001 43.199999999999996 95.45 27.83 95.45 C 12.46 95.45 0 82.99 0 67.62 C 0 52.25 12.46 39.79 27.83 39.79 L 27.83 39.79 z M 27.83 52.66 C 36.089999999999996 52.66 42.79 59.36 42.79 67.62 C 42.79 75.88000000000001 36.089999999999996 82.58000000000001 27.83 82.58000000000001 C 19.57 82.58000000000001 12.869999999999997 75.88000000000001 12.869999999999997 67.62 C 12.87 59.36 19.57 52.66 27.83 52.66 L 27.83 52.66 z M 109.85 75.42 C 113.5 75.42 116.44999999999999 78.38 116.44999999999999 82.02 C 116.44999999999999 85.67 113.49 88.61999999999999 109.85 88.61999999999999 C 106.19999999999999 88.61999999999999 103.25 85.66 103.25 82.02 C 103.25 78.38 106.21 75.42 109.85 75.42 L 109.85 75.42 z M 90.49 46.14 L 106.94 46.14 L 106.57 48.04 L 90.16999999999999 48.04 L 90.49 46.14 L 90.49 46.14 z M 84.72 56.38 L 106.94 56.38 L 106.57 58.28 L 84.39 58.28 L 84.72 56.38 L 84.72 56.38 z M 86.77 51.26 L 106.94999999999999 51.26 L 106.57999999999998 53.16 L 86.44 53.16 L 86.77 51.26 L 86.77 51.26 z" stroke-linecap="round" />
</g>
</svg>