<svg xmlns="http://www.w3.org/2000/svg" xmlns:xlink="http://www.w3.org/1999/xlink" version="1.1" width="1000" height="1000" viewBox="0 0 1000 1000" xml:space="preserve">
<desc>Created with Fabric.js 3.5.0</desc>
<defs>
</defs>
<rect x="0" y="0" width="100%" height="100%" fill="rgba(255,255,255,0)"/>
<g transform="matrix(-7.3982 0 0 7.3982 499.9999 500)" id="268052">
<path style="stroke: none; stroke-width: 1; stroke-dasharray: none; stroke-linecap: butt; stroke-dashoffset: 0; stroke-linejoin: miter; stroke-miterlimit: 4; is-custom-font: none; font-file-url: none; fill: rgb(0,0,0); fill-rule: evenodd; opacity: 1;" vector-effect="non-scaling-stroke" transform=" translate(-61.44, -36.7296)" d="M 41.63 58.19 a 12.9 12.9 0 1 0 25.64 2 a 13.7 13.7 0 0 0 -0.16 -2 H 89.28 a 14.22 14.22 0 0 0 -0.12 1.87 a 13.08 13.08 0 0 0 26.16 0 a 12.7 12.7 0 0 0 -0.21 -2.33 a 8 8 0 0 0 7.77 -7.93 V 24.14 L 106.61 6.64 H 84.32 V 45.51 h -80 A 3.27 3.27 0 0 0 1 48.68 V 55 A 3.27 3.27 0 0 0 4.31 58.2 H 7.94 a 12.48 12.48 0 0 0 -0.16 2 a 12.9 12.9 0 1 0 25.79 0 a 13.7 13.7 0 0 0 -0.16 -2 h 8.22 Z M 76.48 0 H 4.1 A 4.12 4.12 0 0 0 0 4.1 V 42.27 H 80.58 V 4.1 A 4.11 4.11 0 0 0 76.48 0 Z M 15.71 60.26 c 0 6.53 9.92 6.53 9.92 0 c 0 -7 -9.92 -6.27 -9.92 0 Z m 81.49 -0.21 c 0 6.61 10.06 6.61 10.06 0 s -10.06 -6.65 -10.06 0 Z m 9.33 -45.85 L 114.74 24 v 3.56 H 92.49 V 14.2 Z M 49.42 60.26 c 0 6.53 9.92 6.53 9.92 0 s -9.92 -6.52 -9.92 0 Z" stroke-linecap="round"/>
</g>
</svg>