<svg xmlns="http://www.w3.org/2000/svg" xmlns:xlink="http://www.w3.org/1999/xlink" width="6912" zoomAndPan="magnify" viewBox="0 0 5184 1483.49996" height="1978" preserveAspectRatio="xMidYMid meet" version="1.2"><defs><clipPath id="cb093f0cc5"><path d="M 4358 276 L 4833 276 L 4833 751.257812 L 4358 751.257812 Z M 4358 276 "/></clipPath><clipPath id="f8864446ae"><path d="M 2365 274.417969 L 2819 274.417969 L 2819 751 L 2365 751 Z M 2365 274.417969 "/></clipPath><clipPath id="c272cbb533"><path d="M 1323.359375 439 L 1571 439 L 1571 609 L 1323.359375 609 Z M 1323.359375 439 "/></clipPath><clipPath id="099593d9d7"><path d="M 1610 281.019531 L 1724 281.019531 L 1724 507 L 1610 507 Z M 1610 281.019531 "/></clipPath><clipPath id="015f6aabbd"><path d="M 1740 281.019531 L 1796.449219 281.019531 L 1796.449219 531 L 1740 531 Z M 1740 281.019531 "/></clipPath><clipPath id="225467a4a3"><path d="M 1552 740 L 1569 740 L 1569 757.859375 L 1552 757.859375 Z M 1552 740 "/></clipPath><clipPath id="366274cb52"><path d="M 3274.511719 267.816406 L 3751.351562 267.816406 L 3751.351562 744.652344 L 3274.511719 744.652344 Z M 3274.511719 267.816406 "/></clipPath></defs><g id="276d6e0e37"><g clip-rule="nonzero" clip-path="url(#cb093f0cc5)"><path style=" stroke:none;fill-rule:evenodd;fill:#ffffff;fill-opacity:1;" d="M 4502.726562 360.859375 C 4500.226562 360.859375 4497.722656 359.75 4496.335938 357.523438 L 4473.820312 318.332031 C 4469.09375 309.996094 4481.601562 302.769531 4486.328125 311.105469 L 4508.84375 350.296875 C 4511.621094 355.023438 4508.285156 360.859375 4502.726562 360.859375 Z M 4647.261719 601.289062 C 4643.09375 601.289062 4596.953125 581.554688 4595.007812 581.554688 L 4545.53125 600.734375 C 4540.527344 602.679688 4535.527344 599.066406 4535.804688 593.785156 L 4538.859375 540.695312 L 4504.949219 499.558594 C 4501.894531 495.390625 4503.839844 489.273438 4508.84375 487.882812 L 4560.261719 474.542969 L 4589.171875 429.515625 C 4591.949219 425.34375 4598.34375 425.34375 4601.121094 429.515625 L 4630.027344 474.542969 L 4681.449219 487.882812 C 4686.453125 489.273438 4688.398438 495.390625 4685.0625 499.558594 L 4651.429688 540.695312 L 4654.488281 593.785156 C 4654.765625 597.953125 4651.429688 601.289062 4647.261719 601.289062 Z M 4595.007812 566.542969 C 4598.066406 566.542969 4633.644531 580.996094 4639.480469 583.222656 L 4636.976562 538.75 C 4636.699219 536.804688 4637.257812 535.136719 4638.367188 533.746094 L 4666.996094 499.003906 L 4623.636719 487.605469 C 4621.691406 487.050781 4620.300781 486.214844 4619.1875 484.546875 L 4595.007812 446.746094 L 4570.824219 484.546875 C 4569.992188 486.214844 4568.324219 487.050781 4566.65625 487.605469 L 4523.296875 499.003906 L 4551.648438 533.746094 C 4552.757812 535.136719 4553.316406 536.804688 4553.316406 538.75 L 4550.8125 583.222656 C 4556.648438 580.996094 4591.949219 566.542969 4595.007812 566.542969 Z M 4595.007812 667.996094 C 4509.953125 667.996094 4440.742188 598.785156 4440.742188 513.734375 C 4440.742188 428.679688 4509.953125 359.46875 4595.007812 359.46875 C 4680.0625 359.46875 4749.269531 428.679688 4749.269531 513.734375 C 4749.269531 598.785156 4680.0625 667.996094 4595.007812 667.996094 Z M 4595.007812 373.921875 C 4518.015625 373.921875 4455.199219 436.742188 4455.199219 513.734375 C 4455.199219 591.003906 4518.015625 653.820312 4595.007812 653.820312 C 4672.277344 653.820312 4735.09375 591.003906 4735.09375 513.734375 C 4735.09375 436.742188 4672.277344 373.921875 4595.007812 373.921875 Z M 4595.007812 336.121094 C 4591.117188 336.121094 4587.78125 333.066406 4587.78125 328.894531 L 4587.78125 283.867188 C 4587.78125 274.417969 4602.234375 274.417969 4602.234375 283.867188 L 4602.234375 328.894531 C 4602.234375 333.066406 4599.175781 336.121094 4595.007812 336.121094 Z M 4687.566406 360.859375 C 4682.007812 360.859375 4678.394531 355.023438 4681.171875 350.296875 L 4703.964844 311.105469 C 4708.691406 302.769531 4721.199219 309.996094 4716.195312 318.332031 L 4693.679688 357.246094 C 4692.289062 359.75 4690.066406 360.859375 4687.566406 360.859375 Z M 4755.109375 428.679688 C 4747.878906 428.679688 4745.101562 418.953125 4751.496094 415.0625 L 4790.683594 392.546875 C 4799.023438 387.820312 4805.972656 400.328125 4797.914062 405.054688 L 4758.722656 427.570312 C 4757.609375 428.402344 4756.496094 428.679688 4755.109375 428.679688 Z M 4825.152344 520.960938 L 4779.84375 520.960938 C 4770.394531 520.960938 4770.394531 506.507812 4779.84375 506.507812 L 4825.152344 506.507812 C 4834.601562 506.507812 4834.601562 520.960938 4825.152344 520.960938 Z M 4794.300781 636.03125 C 4792.910156 636.03125 4791.796875 635.753906 4790.683594 634.921875 L 4751.496094 612.40625 C 4748.160156 610.460938 4747.046875 606.011719 4748.992188 602.679688 C 4750.9375 599.066406 4755.386719 597.953125 4758.722656 599.898438 L 4797.914062 622.691406 C 4804.304688 626.304688 4801.527344 636.03125 4794.300781 636.03125 Z M 4710.078125 720.25 C 4707.578125 720.25 4705.078125 718.863281 4703.964844 716.636719 L 4681.171875 677.449219 C 4676.445312 669.386719 4688.953125 662.160156 4693.679688 670.21875 L 4716.195312 709.410156 C 4719.25 714.136719 4715.636719 720.25 4710.078125 720.25 Z M 4595.007812 751.105469 C 4591.117188 751.105469 4587.78125 747.769531 4587.78125 743.878906 L 4587.78125 698.570312 C 4587.78125 689.121094 4602.234375 689.121094 4602.234375 698.570312 L 4602.234375 743.878906 C 4602.234375 747.769531 4599.175781 751.105469 4595.007812 751.105469 Z M 4480.214844 720.25 C 4474.652344 720.25 4471.039062 714.136719 4473.820312 709.410156 L 4496.335938 670.21875 C 4501.335938 662.160156 4513.566406 669.386719 4508.84375 677.449219 L 4486.328125 716.636719 C 4484.9375 718.863281 4482.714844 720.25 4480.214844 720.25 Z M 4395.992188 636.03125 C 4388.488281 636.03125 4385.988281 626.304688 4392.378906 622.691406 L 4431.570312 599.898438 C 4439.632812 595.171875 4446.859375 607.679688 4438.796875 612.40625 L 4399.605469 634.921875 C 4398.496094 635.753906 4397.105469 636.03125 4395.992188 636.03125 Z M 4410.167969 520.960938 L 4365.140625 520.960938 C 4355.691406 520.960938 4355.691406 506.507812 4365.140625 506.507812 L 4410.167969 506.507812 C 4419.898438 506.507812 4419.898438 520.960938 4410.167969 520.960938 Z M 4435.183594 428.679688 C 4433.796875 428.679688 4432.683594 428.402344 4431.570312 427.570312 L 4392.378906 405.054688 C 4384.042969 400.328125 4391.269531 387.820312 4399.605469 392.546875 L 4438.796875 415.0625 C 4444.914062 418.953125 4442.410156 428.679688 4435.183594 428.679688 Z M 4435.183594 428.679688 "/></g><path style=" stroke:none;fill-rule:nonzero;fill:#ffffff;fill-opacity:1;" d="M 2500.207031 311.980469 L 2470.429688 311.769531 C 2466.398438 311.769531 2462.941406 315.164062 2462.941406 319.207031 L 2462.941406 383.257812 C 2462.941406 387.347656 2466.238281 390.667969 2470.328125 390.695312 L 2500.109375 390.90625 C 2500.152344 390.90625 2500.195312 390.90625 2500.238281 390.90625 C 2505.730469 390.90625 2510.976562 388.699219 2515.019531 384.679688 C 2519.488281 380.242188 2522.046875 373.964844 2522.046875 367.449219 C 2522.046875 361.25 2519.730469 355.628906 2516.019531 351.425781 C 2519.8125 347.085938 2522.046875 341.394531 2522.046875 335.4375 C 2522.046875 322.578125 2512.246094 312.0625 2500.207031 311.980469 Z M 2507.167969 335.4375 C 2507.167969 338 2506.210938 340.425781 2504.535156 342.089844 C 2503.652344 342.96875 2502.195312 344.3125 2500.203125 343.992188 L 2477.816406 343.847656 L 2477.816406 326.699219 L 2500.109375 326.859375 C 2504 326.878906 2507.167969 330.730469 2507.167969 335.4375 Z M 2504.53125 374.125 C 2503.65625 375 2502.203125 376.03125 2500.242188 376.03125 C 2500.230469 376.03125 2500.21875 376.03125 2500.207031 376.03125 L 2477.816406 375.871094 L 2477.816406 358.734375 L 2500.105469 358.871094 C 2503.933594 358.894531 2507.167969 362.824219 2507.167969 367.449219 C 2507.167969 370.03125 2506.207031 372.464844 2504.53125 374.125 Z M 2504.53125 374.125 "/><path style=" stroke:none;fill-rule:nonzero;fill:#ffffff;fill-opacity:1;" d="M 2586.710938 326.648438 C 2590.816406 326.648438 2594.148438 323.320312 2594.148438 319.207031 C 2594.148438 315.097656 2590.816406 311.769531 2586.710938 311.769531 L 2549.945312 311.769531 C 2545.835938 311.769531 2542.507812 315.097656 2542.507812 319.207031 L 2542.507812 383.257812 C 2542.507812 387.371094 2545.835938 390.695312 2549.945312 390.695312 L 2586.710938 390.695312 C 2590.816406 390.695312 2594.148438 387.371094 2594.148438 383.257812 C 2594.148438 379.148438 2590.816406 375.820312 2586.710938 375.820312 L 2557.382812 375.820312 L 2557.382812 358.683594 L 2586.710938 358.683594 C 2590.816406 358.683594 2594.148438 355.355469 2594.148438 351.246094 C 2594.148438 347.132812 2590.816406 343.804688 2586.710938 343.804688 L 2557.382812 343.804688 L 2557.382812 326.648438 Z M 2586.710938 326.648438 "/><path style=" stroke:none;fill-rule:nonzero;fill:#ffffff;fill-opacity:1;" d="M 2639.253906 343.839844 C 2628.746094 341.945312 2628.304688 337.660156 2628.738281 333.433594 C 2629.589844 327.992188 2634.894531 326.480469 2637.894531 326.449219 C 2639.835938 326.507812 2645.753906 326.886719 2646.957031 333.597656 C 2647.683594 337.636719 2651.542969 340.324219 2655.59375 339.605469 C 2659.636719 338.878906 2662.328125 335.015625 2661.601562 330.96875 C 2659.488281 319.230469 2650.0625 311.289062 2637.726562 311.574219 C 2625.5625 311.710938 2615.820312 319.753906 2613.992188 331.507812 C 2613.109375 339.898438 2614.882812 354.554688 2636.894531 358.53125 C 2648.734375 360.1875 2648.734375 365.394531 2648.734375 368.480469 C 2648.726562 370.609375 2647.953125 372.246094 2646.371094 373.480469 C 2644.433594 374.992188 2641.46875 375.820312 2637.964844 375.820312 C 2637.933594 375.8125 2637.894531 375.8125 2637.855469 375.820312 C 2631.378906 375.820312 2627.550781 372.421875 2627.089844 366.238281 C 2626.785156 362.140625 2623.253906 359.003906 2619.117188 359.371094 C 2615.023438 359.675781 2611.949219 363.246094 2612.257812 367.339844 C 2613.300781 381.316406 2623.582031 390.695312 2637.816406 390.695312 C 2637.890625 390.695312 2637.949219 390.695312 2638.007812 390.695312 C 2644.867188 390.695312 2650.921875 388.800781 2655.523438 385.203125 C 2660.71875 381.152344 2663.59375 375.222656 2663.613281 368.503906 C 2663.613281 360.5625 2660.410156 346.796875 2639.253906 343.839844 Z M 2639.253906 343.839844 "/><g clip-rule="nonzero" clip-path="url(#f8864446ae)"><path style=" stroke:none;fill-rule:nonzero;fill:#ffffff;fill-opacity:1;" d="M 2800.089844 410.832031 L 2778.042969 410.832031 L 2778.042969 292.453125 C 2778.042969 282.507812 2769.941406 274.417969 2759.976562 274.417969 L 2424.019531 274.417969 C 2414.054688 274.417969 2405.953125 282.507812 2405.953125 292.453125 L 2405.953125 410.832031 L 2383.90625 410.832031 C 2373.941406 410.832031 2365.839844 418.925781 2365.839844 428.871094 L 2365.839844 544.082031 C 2365.839844 554.035156 2373.941406 562.125 2383.90625 562.125 L 2438.835938 562.125 L 2438.835938 743.050781 C 2438.835938 745.875 2440.433594 748.457031 2442.964844 749.710938 C 2445.484375 750.96875 2448.511719 750.683594 2450.761719 748.984375 L 2591.984375 642.214844 L 2733.234375 748.984375 C 2734.550781 749.980469 2736.128906 750.488281 2737.71875 750.488281 C 2738.847656 750.488281 2739.984375 750.234375 2741.03125 749.710938 C 2743.558594 748.457031 2745.15625 745.875 2745.15625 743.050781 L 2745.15625 562.125 L 2800.089844 562.125 C 2810.054688 562.125 2818.15625 554.035156 2818.15625 544.082031 L 2818.15625 428.871094 C 2818.15625 418.925781 2810.054688 410.832031 2800.089844 410.832031 Z M 2420.828125 292.453125 C 2420.828125 290.710938 2422.261719 289.292969 2424.019531 289.292969 L 2759.976562 289.292969 C 2761.734375 289.292969 2763.164062 290.710938 2763.164062 292.453125 L 2763.164062 410.832031 L 2420.828125 410.832031 Z M 2453.714844 562.125 L 2498.726562 562.125 L 2498.726562 694.070312 L 2453.714844 728.101562 Z M 2587.496094 626.953125 L 2513.605469 682.820312 L 2513.605469 562.125 L 2670.390625 562.125 L 2670.390625 682.832031 L 2596.46875 626.953125 C 2593.816406 624.949219 2590.148438 624.949219 2587.496094 626.953125 Z M 2730.28125 728.101562 L 2685.265625 694.074219 L 2685.265625 562.125 L 2730.28125 562.125 Z M 2803.277344 544.082031 C 2803.277344 545.824219 2801.847656 547.25 2800.089844 547.25 L 2383.90625 547.25 C 2382.148438 547.25 2380.714844 545.824219 2380.714844 544.082031 L 2380.714844 428.871094 C 2380.714844 427.15625 2382.175781 425.710938 2383.90625 425.710938 L 2800.089844 425.710938 C 2801.820312 425.710938 2803.277344 427.15625 2803.277344 428.871094 Z M 2803.277344 544.082031 "/></g><path style=" stroke:none;fill-rule:nonzero;fill:#ffffff;fill-opacity:1;" d="M 2758.738281 462.03125 C 2762.84375 462.03125 2766.175781 458.703125 2766.175781 454.59375 C 2766.175781 450.480469 2762.84375 447.15625 2758.738281 447.15625 L 2720.46875 447.15625 C 2716.363281 447.15625 2713.03125 450.480469 2713.03125 454.59375 L 2713.03125 518.359375 C 2713.03125 522.46875 2716.363281 525.796875 2720.46875 525.796875 L 2758.738281 525.796875 C 2762.84375 525.796875 2766.175781 522.46875 2766.175781 518.359375 C 2766.175781 514.246094 2762.84375 510.921875 2758.738281 510.921875 L 2727.910156 510.921875 L 2727.910156 493.914062 L 2758.738281 493.914062 C 2762.84375 493.914062 2766.175781 490.585938 2766.175781 486.476562 C 2766.175781 482.363281 2762.84375 479.039062 2758.738281 479.039062 L 2727.910156 479.039062 L 2727.910156 462.03125 Z M 2758.738281 462.03125 "/><path style=" stroke:none;fill-rule:nonzero;fill:#ffffff;fill-opacity:1;" d="M 2477.527344 447.707031 C 2473.703125 446.152344 2469.378906 447.96875 2467.820312 451.773438 L 2448.574219 498.738281 L 2429.34375 451.773438 C 2427.792969 447.980469 2423.464844 446.152344 2419.640625 447.707031 C 2415.839844 449.269531 2414.019531 453.613281 2415.578125 457.410156 L 2441.6875 521.175781 C 2444.234375 527.113281 2452.953125 527.292969 2455.453125 521.175781 L 2481.589844 457.410156 C 2483.144531 453.613281 2481.328125 449.269531 2477.527344 447.707031 Z M 2477.527344 447.707031 "/><path style=" stroke:none;fill-rule:nonzero;fill:#ffffff;fill-opacity:1;" d="M 2548.472656 499.917969 C 2548.464844 499.898438 2548.460938 499.882812 2548.453125 499.867188 L 2529.492188 451.859375 C 2527.136719 445.796875 2518.011719 445.800781 2515.652344 451.859375 L 2496.699219 499.851562 C 2496.6875 499.882812 2496.675781 499.90625 2496.664062 499.9375 L 2490.46875 515.628906 C 2488.960938 519.449219 2490.835938 523.769531 2494.65625 525.273438 C 2495.550781 525.628906 2496.476562 525.796875 2497.382812 525.796875 C 2500.347656 525.796875 2503.152344 524.015625 2504.304688 521.089844 L 2508.597656 510.222656 L 2536.546875 510.222656 L 2540.839844 521.089844 C 2541.992188 524.019531 2544.792969 525.796875 2547.761719 525.796875 C 2548.667969 525.796875 2549.59375 525.628906 2550.488281 525.273438 C 2554.308594 523.769531 2556.183594 519.449219 2554.675781 515.628906 Z M 2514.476562 495.34375 L 2522.574219 474.84375 L 2530.671875 495.34375 Z M 2514.476562 495.34375 "/><path style=" stroke:none;fill-rule:nonzero;fill:#ffffff;fill-opacity:1;" d="M 2609.101562 510.921875 L 2586.683594 510.921875 L 2586.683594 454.59375 C 2586.683594 450.480469 2583.351562 447.15625 2579.246094 447.15625 C 2575.136719 447.15625 2571.804688 450.480469 2571.804688 454.59375 L 2571.804688 518.359375 C 2571.804688 522.46875 2575.136719 525.796875 2579.246094 525.796875 L 2609.101562 525.796875 C 2613.207031 525.796875 2616.539062 522.46875 2616.539062 518.359375 C 2616.539062 514.246094 2613.210938 510.921875 2609.101562 510.921875 Z M 2609.101562 510.921875 "/><path style=" stroke:none;fill-rule:nonzero;fill:#ffffff;fill-opacity:1;" d="M 2685.214844 447.15625 C 2681.105469 447.15625 2677.773438 450.480469 2677.773438 454.59375 L 2677.773438 496.683594 C 2677.773438 504.5625 2670.914062 510.972656 2662.480469 510.972656 C 2654.03125 510.972656 2647.160156 504.5625 2647.160156 496.683594 L 2647.160156 454.59375 C 2647.160156 450.480469 2643.828125 447.15625 2639.71875 447.15625 C 2635.613281 447.15625 2632.28125 450.480469 2632.28125 454.59375 L 2632.28125 496.683594 C 2632.28125 512.765625 2645.828125 525.847656 2662.480469 525.847656 C 2679.113281 525.847656 2692.652344 512.765625 2692.652344 496.683594 L 2692.652344 454.59375 C 2692.652344 450.480469 2689.320312 447.15625 2685.214844 447.15625 Z M 2685.214844 447.15625 "/><path style=" stroke:none;fill-rule:nonzero;fill:#ffffff;fill-opacity:1;" d="M 2726.589844 311.558594 L 2683.234375 311.558594 C 2679.125 311.558594 2675.796875 314.886719 2675.796875 319 C 2675.796875 323.109375 2679.125 326.4375 2683.234375 326.4375 L 2697.472656 326.4375 L 2697.472656 383.257812 C 2697.472656 387.371094 2700.804688 390.695312 2704.910156 390.695312 C 2709.019531 390.695312 2712.347656 387.371094 2712.347656 383.257812 L 2712.347656 326.4375 L 2726.589844 326.4375 C 2730.699219 326.4375 2734.03125 323.109375 2734.03125 319 C 2734.03125 314.886719 2730.699219 311.558594 2726.589844 311.558594 Z M 2726.589844 311.558594 "/><g clip-rule="nonzero" clip-path="url(#c272cbb533)"><path style=" stroke:none;fill-rule:nonzero;fill:#ffffff;fill-opacity:1;" d="M 1336.625 608.585938 L 1323.546875 598.183594 L 1409.765625 489.765625 C 1417.445312 479.929688 1427.765625 472.441406 1439.550781 468.152344 L 1509.65625 442.65625 C 1522.335938 438.035156 1536.832031 439.4375 1548.414062 446.378906 L 1570.433594 459.585938 L 1561.824219 473.929688 L 1539.804688 460.71875 C 1532.507812 456.34375 1523.378906 455.464844 1515.375 458.371094 L 1445.273438 483.867188 C 1436.429688 487.085938 1428.6875 492.703125 1422.898438 500.121094 L 1336.625 608.59375 Z M 1336.625 608.585938 "/></g><g clip-rule="nonzero" clip-path="url(#099593d9d7)"><path style=" stroke:none;fill-rule:nonzero;fill:#ffffff;fill-opacity:1;" d="M 1641.644531 506.828125 C 1633.632812 506.828125 1625.910156 503.695312 1620.46875 498.253906 C 1609.632812 487.40625 1606.203125 467.632812 1618.355469 455.484375 C 1626.433594 446.804688 1640.425781 428.984375 1642.730469 419.027344 C 1644.148438 412.921875 1644.835938 404.425781 1645.625 394.597656 C 1647.757812 368.140625 1650.410156 335.214844 1669.5 311.398438 C 1670.367188 310.300781 1671.410156 309.144531 1672.488281 307.933594 C 1674.167969 306.058594 1677.308594 302.570312 1677.507812 301.125 L 1677.507812 281.054688 L 1694.230469 281.054688 L 1694.230469 301.203125 C 1694.230469 308.753906 1689.074219 314.492188 1684.933594 319.101562 C 1684.066406 320.066406 1683.246094 320.980469 1682.542969 321.851562 C 1666.671875 341.667969 1664.246094 371.761719 1662.289062 395.9375 C 1661.445312 406.433594 1660.714844 415.496094 1659.011719 422.808594 C 1654.941406 440.359375 1632.878906 464.40625 1630.371094 467.09375 C 1625.378906 472.09375 1627.371094 481.511719 1632.285156 486.433594 C 1636.867188 491.015625 1645.964844 491.148438 1650.695312 486.703125 L 1710.007812 413.070312 L 1723.027344 423.558594 L 1662.800781 498.261719 C 1657.367188 503.707031 1649.644531 506.835938 1641.632812 506.835938 Z M 1641.644531 506.828125 "/></g><path style=" stroke:none;fill-rule:nonzero;fill:#ffffff;fill-opacity:1;" d="M 1361.628906 726.445312 L 1348.984375 715.503906 L 1399.574219 657.042969 C 1404.136719 651.410156 1410.746094 647.332031 1418.019531 645.757812 C 1442.839844 640.390625 1463.691406 618.5625 1480.460938 601.019531 C 1487.730469 593.417969 1494.007812 586.84375 1499.941406 582.234375 C 1514.097656 571.234375 1545.648438 565.929688 1549.199219 565.355469 C 1559.660156 564.25 1560.433594 553.980469 1560.433594 550.851562 C 1560.433594 547.363281 1558.582031 544.960938 1557.023438 543.5625 C 1554.382812 541.179688 1550.703125 539.960938 1547.074219 540.335938 L 1447.769531 558.9375 L 1444.699219 542.492188 L 1544.675781 523.792969 C 1553.605469 522.855469 1562.007812 525.542969 1568.21875 531.144531 C 1573.976562 536.335938 1577.148438 543.335938 1577.148438 550.851562 C 1577.148438 567.835938 1566.792969 580.324219 1551.378906 581.929688 C 1543.363281 583.226562 1519.34375 588.332031 1510.195312 595.445312 C 1505.246094 599.28125 1499.367188 605.4375 1492.558594 612.570312 C 1474.214844 631.761719 1451.386719 655.644531 1421.546875 662.097656 C 1417.992188 662.863281 1414.738281 664.878906 1412.382812 667.777344 L 1361.621094 726.445312 Z M 1361.628906 726.445312 "/><g clip-rule="nonzero" clip-path="url(#015f6aabbd)"><path style=" stroke:none;fill-rule:nonzero;fill:#ffffff;fill-opacity:1;" d="M 1755.132812 530.238281 L 1740.566406 522.039062 L 1773.441406 463.621094 C 1776.648438 456.664062 1778.625 447.550781 1779.371094 435.515625 L 1760.109375 283.238281 L 1776.703125 281.132812 L 1796.164062 434.941406 L 1796.113281 435.707031 C 1795.285156 450.300781 1792.808594 461.597656 1788.304688 471.25 L 1755.132812 530.230469 Z M 1755.132812 530.238281 "/></g><path style=" stroke:none;fill-rule:nonzero;fill:#ffffff;fill-opacity:1;" d="M 1471.527344 552.988281 L 1459.589844 541.273438 C 1515.039062 484.765625 1589.976562 436.011719 1646.0625 419.949219 L 1650.671875 436.019531 C 1597.117188 451.351562 1525.132812 498.355469 1471.527344 552.980469 Z M 1471.527344 552.988281 "/><path style=" stroke:none;fill-rule:nonzero;fill:#ffffff;fill-opacity:1;" d="M 1515.863281 671.90625 L 1504.664062 659.496094 C 1593.949219 578.914062 1677.804688 530.378906 1737.585938 524.210938 C 1728.617188 507.113281 1710.433594 482.347656 1685.882812 453.976562 L 1698.527344 443.039062 C 1717.027344 464.40625 1749.351562 504.019531 1758.046875 529.179688 L 1761.875 540.273438 L 1750.140625 540.273438 C 1694.789062 540.273438 1607.203125 589.480469 1515.863281 671.914062 Z M 1515.863281 671.90625 "/><path style=" stroke:none;fill-rule:nonzero;fill:#ffffff;fill-opacity:1;" d="M 1514.28125 673.039062 L 1506.246094 658.375 C 1576.851562 619.699219 1649.3125 600.203125 1727.488281 598.882812 C 1726.503906 576.941406 1721.574219 556.9375 1712.808594 539.335938 L 1727.765625 531.875 C 1738.8125 554.015625 1744.402344 579.347656 1744.402344 607.179688 L 1744.402344 615.542969 L 1736.035156 615.542969 C 1657.453125 615.542969 1584.921875 634.355469 1514.273438 673.046875 Z M 1514.28125 673.039062 "/><path style=" stroke:none;fill-rule:nonzero;fill:#ffffff;fill-opacity:1;" d="M 1678.910156 693.394531 L 1672.871094 689.394531 C 1635.9375 664.84375 1578.792969 659.332031 1512.039062 673.882812 L 1505.679688 675.265625 L 1502.777344 669.445312 C 1496.851562 657.59375 1483.878906 641.207031 1468.085938 625.613281 L 1479.824219 613.710938 C 1485.597656 619.40625 1503.835938 638.035156 1514.601562 656.246094 C 1579.585938 643.136719 1636.242188 648.511719 1675.683594 671.445312 C 1684.394531 660.253906 1703.058594 633.378906 1704.164062 607.371094 L 1720.871094 608.074219 C 1719.191406 647.964844 1685.167969 686.386719 1683.71875 688.003906 L 1678.890625 693.394531 Z M 1678.910156 693.394531 "/><path style=" stroke:none;fill-rule:nonzero;fill:#ffffff;fill-opacity:1;" d="M 1576.53125 509.382812 L 1567.433594 495.355469 C 1583.507812 484.929688 1599.671875 475.804688 1615.492188 468.25 L 1622.691406 483.335938 C 1607.535156 490.582031 1592.003906 499.339844 1576.53125 509.375 Z M 1576.53125 509.382812 "/><path style=" stroke:none;fill-rule:nonzero;fill:#ffffff;fill-opacity:1;" d="M 1608.664062 560.496094 L 1599.898438 546.25 C 1624.875 530.875 1648.523438 518.871094 1670.253906 510.539062 C 1671.714844 505.496094 1674.65625 500.828125 1679.019531 496.574219 C 1674.761719 491.269531 1670.132812 485.738281 1665.039062 479.851562 L 1677.691406 468.910156 C 1685.066406 477.441406 1691.484375 485.242188 1697.300781 492.765625 L 1702.773438 499.816406 L 1695.371094 504.820312 C 1689.34375 508.886719 1686.25 513.003906 1685.898438 517.394531 L 1685.472656 522.75 L 1680.429688 524.585938 C 1658.539062 532.5625 1634.398438 544.648438 1608.65625 560.496094 Z M 1608.664062 560.496094 "/><path style=" stroke:none;fill-rule:nonzero;fill:#ffffff;fill-opacity:1;" d="M 1568.800781 306.136719 L 1552.078125 306.136719 L 1552.078125 322.859375 L 1568.800781 322.859375 Z M 1568.800781 306.136719 "/><path style=" stroke:none;fill-rule:nonzero;fill:#ffffff;fill-opacity:1;" d="M 1435.003906 356.304688 L 1418.277344 356.304688 L 1418.277344 373.03125 L 1435.003906 373.03125 Z M 1435.003906 356.304688 "/><path style=" stroke:none;fill-rule:nonzero;fill:#ffffff;fill-opacity:1;" d="M 1476.816406 331.214844 L 1460.09375 331.214844 L 1460.09375 347.941406 L 1476.816406 347.941406 Z M 1476.816406 331.214844 "/><path style=" stroke:none;fill-rule:nonzero;fill:#ffffff;fill-opacity:1;" d="M 1518.621094 314.492188 L 1501.898438 314.492188 L 1501.898438 331.214844 L 1518.621094 331.214844 Z M 1518.621094 314.492188 "/><path style=" stroke:none;fill-rule:nonzero;fill:#ffffff;fill-opacity:1;" d="M 1401.554688 389.753906 L 1384.832031 389.753906 L 1384.832031 406.476562 L 1401.554688 406.476562 Z M 1401.554688 389.753906 "/><path style=" stroke:none;fill-rule:nonzero;fill:#ffffff;fill-opacity:1;" d="M 1376.464844 431.566406 L 1359.742188 431.566406 L 1359.742188 448.289062 L 1376.464844 448.289062 Z M 1376.464844 431.566406 "/><path style=" stroke:none;fill-rule:nonzero;fill:#ffffff;fill-opacity:1;" d="M 1359.742188 473.371094 L 1343.019531 473.371094 L 1343.019531 490.105469 L 1359.742188 490.105469 Z M 1359.742188 473.371094 "/><g clip-rule="nonzero" clip-path="url(#225467a4a3)"><path style=" stroke:none;fill-rule:nonzero;fill:#ffffff;fill-opacity:1;" d="M 1568.800781 740.96875 L 1552.078125 740.96875 L 1552.078125 757.691406 L 1568.800781 757.691406 Z M 1568.800781 740.96875 "/></g><path style=" stroke:none;fill-rule:nonzero;fill:#ffffff;fill-opacity:1;" d="M 1618.972656 732.601562 L 1602.246094 732.601562 L 1602.246094 749.324219 L 1618.972656 749.324219 Z M 1618.972656 732.601562 "/><path style=" stroke:none;fill-rule:nonzero;fill:#ffffff;fill-opacity:1;" d="M 1435.003906 690.789062 L 1418.277344 690.789062 L 1418.277344 707.519531 L 1435.003906 707.519531 Z M 1435.003906 690.789062 "/><path style=" stroke:none;fill-rule:nonzero;fill:#ffffff;fill-opacity:1;" d="M 1476.816406 715.878906 L 1460.09375 715.878906 L 1460.09375 732.601562 L 1476.816406 732.601562 Z M 1476.816406 715.878906 "/><path style=" stroke:none;fill-rule:nonzero;fill:#ffffff;fill-opacity:1;" d="M 1518.621094 732.601562 L 1501.898438 732.601562 L 1501.898438 749.324219 L 1518.621094 749.324219 Z M 1518.621094 732.601562 "/><path style=" stroke:none;fill-rule:nonzero;fill:#ffffff;fill-opacity:1;" d="M 3512.902344 644.859375 C 3494.1875 644.859375 3476.050781 641.183594 3458.953125 633.953125 C 3442.4375 626.980469 3427.625 616.972656 3414.898438 604.242188 C 3402.167969 591.515625 3392.1875 576.703125 3385.1875 560.1875 C 3377.957031 543.089844 3374.28125 524.925781 3374.28125 506.238281 C 3374.28125 487.550781 3377.957031 469.382812 3385.1875 452.285156 C 3392.160156 435.769531 3402.167969 420.957031 3414.898438 408.230469 C 3427.625 395.5 3442.4375 385.523438 3458.953125 378.519531 C 3476.050781 371.289062 3494.21875 367.617188 3512.902344 367.617188 C 3531.589844 367.617188 3549.757812 371.289062 3566.855469 378.519531 C 3583.371094 385.492188 3598.183594 395.5 3610.910156 408.230469 C 3623.640625 420.957031 3633.621094 435.769531 3640.621094 452.285156 C 3647.851562 469.382812 3651.527344 487.550781 3651.527344 506.238281 C 3651.527344 524.925781 3647.851562 543.089844 3640.621094 560.1875 C 3633.648438 576.703125 3623.640625 591.515625 3610.910156 604.242188 C 3598.183594 616.972656 3583.371094 626.953125 3566.855469 633.953125 C 3549.757812 641.183594 3531.621094 644.859375 3512.902344 644.859375 Z M 3512.902344 391.21875 C 3449.496094 391.21875 3397.886719 442.828125 3397.886719 506.238281 C 3397.886719 569.648438 3449.496094 621.253906 3512.902344 621.253906 C 3576.3125 621.253906 3627.921875 569.648438 3627.921875 506.238281 C 3627.921875 442.828125 3576.3125 391.21875 3512.902344 391.21875 Z M 3512.902344 391.21875 "/><path style=" stroke:none;fill-rule:nonzero;fill:#ffffff;fill-opacity:1;" d="M 3488.34375 574.21875 C 3485.335938 574.21875 3482.296875 573.058594 3479.984375 570.746094 L 3443.246094 534.007812 C 3438.648438 529.40625 3438.648438 521.914062 3443.246094 517.316406 C 3447.84375 512.714844 3455.339844 512.714844 3459.9375 517.316406 L 3488.34375 545.722656 L 3571.972656 462.09375 C 3576.574219 457.492188 3584.066406 457.492188 3588.664062 462.09375 C 3593.265625 466.691406 3593.265625 474.183594 3588.664062 478.785156 L 3496.675781 570.746094 C 3494.390625 573.058594 3491.351562 574.21875 3488.34375 574.21875 Z M 3488.34375 574.21875 "/><g clip-rule="nonzero" clip-path="url(#366274cb52)"><path style=" stroke:none;fill-rule:nonzero;fill:#ffffff;fill-opacity:1;" d="M 3540.210938 744.601562 L 3485.597656 744.601562 C 3480.59375 744.601562 3476.136719 741.449219 3474.460938 736.761719 L 3456.234375 685.558594 L 3426.148438 673.09375 L 3377.058594 696.4375 C 3372.546875 698.578125 3367.167969 697.652344 3363.636719 694.121094 L 3324.988281 655.476562 C 3321.460938 651.945312 3320.535156 646.566406 3322.675781 642.050781 L 3346.019531 592.960938 L 3333.550781 562.878906 L 3282.351562 544.652344 C 3277.636719 542.976562 3274.511719 538.519531 3274.511719 533.515625 L 3274.511719 478.929688 C 3274.511719 473.925781 3277.664062 469.46875 3282.351562 467.792969 L 3333.550781 449.566406 L 3346.019531 419.484375 L 3322.675781 370.390625 C 3320.535156 365.878906 3321.460938 360.5 3324.988281 356.96875 L 3363.636719 318.324219 C 3367.167969 314.792969 3372.546875 313.867188 3377.058594 316.007812 L 3426.148438 339.351562 L 3456.234375 326.886719 L 3474.460938 275.683594 C 3476.136719 270.96875 3480.59375 267.84375 3485.597656 267.84375 L 3540.242188 267.84375 C 3545.246094 267.84375 3549.699219 270.996094 3551.378906 275.683594 L 3569.601562 326.886719 L 3599.6875 339.351562 L 3648.777344 316.007812 C 3653.289062 313.867188 3658.671875 314.792969 3662.199219 318.324219 L 3700.847656 356.96875 C 3704.375 360.5 3705.300781 365.878906 3703.160156 370.390625 L 3679.816406 419.484375 L 3692.285156 449.566406 L 3743.488281 467.792969 C 3748.203125 469.46875 3751.328125 473.925781 3751.328125 478.929688 L 3751.328125 533.574219 C 3751.328125 538.578125 3748.171875 543.03125 3743.488281 544.710938 L 3692.285156 562.933594 L 3679.816406 593.019531 L 3703.160156 642.109375 C 3705.300781 646.625 3704.375 652.003906 3700.847656 655.53125 L 3662.199219 694.179688 C 3658.671875 697.710938 3653.289062 698.636719 3648.777344 696.496094 L 3599.6875 673.148438 L 3569.601562 685.617188 L 3551.378906 736.820312 C 3549.671875 741.449219 3545.214844 744.601562 3540.210938 744.601562 Z M 3493.925781 720.996094 L 3531.910156 720.996094 L 3549.09375 672.6875 C 3550.222656 669.535156 3552.621094 667.015625 3555.6875 665.746094 L 3595.464844 649.285156 C 3598.558594 648.011719 3602.03125 648.097656 3605.039062 649.515625 L 3651.351562 671.53125 L 3678.195312 644.683594 L 3656.183594 598.371094 C 3654.738281 595.363281 3654.648438 591.863281 3655.953125 588.796875 L 3672.410156 549.019531 C 3673.683594 545.925781 3676.230469 543.523438 3679.355469 542.425781 L 3727.664062 525.242188 L 3727.664062 487.261719 L 3679.355469 470.078125 C 3676.203125 468.949219 3673.683594 466.546875 3672.410156 463.480469 L 3655.953125 423.707031 C 3654.679688 420.609375 3654.765625 417.140625 3656.183594 414.132812 L 3678.195312 367.816406 L 3651.351562 340.972656 L 3605.039062 362.988281 C 3602.03125 364.433594 3598.53125 364.519531 3595.464844 363.21875 L 3555.6875 346.757812 C 3552.59375 345.484375 3550.191406 342.96875 3549.09375 339.816406 L 3531.910156 291.507812 L 3493.925781 291.507812 L 3476.746094 339.816406 C 3475.617188 342.96875 3473.214844 345.484375 3470.148438 346.757812 L 3430.375 363.21875 C 3427.277344 364.492188 3423.808594 364.402344 3420.796875 362.988281 L 3374.484375 340.972656 L 3347.640625 367.816406 L 3369.652344 414.132812 C 3371.101562 417.140625 3371.1875 420.640625 3369.886719 423.707031 L 3353.425781 463.480469 C 3352.152344 466.578125 3349.636719 468.976562 3346.484375 470.078125 L 3298.171875 487.261719 L 3298.171875 525.242188 L 3346.484375 542.425781 C 3349.636719 543.554688 3352.152344 545.953125 3353.425781 549.019531 L 3369.886719 588.796875 C 3371.160156 591.890625 3371.070312 595.363281 3369.652344 598.371094 L 3347.640625 644.683594 L 3374.484375 671.53125 L 3420.796875 649.515625 C 3423.808594 648.070312 3427.308594 647.984375 3430.375 649.285156 L 3470.148438 665.746094 C 3473.246094 667.015625 3475.644531 669.5625 3476.746094 672.6875 Z M 3493.925781 720.996094 "/></g><path style=" stroke:none;fill-rule:nonzero;fill:#ffffff;fill-opacity:1;" d="M 710.816406 640.460938 C 707.101562 642.652344 702.671875 643.414062 698.203125 644.128906 L 698.203125 556.511719 C 719 560.265625 735.324219 578.066406 735.324219 600.34375 C 736.082031 618.144531 725.707031 632.992188 710.816406 640.417969 Z M 684.113281 654.550781 C 684.113281 670.117188 660.363281 670.875 660.363281 653.789062 L 660.363281 547.609375 C 660.363281 542.421875 663.316406 537.234375 668.503906 535.757812 C 673.691406 534.238281 677.445312 535.757812 679.640625 537.234375 C 682.636719 539.46875 684.828125 543.179688 684.828125 546.894531 L 684.871094 654.550781 Z M 720.476562 483.027344 C 724.945312 483.027344 729.375 483.027344 734.605469 480.789062 C 737.558594 508.292969 735.324219 503.0625 736.082031 561.742188 C 731.613281 557.269531 727.183594 552.84375 721.234375 549.847656 C 721.234375 502.347656 722.710938 506.777344 720.476562 483.027344 Z M 531.148438 318.96875 C 447.246094 318.96875 374.519531 375.371094 353.722656 456.324219 C 352.246094 462.988281 346.296875 467.460938 339.589844 467.460938 C 329.210938 467.460938 323.265625 457.800781 325.5 449.617188 C 349.25 356.09375 433.914062 289.988281 531.148438 289.988281 C 628.429688 289.988281 713.050781 356.050781 736.800781 450.375 C 741.273438 468.175781 713.050781 476.359375 708.621094 457.039062 C 687.824219 376.128906 615.054688 318.929688 531.148438 318.929688 Z M 378.230469 546.851562 C 378.230469 540.1875 383.417969 534.996094 390.085938 534.996094 C 397.507812 534.996094 401.980469 540.945312 401.980469 547.609375 L 401.980469 653.789062 C 401.980469 670.875 378.230469 670.117188 378.230469 654.550781 Z M 326.257812 601.058594 C 326.257812 578.785156 342.585938 560.984375 363.382812 557.269531 L 363.382812 644.890625 C 342.585938 641.175781 326.257812 622.617188 326.257812 601.058594 Z M 339.589844 483.027344 L 341.824219 483.027344 C 339.589844 506.777344 341.109375 501.585938 340.347656 549.847656 C 335.160156 552.84375 329.972656 557.269531 325.5 561.699219 C 326.257812 502.304688 324.023438 509.011719 326.976562 480.789062 C 331.449219 482.265625 335.878906 483.027344 339.589844 483.027344 Z M 529.675781 735.460938 C 515.585938 735.460938 505.925781 728.792969 505.925781 722.085938 C 505.925781 715.421875 515.585938 708.714844 529.675781 708.714844 C 543.761719 708.714844 553.425781 715.421875 553.425781 722.085938 C 553.425781 728.792969 543.761719 735.460938 529.675781 735.460938 Z M 750.933594 446.664062 C 725.664062 345.671875 635.09375 275.140625 531.148438 275.140625 C 427.207031 275.140625 336.636719 345.671875 311.410156 446.664062 C 309.175781 454.085938 310.652344 461.511719 314.363281 468.175781 C 309.175781 515.675781 312.886719 511.964844 311.410156 600.300781 L 311.410156 601.058594 C 311.410156 631.515625 334.402344 656.742188 364.097656 659.738281 C 366.335938 672.351562 377.472656 681.253906 390.085938 681.253906 C 405.691406 681.253906 416.828125 668.640625 416.828125 653.789062 L 416.828125 547.609375 C 416.828125 514.199219 370.046875 510.488281 363.382812 541.664062 C 360.386719 541.664062 357.433594 542.421875 355.199219 543.179688 C 355.957031 508.253906 353.722656 510.488281 357.433594 476.359375 C 362.621094 472.605469 366.335938 466.699219 367.851562 459.992188 C 387.132812 385.75 453.953125 333.777344 530.433594 333.777344 C 606.914062 333.777344 674.453125 385.75 693.011719 459.992188 C 694.488281 466.699219 698.960938 472.605469 703.433594 476.359375 C 707.144531 510.488281 704.910156 507.535156 705.667969 543.179688 C 702.671875 542.421875 700.4375 541.664062 697.484375 541.664062 C 696.007812 534.996094 692.296875 529.050781 687.105469 525.335938 C 680.398438 520.148438 671.5 518.628906 662.597656 521.625 C 651.460938 525.335938 644.753906 535.757812 644.753906 547.609375 L 644.753906 653.789062 C 644.753906 668.640625 655.890625 681.253906 671.5 681.253906 C 684.113281 681.253906 695.25 672.351562 697.484375 659.738281 C 700.4375 659.738281 703.433594 658.980469 705.625 658.261719 L 705.625 702.050781 C 705.625 709.472656 699.71875 714.664062 693.011719 714.664062 L 566.796875 714.664062 C 562.367188 702.808594 547.519531 693.867188 529.675781 693.867188 C 508.160156 693.867188 491.074219 706.519531 491.074219 722.085938 C 491.074219 737.695312 508.160156 750.308594 529.675781 750.308594 C 547.519531 750.308594 562.367188 741.40625 566.796875 729.511719 L 693.011719 729.511719 C 708.621094 729.511719 720.476562 716.898438 720.476562 702.050781 L 720.476562 652.3125 C 738.320312 641.9375 749.457031 623.332031 750.171875 601.058594 C 748.695312 507.535156 753.167969 517.195312 747.21875 468.175781 C 751.691406 461.511719 753.167969 454.085938 750.933594 446.664062 "/><path style=" stroke:none;fill-rule:nonzero;fill:#ffffff;fill-opacity:1;" d="M 486.601562 543.898438 L 474.75 549.847656 L 465.847656 540.945312 L 471.753906 529.808594 C 473.273438 527.574219 473.273438 524.578125 471.753906 522.382812 C 467.324219 515.675781 464.328125 508.253906 462.851562 500.109375 C 462.09375 497.117188 459.902344 495.640625 457.664062 494.921875 L 445.050781 491.210938 L 445.050781 478.597656 L 457.664062 474.84375 C 460.617188 474.125 462.09375 471.890625 462.851562 469.652344 C 464.328125 461.511719 468.042969 454.085938 471.753906 447.378906 C 473.273438 445.144531 473.273438 442.191406 471.753906 439.957031 L 465.847656 428.820312 L 474.75 419.917969 L 485.886719 425.867188 C 488.121094 427.34375 491.074219 427.34375 493.3125 425.867188 C 499.976562 421.394531 507.398438 418.441406 515.585938 416.964844 C 518.539062 416.207031 520.011719 414.730469 520.773438 411.777344 L 524.484375 399.121094 L 537.097656 399.121094 L 540.8125 411.777344 C 541.570312 414.730469 543.804688 416.207031 546 416.964844 C 553.425781 418.441406 560.847656 421.394531 568.273438 425.867188 C 570.507812 427.34375 573.460938 427.34375 575.699219 425.867188 L 586.835938 419.917969 L 595.734375 428.820312 L 589.828125 439.957031 C 588.3125 442.191406 588.3125 445.144531 589.828125 447.378906 C 594.257812 454.085938 597.253906 461.511719 598.730469 469.652344 C 599.449219 472.648438 600.964844 474.125 603.917969 474.84375 C 609.867188 476.359375 613.578125 477.835938 616.53125 478.597656 L 616.53125 491.210938 L 603.917969 494.921875 C 600.964844 495.640625 599.449219 497.875 598.730469 500.109375 C 597.253906 508.253906 593.542969 515.675781 589.828125 522.382812 C 588.3125 524.578125 588.3125 527.574219 589.828125 529.808594 L 595.734375 540.945312 L 587.59375 549.847656 L 575.699219 543.898438 C 573.503906 542.421875 570.507812 542.421875 568.273438 543.898438 C 561.609375 548.371094 554.183594 551.324219 546 552.84375 C 543.046875 553.558594 541.570312 555.792969 540.8125 558.03125 L 537.097656 570.644531 L 524.484375 570.644531 L 520.773438 558.03125 C 520.011719 555.035156 517.820312 553.558594 515.585938 552.84375 C 508.160156 551.324219 499.976562 547.609375 493.3125 543.898438 C 491.835938 542.421875 488.839844 542.421875 486.601562 543.898438 Z M 512.589844 580.304688 C 513.347656 583.257812 516.300781 585.492188 520.011719 585.492188 L 543.804688 585.492188 C 546.757812 585.492188 549.710938 583.257812 551.230469 580.304688 L 554.941406 566.929688 C 561.609375 565.457031 567.554688 562.460938 573.503906 559.507812 L 586.117188 566.171875 C 589.070312 567.691406 592.78125 567.691406 595.019531 564.695312 L 611.34375 548.371094 C 613.578125 546.132812 614.339844 542.421875 612.820312 539.425781 L 606.15625 526.8125 C 609.109375 520.90625 612.101562 514.960938 613.578125 508.253906 L 626.953125 504.539062 C 629.90625 503.824219 632.140625 500.828125 632.140625 497.117188 L 632.140625 473.367188 C 632.140625 469.652344 629.90625 466.699219 626.191406 465.941406 C 625.476562 465.941406 618.050781 463.707031 612.820312 462.230469 C 611.34375 455.5625 608.390625 449.617188 605.394531 443.667969 L 612.101562 431.054688 C 613.578125 428.058594 613.578125 424.390625 610.625 422.152344 L 594.257812 405.785156 C 592.066406 403.59375 588.351562 402.832031 585.359375 404.308594 L 572.746094 411.015625 C 566.796875 408.023438 560.847656 405.070312 554.183594 403.59375 L 550.472656 390.21875 C 549.710938 387.265625 546.757812 385.03125 543.046875 385.03125 L 519.296875 385.03125 C 516.300781 385.03125 513.347656 387.265625 511.871094 390.21875 L 508.160156 403.59375 C 501.453125 405.070312 495.546875 408.023438 489.597656 411.015625 L 476.941406 404.308594 C 473.988281 402.832031 470.277344 403.59375 468.042969 405.785156 L 451.714844 422.152344 C 449.480469 424.390625 448.761719 428.058594 450.238281 431.054688 L 456.90625 443.667969 C 453.953125 449.617188 450.957031 455.5625 449.480469 462.230469 L 436.152344 465.941406 C 433.15625 466.699219 430.917969 469.652344 430.917969 473.367188 L 430.917969 497.117188 C 430.917969 500.109375 433.15625 503.0625 436.152344 504.539062 L 449.480469 508.253906 C 450.957031 514.960938 453.953125 520.90625 456.90625 526.8125 L 450.238281 539.425781 C 448.761719 542.421875 448.761719 546.132812 451.714844 548.371094 L 468.042969 564.695312 C 470.277344 566.929688 473.988281 567.691406 476.941406 566.171875 L 489.597656 559.507812 C 495.546875 562.460938 501.453125 565.457031 508.160156 566.929688 L 512.589844 580.304688 "/><path style=" stroke:none;fill-rule:nonzero;fill:#ffffff;fill-opacity:1;" d="M 513.347656 488.214844 C 511.871094 482.265625 514.066406 476.359375 518.539062 471.890625 C 522.25 468.175781 526.722656 466.699219 531.148438 466.699219 L 534.863281 466.699219 C 541.570312 468.175781 547.519531 474.125 548.996094 480.789062 C 550.472656 486.738281 548.234375 492.6875 543.804688 497.117188 C 539.335938 501.585938 533.386719 503.0625 527.4375 502.347656 C 520.773438 501.585938 514.824219 495.640625 513.347656 488.214844 Z M 531.148438 517.914062 C 540.09375 517.914062 548.234375 514.199219 554.183594 508.253906 C 561.609375 500.871094 565.320312 489.691406 563.085938 478.597656 C 560.847656 465.222656 550.472656 455.5625 537.097656 452.570312 C 525.960938 450.375 515.585938 454.085938 507.398438 461.511719 C 499.976562 468.9375 496.261719 480.074219 498.5 491.210938 C 500.734375 504.539062 511.113281 514.199219 524.484375 517.195312 C 526.722656 517.914062 528.914062 517.914062 531.148438 517.914062 "/><g style="fill:#ffffff;fill-opacity:1;"><g transform="translate(2394.966685, 927.087632)"><path style="stroke:none" d="M 78.921875 -64.609375 C 85.367188 -61.609375 90.394531 -57.691406 94 -52.859375 C 97.601562 -48.035156 99.40625 -42.460938 99.40625 -36.140625 C 99.40625 -23.703125 95.328125 -14.566406 87.171875 -8.734375 C 79.015625 -2.910156 68.828125 0 56.609375 0 L 15.8125 0 L 15.8125 -122.5625 L 51.78125 -122.5625 C 64.769531 -122.5625 74.984375 -119.921875 82.421875 -114.640625 C 89.859375 -109.367188 93.578125 -101.738281 93.578125 -91.75 C 93.578125 -85.644531 92.300781 -80.285156 89.75 -75.671875 C 87.195312 -71.066406 83.585938 -67.378906 78.921875 -64.609375 Z M 39.96875 -72.4375 L 54.609375 -72.4375 C 59.054688 -72.4375 62.5 -73.796875 64.9375 -76.515625 C 67.382812 -79.234375 68.609375 -82.59375 68.609375 -86.59375 C 68.609375 -90.695312 67.21875 -93.832031 64.4375 -96 C 61.664062 -98.164062 57.835938 -99.25 52.953125 -99.25 L 39.96875 -99.25 Z M 55.453125 -22.484375 C 61.109375 -22.484375 65.6875 -23.617188 69.1875 -25.890625 C 72.6875 -28.171875 74.4375 -31.585938 74.4375 -36.140625 C 74.4375 -44.796875 67.550781 -49.125 53.78125 -49.125 L 39.96875 -49.125 L 39.96875 -22.484375 Z M 55.453125 -22.484375 "/></g></g><g style="fill:#ffffff;fill-opacity:1;"><g transform="translate(2502.690118, 927.087632)"><path style="stroke:none" d="M 48.296875 -17.8125 C 52.953125 -17.8125 57.78125 -19.421875 62.78125 -22.640625 L 73.09375 -5.328125 C 69.101562 -3.109375 64.882812 -1.332031 60.4375 0 C 56 1.332031 51.785156 2 47.796875 2 C 39.128906 2 31.660156 0.363281 25.390625 -2.90625 C 19.117188 -6.1875 14.375 -10.796875 11.15625 -16.734375 C 7.9375 -22.671875 6.328125 -29.472656 6.328125 -37.140625 C 6.328125 -44.242188 8.1875 -50.789062 11.90625 -56.78125 C 15.625 -62.78125 20.703125 -67.523438 27.140625 -71.015625 C 33.578125 -74.515625 40.628906 -76.265625 48.296875 -76.265625 C 58.722656 -76.265625 67.296875 -73.210938 74.015625 -67.109375 C 80.734375 -61.003906 85.09375 -52.289062 87.09375 -40.96875 L 33.796875 -23.984375 C 37.347656 -19.867188 42.179688 -17.8125 48.296875 -17.8125 Z M 46.453125 -58.109375 C 41.234375 -58.109375 37.070312 -56.332031 33.96875 -52.78125 C 30.863281 -49.226562 29.3125 -44.457031 29.3125 -38.46875 L 29.3125 -36.96875 L 61.28125 -47.796875 C 58.945312 -54.671875 54.003906 -58.109375 46.453125 -58.109375 Z M 46.453125 -58.109375 "/></g></g><g style="fill:#ffffff;fill-opacity:1;"><g transform="translate(2594.762821, 927.087632)"><path style="stroke:none" d="M 35.640625 1.5 C 29.640625 1.5 24.03125 0.445312 18.8125 -1.65625 C 13.59375 -3.769531 9.265625 -6.710938 5.828125 -10.484375 L 15.484375 -23.3125 C 21.921875 -17.320312 27.972656 -14.328125 33.640625 -14.328125 C 36.628906 -14.328125 39.039062 -14.796875 40.875 -15.734375 C 42.707031 -16.679688 43.625 -18.097656 43.625 -19.984375 C 43.625 -22.203125 42.566406 -23.894531 40.453125 -25.0625 C 38.347656 -26.226562 35.988281 -27.195312 33.375 -27.96875 C 30.769531 -28.75 29.023438 -29.25 28.140625 -29.46875 C 21.816406 -31.46875 17.097656 -34.4375 13.984375 -38.375 C 10.878906 -42.320312 9.328125 -46.847656 9.328125 -51.953125 C 9.328125 -55.835938 10.351562 -59.640625 12.40625 -63.359375 C 14.457031 -67.078125 17.644531 -70.128906 21.96875 -72.515625 C 26.300781 -74.898438 31.6875 -76.09375 38.125 -76.09375 C 44.125 -76.09375 49.234375 -75.484375 53.453125 -74.265625 C 57.671875 -73.046875 61.722656 -71.046875 65.609375 -68.265625 L 56.78125 -54.609375 C 54.5625 -56.390625 52.09375 -57.863281 49.375 -59.03125 C 46.65625 -60.195312 44.1875 -60.78125 41.96875 -60.78125 C 39.300781 -60.78125 37.132812 -60.222656 35.46875 -59.109375 C 33.800781 -58.003906 32.96875 -56.671875 32.96875 -55.109375 C 32.851562 -52.785156 33.820312 -51.039062 35.875 -49.875 C 37.9375 -48.707031 41.128906 -47.515625 45.453125 -46.296875 C 46.117188 -46.066406 46.8125 -45.84375 47.53125 -45.625 C 48.257812 -45.40625 49.007812 -45.179688 49.78125 -44.953125 C 61.21875 -41.179688 66.9375 -34.300781 66.9375 -24.3125 C 66.9375 -19.644531 65.769531 -15.367188 63.4375 -11.484375 C 61.113281 -7.597656 57.59375 -4.460938 52.875 -2.078125 C 48.15625 0.304688 42.410156 1.5 35.640625 1.5 Z M 35.640625 1.5 "/></g></g><g style="fill:#ffffff;fill-opacity:1;"><g transform="translate(2669.186849, 927.087632)"><path style="stroke:none" d="M 42.125 -104.734375 L 42.125 -73.09375 L 59.78125 -73.09375 L 59.78125 -54.953125 L 42.125 -54.953125 L 42.125 0 L 18.8125 0 L 18.8125 -54.953125 L 7.5 -54.953125 L 7.5 -73.09375 L 18.8125 -73.09375 L 18.8125 -104.734375 Z M 42.125 -104.734375 "/></g></g><g style="fill:#ffffff;fill-opacity:1;"><g transform="translate(2734.791388, 927.087632)"><path style="stroke:none" d=""/></g></g><g style="fill:#ffffff;fill-opacity:1;"><g transform="translate(2395.332612, 1157.378026)"><path style="stroke:none" d="M 52.953125 -122.5625 C 67.941406 -122.5625 79.539062 -118.867188 87.75 -111.484375 C 95.96875 -104.097656 100.078125 -94.023438 100.078125 -81.265625 C 100.078125 -73.929688 98.660156 -67.070312 95.828125 -60.6875 C 92.992188 -54.3125 88.382812 -49.066406 82 -44.953125 C 75.625 -40.847656 67.382812 -38.796875 57.28125 -38.796875 L 39.96875 -38.796875 L 39.96875 0 L 15.8125 0 L 15.8125 -122.5625 Z M 57.109375 -62.28125 C 61.660156 -62.28125 65.320312 -63.304688 68.09375 -65.359375 C 70.875 -67.410156 72.875 -69.820312 74.09375 -72.59375 C 75.320312 -75.375 75.9375 -78.039062 75.9375 -80.59375 C 75.9375 -84.925781 74.65625 -89.117188 72.09375 -93.171875 C 69.539062 -97.222656 64.601562 -99.25 57.28125 -99.25 L 39.96875 -99.25 L 39.96875 -62.28125 Z M 57.109375 -62.28125 "/></g></g><g style="fill:#ffffff;fill-opacity:1;"><g transform="translate(2501.224558, 1157.378026)"><path style="stroke:none" d="M 34.796875 -56.109375 C 36.796875 -59.992188 39.546875 -63.488281 43.046875 -66.59375 C 46.546875 -69.707031 50.125 -72.125 53.78125 -73.84375 C 57.445312 -75.570312 60.332031 -76.4375 62.4375 -76.4375 L 61.28125 -53.125 C 60.613281 -53.226562 59.671875 -53.28125 58.453125 -53.28125 C 53.785156 -53.28125 49.675781 -52.054688 46.125 -49.609375 C 42.570312 -47.171875 39.851562 -44.035156 37.96875 -40.203125 C 36.082031 -36.378906 35.140625 -32.46875 35.140625 -28.46875 L 35.140625 0 L 11.984375 0 L 11.984375 -72.765625 L 32.96875 -72.765625 Z M 34.796875 -56.109375 "/></g></g><g style="fill:#ffffff;fill-opacity:1;"><g transform="translate(2569.488209, 1157.378026)"><path style="stroke:none" d="M 35.296875 -72.765625 L 35.296875 0 L 11.984375 0 L 11.984375 -72.765625 Z M 11.484375 -98.578125 C 11.484375 -101.910156 12.785156 -104.710938 15.390625 -106.984375 C 18.003906 -109.265625 20.976562 -110.40625 24.3125 -110.40625 C 27.53125 -110.40625 30.414062 -109.265625 32.96875 -106.984375 C 35.519531 -104.710938 36.796875 -101.910156 36.796875 -98.578125 C 36.796875 -95.242188 35.519531 -92.46875 32.96875 -90.25 C 30.414062 -88.03125 27.53125 -86.921875 24.3125 -86.921875 C 20.976562 -86.921875 18.003906 -88.03125 15.390625 -90.25 C 12.785156 -92.46875 11.484375 -95.242188 11.484375 -98.578125 Z M 11.484375 -98.578125 "/></g></g><g style="fill:#ffffff;fill-opacity:1;"><g transform="translate(2616.773264, 1157.378026)"><path style="stroke:none" d="M 73.765625 -6.5 C 70.546875 -3.945312 66.519531 -1.890625 61.6875 -0.328125 C 56.863281 1.222656 52.117188 2 47.453125 2 C 34.796875 2 24.773438 -1.410156 17.390625 -8.234375 C 10.015625 -15.066406 6.328125 -24.476562 6.328125 -36.46875 C 6.328125 -44.238281 8.128906 -51.035156 11.734375 -56.859375 C 15.347656 -62.691406 20.09375 -67.132812 25.96875 -70.1875 C 31.851562 -73.238281 38.179688 -74.765625 44.953125 -74.765625 C 57.054688 -74.765625 66.882812 -71.546875 74.4375 -65.109375 L 63.109375 -50.125 C 58.335938 -53.894531 53.007812 -55.78125 47.125 -55.78125 C 42.238281 -55.78125 38.101562 -53.945312 34.71875 -50.28125 C 31.332031 -46.625 29.640625 -42.019531 29.640625 -36.46875 C 29.640625 -30.914062 31.46875 -26.28125 35.125 -22.5625 C 38.789062 -18.84375 43.566406 -16.984375 49.453125 -16.984375 C 54.554688 -16.984375 58.773438 -18.367188 62.109375 -21.140625 Z M 73.765625 -6.5 "/></g></g><g style="fill:#ffffff;fill-opacity:1;"><g transform="translate(2696.525217, 1157.378026)"><path style="stroke:none" d="M 48.296875 -17.8125 C 52.953125 -17.8125 57.78125 -19.421875 62.78125 -22.640625 L 73.09375 -5.328125 C 69.101562 -3.109375 64.882812 -1.332031 60.4375 0 C 56 1.332031 51.785156 2 47.796875 2 C 39.128906 2 31.660156 0.363281 25.390625 -2.90625 C 19.117188 -6.1875 14.375 -10.796875 11.15625 -16.734375 C 7.9375 -22.671875 6.328125 -29.472656 6.328125 -37.140625 C 6.328125 -44.242188 8.1875 -50.789062 11.90625 -56.78125 C 15.625 -62.78125 20.703125 -67.523438 27.140625 -71.015625 C 33.578125 -74.515625 40.628906 -76.265625 48.296875 -76.265625 C 58.722656 -76.265625 67.296875 -73.210938 74.015625 -67.109375 C 80.734375 -61.003906 85.09375 -52.289062 87.09375 -40.96875 L 33.796875 -23.984375 C 37.347656 -19.867188 42.179688 -17.8125 48.296875 -17.8125 Z M 46.453125 -58.109375 C 41.234375 -58.109375 37.070312 -56.332031 33.96875 -52.78125 C 30.863281 -49.226562 29.3125 -44.457031 29.3125 -38.46875 L 29.3125 -36.96875 L 61.28125 -47.796875 C 58.945312 -54.671875 54.003906 -58.109375 46.453125 -58.109375 Z M 46.453125 -58.109375 "/></g></g><g style="fill:#ffffff;fill-opacity:1;"><g transform="translate(386.203455, 927.087632)"><path style="stroke:none" d="M 107.734375 -10.15625 C 104.628906 -7.601562 99.691406 -5.050781 92.921875 -2.5 C 86.148438 0.0507812 78.765625 1.328125 70.765625 1.328125 C 58.003906 1.328125 46.90625 -1.441406 37.46875 -6.984375 C 28.03125 -12.535156 20.8125 -20 15.8125 -29.375 C 10.820312 -38.757812 8.328125 -49.0625 8.328125 -60.28125 C 8.328125 -72.601562 10.820312 -83.59375 15.8125 -93.25 C 20.8125 -102.90625 27.804688 -110.425781 36.796875 -115.8125 C 45.785156 -121.195312 56.164062 -123.890625 67.9375 -123.890625 C 75.375 -123.890625 82.253906 -122.890625 88.578125 -120.890625 C 94.910156 -118.890625 100.460938 -116.390625 105.234375 -113.390625 L 95.75 -90.578125 C 86.976562 -97.242188 77.984375 -100.578125 68.765625 -100.578125 C 62.554688 -100.578125 56.726562 -98.851562 51.28125 -95.40625 C 45.84375 -91.96875 41.515625 -87.28125 38.296875 -81.34375 C 35.078125 -75.40625 33.46875 -68.828125 33.46875 -61.609375 C 33.46875 -53.722656 34.96875 -46.8125 37.96875 -40.875 C 40.96875 -34.9375 45.238281 -30.300781 50.78125 -26.96875 C 56.332031 -23.644531 62.828125 -21.984375 70.265625 -21.984375 C 76.265625 -21.984375 81.648438 -22.953125 86.421875 -24.890625 C 91.191406 -26.835938 94.96875 -29.140625 97.75 -31.796875 Z M 107.734375 -10.15625 "/></g></g><g style="fill:#ffffff;fill-opacity:1;"><g transform="translate(502.25168, 927.087632)"><path style="stroke:none" d="M 90.25 -72.765625 L 90.25 0 L 66.9375 0 L 66.9375 -8.984375 C 59.945312 -1.660156 51.84375 2 42.625 2 C 31.851562 2 23.109375 -1.21875 16.390625 -7.65625 C 9.679688 -14.09375 6.328125 -23.640625 6.328125 -36.296875 C 6.328125 -44.296875 7.960938 -51.316406 11.234375 -57.359375 C 14.515625 -63.410156 18.875 -68.101562 24.3125 -71.4375 C 29.75 -74.769531 35.578125 -76.4375 41.796875 -76.4375 C 48.234375 -76.4375 53.335938 -75.460938 57.109375 -73.515625 C 60.890625 -71.578125 64.222656 -68.832031 67.109375 -65.28125 L 68.609375 -72.765625 Z M 49.28125 -16.984375 C 57.382812 -16.984375 63.269531 -20.644531 66.9375 -27.96875 L 66.9375 -45.796875 C 65.601562 -49.347656 63.296875 -52.175781 60.015625 -54.28125 C 56.742188 -56.394531 52.890625 -57.453125 48.453125 -57.453125 C 43.347656 -57.453125 38.988281 -55.5625 35.375 -51.78125 C 31.769531 -48.007812 29.96875 -43.238281 29.96875 -37.46875 C 29.96875 -33.6875 30.851562 -30.210938 32.625 -27.046875 C 34.40625 -23.890625 36.765625 -21.421875 39.703125 -19.640625 C 42.648438 -17.867188 45.84375 -16.984375 49.28125 -16.984375 Z M 49.28125 -16.984375 "/></g></g><g style="fill:#ffffff;fill-opacity:1;"><g transform="translate(604.48072, 927.087632)"><path style="stroke:none" d="M 35.296875 -131.375 L 35.296875 0 L 11.984375 0 L 11.984375 -131.375 Z M 35.296875 -131.375 "/></g></g><g style="fill:#ffffff;fill-opacity:1;"><g transform="translate(651.765776, 927.087632)"><path style="stroke:none" d="M 35.296875 -131.375 L 35.296875 0 L 11.984375 0 L 11.984375 -131.375 Z M 35.296875 -131.375 "/></g></g><g style="fill:#ffffff;fill-opacity:1;"><g transform="translate(227.146954, 1157.378026)"><path style="stroke:none" d="M 81.265625 -92.921875 C 70.609375 -98.796875 61.335938 -101.734375 53.453125 -101.734375 C 48.117188 -101.734375 43.984375 -100.675781 41.046875 -98.5625 C 38.109375 -96.457031 36.640625 -93.296875 36.640625 -89.078125 C 36.640625 -85.191406 38.773438 -81.78125 43.046875 -78.84375 C 47.316406 -75.90625 53.003906 -73.101562 60.109375 -70.4375 C 65.878906 -68.320312 70.816406 -65.90625 74.921875 -63.1875 C 79.035156 -60.46875 82.453125 -56.722656 85.171875 -51.953125 C 87.890625 -47.179688 89.25 -41.128906 89.25 -33.796875 C 89.25 -27.472656 87.609375 -21.617188 84.328125 -16.234375 C 81.054688 -10.847656 76.253906 -6.570312 69.921875 -3.40625 C 63.597656 -0.25 56.054688 1.328125 47.296875 1.328125 C 39.960938 1.328125 32.6875 0.25 25.46875 -1.90625 C 18.257812 -4.070312 11.546875 -7.378906 5.328125 -11.828125 L 15.984375 -30.640625 C 20.203125 -27.523438 25.03125 -24.96875 30.46875 -22.96875 C 35.90625 -20.976562 40.789062 -19.984375 45.125 -19.984375 C 50.226562 -19.984375 54.664062 -21.0625 58.4375 -23.21875 C 62.21875 -25.382812 64.109375 -28.910156 64.109375 -33.796875 C 64.109375 -40.128906 58.171875 -45.625 46.296875 -50.28125 C 39.296875 -53.0625 33.460938 -55.726562 28.796875 -58.28125 C 24.140625 -60.832031 20.117188 -64.492188 16.734375 -69.265625 C 13.347656 -74.046875 11.65625 -80.039062 11.65625 -87.25 C 11.65625 -97.800781 15.125 -106.296875 22.0625 -112.734375 C 29 -119.171875 38.238281 -122.664062 49.78125 -123.21875 C 58.882812 -123.21875 66.488281 -122.191406 72.59375 -120.140625 C 78.707031 -118.085938 84.648438 -115.175781 90.421875 -111.40625 Z M 81.265625 -92.921875 "/></g></g><g style="fill:#ffffff;fill-opacity:1;"><g transform="translate(324.214593, 1157.378026)"><path style="stroke:none" d="M 85.25 -72.765625 L 85.25 0 L 64.109375 0 L 62.4375 -11.65625 C 59.882812 -6.988281 56.304688 -3.296875 51.703125 -0.578125 C 47.097656 2.140625 41.6875 3.5 35.46875 3.5 C 28.8125 3.5 23.257812 1.445312 18.8125 -2.65625 C 14.375 -6.769531 12.097656 -11.988281 11.984375 -18.3125 L 11.984375 -72.765625 L 35.296875 -72.765625 L 35.296875 -26.96875 C 35.628906 -19.863281 38.90625 -16.3125 45.125 -16.3125 C 50.226562 -16.3125 54.304688 -18.8125 57.359375 -23.8125 C 60.410156 -28.8125 61.9375 -35.25 61.9375 -43.125 L 61.9375 -72.765625 Z M 85.25 -72.765625 "/></g></g><g style="fill:#ffffff;fill-opacity:1;"><g transform="translate(421.448697, 1157.378026)"><path style="stroke:none" d="M 62.28125 -76.4375 C 69.050781 -76.4375 75.097656 -74.820312 80.421875 -71.59375 C 85.753906 -68.375 89.945312 -63.769531 93 -57.78125 C 96.050781 -51.789062 97.578125 -44.742188 97.578125 -36.640625 C 97.578125 -28.640625 95.882812 -21.722656 92.5 -15.890625 C 89.113281 -10.066406 84.394531 -5.628906 78.34375 -2.578125 C 72.289062 0.472656 65.378906 2 57.609375 2 C 53.390625 2 49.253906 1.25 45.203125 -0.25 C 41.148438 -1.75 37.796875 -3.882812 35.140625 -6.65625 L 35.140625 34.96875 L 11.984375 34.96875 L 11.984375 -74.4375 L 31.96875 -74.4375 L 33.96875 -65.78125 C 42.851562 -72.882812 52.289062 -76.4375 62.28125 -76.4375 Z M 52.953125 -16.3125 C 58.722656 -16.3125 63.660156 -18.195312 67.765625 -21.96875 C 71.878906 -25.75 73.9375 -30.523438 73.9375 -36.296875 C 73.9375 -42.296875 72.078125 -47.207031 68.359375 -51.03125 C 64.640625 -54.863281 60.054688 -56.78125 54.609375 -56.78125 C 50.066406 -56.78125 46.210938 -55.863281 43.046875 -54.03125 C 39.878906 -52.195312 37.296875 -49.453125 35.296875 -45.796875 L 35.296875 -27.96875 C 36.523438 -24.414062 38.71875 -21.582031 41.875 -19.46875 C 45.039062 -17.363281 48.734375 -16.3125 52.953125 -16.3125 Z M 52.953125 -16.3125 "/></g></g><g style="fill:#ffffff;fill-opacity:1;"><g transform="translate(525.342694, 1157.378026)"><path style="stroke:none" d="M 62.28125 -76.4375 C 69.050781 -76.4375 75.097656 -74.820312 80.421875 -71.59375 C 85.753906 -68.375 89.945312 -63.769531 93 -57.78125 C 96.050781 -51.789062 97.578125 -44.742188 97.578125 -36.640625 C 97.578125 -28.640625 95.882812 -21.722656 92.5 -15.890625 C 89.113281 -10.066406 84.394531 -5.628906 78.34375 -2.578125 C 72.289062 0.472656 65.378906 2 57.609375 2 C 53.390625 2 49.253906 1.25 45.203125 -0.25 C 41.148438 -1.75 37.796875 -3.882812 35.140625 -6.65625 L 35.140625 34.96875 L 11.984375 34.96875 L 11.984375 -74.4375 L 31.96875 -74.4375 L 33.96875 -65.78125 C 42.851562 -72.882812 52.289062 -76.4375 62.28125 -76.4375 Z M 52.953125 -16.3125 C 58.722656 -16.3125 63.660156 -18.195312 67.765625 -21.96875 C 71.878906 -25.75 73.9375 -30.523438 73.9375 -36.296875 C 73.9375 -42.296875 72.078125 -47.207031 68.359375 -51.03125 C 64.640625 -54.863281 60.054688 -56.78125 54.609375 -56.78125 C 50.066406 -56.78125 46.210938 -55.863281 43.046875 -54.03125 C 39.878906 -52.195312 37.296875 -49.453125 35.296875 -45.796875 L 35.296875 -27.96875 C 36.523438 -24.414062 38.71875 -21.582031 41.875 -19.46875 C 45.039062 -17.363281 48.734375 -16.3125 52.953125 -16.3125 Z M 52.953125 -16.3125 "/></g></g><g style="fill:#ffffff;fill-opacity:1;"><g transform="translate(629.236692, 1157.378026)"><path style="stroke:none" d="M 6.328125 -37.296875 C 6.328125 -44.734375 8.070312 -51.394531 11.5625 -57.28125 C 15.0625 -63.164062 20.003906 -67.800781 26.390625 -71.1875 C 32.773438 -74.570312 40.019531 -76.265625 48.125 -76.265625 C 56.226562 -76.265625 63.359375 -74.570312 69.515625 -71.1875 C 75.679688 -67.800781 80.425781 -63.164062 83.75 -57.28125 C 87.082031 -51.394531 88.75 -44.734375 88.75 -37.296875 C 88.75 -29.859375 87.082031 -23.140625 83.75 -17.140625 C 80.425781 -11.148438 75.679688 -6.460938 69.515625 -3.078125 C 63.359375 0.304688 56.117188 2 47.796875 2 C 39.691406 2 32.5 0.414062 26.21875 -2.75 C 19.945312 -5.914062 15.0625 -10.4375 11.5625 -16.3125 C 8.070312 -22.195312 6.328125 -29.191406 6.328125 -37.296875 Z M 29.8125 -37.140625 C 29.8125 -31.359375 31.472656 -26.550781 34.796875 -22.71875 C 38.128906 -18.894531 42.347656 -16.984375 47.453125 -16.984375 C 52.785156 -16.984375 57.085938 -18.867188 60.359375 -22.640625 C 63.640625 -26.421875 65.28125 -31.253906 65.28125 -37.140625 C 65.28125 -43.015625 63.640625 -47.835938 60.359375 -51.609375 C 57.085938 -55.390625 52.785156 -57.28125 47.453125 -57.28125 C 42.347656 -57.28125 38.128906 -55.363281 34.796875 -51.53125 C 31.472656 -47.707031 29.8125 -42.910156 29.8125 -37.140625 Z M 29.8125 -37.140625 "/></g></g><g style="fill:#ffffff;fill-opacity:1;"><g transform="translate(724.30632, 1157.378026)"><path style="stroke:none" d="M 34.796875 -56.109375 C 36.796875 -59.992188 39.546875 -63.488281 43.046875 -66.59375 C 46.546875 -69.707031 50.125 -72.125 53.78125 -73.84375 C 57.445312 -75.570312 60.332031 -76.4375 62.4375 -76.4375 L 61.28125 -53.125 C 60.613281 -53.226562 59.671875 -53.28125 58.453125 -53.28125 C 53.785156 -53.28125 49.675781 -52.054688 46.125 -49.609375 C 42.570312 -47.171875 39.851562 -44.035156 37.96875 -40.203125 C 36.082031 -36.378906 35.140625 -32.46875 35.140625 -28.46875 L 35.140625 0 L 11.984375 0 L 11.984375 -72.765625 L 32.96875 -72.765625 Z M 34.796875 -56.109375 "/></g></g><g style="fill:#ffffff;fill-opacity:1;"><g transform="translate(792.56997, 1157.378026)"><path style="stroke:none" d="M 42.125 -104.734375 L 42.125 -73.09375 L 59.78125 -73.09375 L 59.78125 -54.953125 L 42.125 -54.953125 L 42.125 0 L 18.8125 0 L 18.8125 -54.953125 L 7.5 -54.953125 L 7.5 -73.09375 L 18.8125 -73.09375 L 18.8125 -104.734375 Z M 42.125 -104.734375 "/></g></g><g style="fill:#ffffff;fill-opacity:1;"><g transform="translate(1371.704563, 927.087632)"><path style="stroke:none" d="M 99.40625 -122.5625 L 99.40625 -99.25 L 39.96875 -99.25 L 39.96875 -73.09375 L 92.578125 -73.09375 L 92.578125 -49.78125 L 39.96875 -49.78125 L 39.96875 -23.3125 L 101.734375 -23.3125 L 101.734375 0 L 15.8125 0 L 15.8125 -122.5625 Z M 99.40625 -122.5625 "/></g></g><g style="fill:#ffffff;fill-opacity:1;"><g transform="translate(1482.591386, 927.087632)"><path style="stroke:none" d="M 90.25 -72.765625 L 90.25 0 L 66.9375 0 L 66.9375 -8.984375 C 59.945312 -1.660156 51.84375 2 42.625 2 C 31.851562 2 23.109375 -1.21875 16.390625 -7.65625 C 9.679688 -14.09375 6.328125 -23.640625 6.328125 -36.296875 C 6.328125 -44.296875 7.960938 -51.316406 11.234375 -57.359375 C 14.515625 -63.410156 18.875 -68.101562 24.3125 -71.4375 C 29.75 -74.769531 35.578125 -76.4375 41.796875 -76.4375 C 48.234375 -76.4375 53.335938 -75.460938 57.109375 -73.515625 C 60.890625 -71.578125 64.222656 -68.832031 67.109375 -65.28125 L 68.609375 -72.765625 Z M 49.28125 -16.984375 C 57.382812 -16.984375 63.269531 -20.644531 66.9375 -27.96875 L 66.9375 -45.796875 C 65.601562 -49.347656 63.296875 -52.175781 60.015625 -54.28125 C 56.742188 -56.394531 52.890625 -57.453125 48.453125 -57.453125 C 43.347656 -57.453125 38.988281 -55.5625 35.375 -51.78125 C 31.769531 -48.007812 29.96875 -43.238281 29.96875 -37.46875 C 29.96875 -33.6875 30.851562 -30.210938 32.625 -27.046875 C 34.40625 -23.890625 36.765625 -21.421875 39.703125 -19.640625 C 42.648438 -17.867188 45.84375 -16.984375 49.28125 -16.984375 Z M 49.28125 -16.984375 "/></g></g><g style="fill:#ffffff;fill-opacity:1;"><g transform="translate(1584.820427, 927.087632)"><path style="stroke:none" d="M 35.640625 1.5 C 29.640625 1.5 24.03125 0.445312 18.8125 -1.65625 C 13.59375 -3.769531 9.265625 -6.710938 5.828125 -10.484375 L 15.484375 -23.3125 C 21.921875 -17.320312 27.972656 -14.328125 33.640625 -14.328125 C 36.628906 -14.328125 39.039062 -14.796875 40.875 -15.734375 C 42.707031 -16.679688 43.625 -18.097656 43.625 -19.984375 C 43.625 -22.203125 42.566406 -23.894531 40.453125 -25.0625 C 38.347656 -26.226562 35.988281 -27.195312 33.375 -27.96875 C 30.769531 -28.75 29.023438 -29.25 28.140625 -29.46875 C 21.816406 -31.46875 17.097656 -34.4375 13.984375 -38.375 C 10.878906 -42.320312 9.328125 -46.847656 9.328125 -51.953125 C 9.328125 -55.835938 10.351562 -59.640625 12.40625 -63.359375 C 14.457031 -67.078125 17.644531 -70.128906 21.96875 -72.515625 C 26.300781 -74.898438 31.6875 -76.09375 38.125 -76.09375 C 44.125 -76.09375 49.234375 -75.484375 53.453125 -74.265625 C 57.671875 -73.046875 61.722656 -71.046875 65.609375 -68.265625 L 56.78125 -54.609375 C 54.5625 -56.390625 52.09375 -57.863281 49.375 -59.03125 C 46.65625 -60.195312 44.1875 -60.78125 41.96875 -60.78125 C 39.300781 -60.78125 37.132812 -60.222656 35.46875 -59.109375 C 33.800781 -58.003906 32.96875 -56.671875 32.96875 -55.109375 C 32.851562 -52.785156 33.820312 -51.039062 35.875 -49.875 C 37.9375 -48.707031 41.128906 -47.515625 45.453125 -46.296875 C 46.117188 -46.066406 46.8125 -45.84375 47.53125 -45.625 C 48.257812 -45.40625 49.007812 -45.179688 49.78125 -44.953125 C 61.21875 -41.179688 66.9375 -34.300781 66.9375 -24.3125 C 66.9375 -19.644531 65.769531 -15.367188 63.4375 -11.484375 C 61.113281 -7.597656 57.59375 -4.460938 52.875 -2.078125 C 48.15625 0.304688 42.410156 1.5 35.640625 1.5 Z M 35.640625 1.5 "/></g></g><g style="fill:#ffffff;fill-opacity:1;"><g transform="translate(1659.244455, 927.087632)"><path style="stroke:none" d="M 87.25 -72.765625 L 40.296875 34.96875 L 17.8125 34.96875 L 35.296875 -3.828125 L 1.671875 -72.765625 L 27.8125 -72.765625 L 46.953125 -29.8125 L 66.265625 -72.765625 Z M 87.25 -72.765625 "/></g></g><g style="fill:#ffffff;fill-opacity:1;"><g transform="translate(1358.470184, 1157.378026)"><path style="stroke:none" d="M 39.96875 -122.5625 L 39.96875 -23.3125 L 97.578125 -23.3125 L 97.578125 0 L 15.8125 0 L 15.8125 -122.5625 Z M 39.96875 -122.5625 "/></g></g><g style="fill:#ffffff;fill-opacity:1;"><g transform="translate(1465.194641, 1157.378026)"><path style="stroke:none" d="M 6.328125 -37.296875 C 6.328125 -44.734375 8.070312 -51.394531 11.5625 -57.28125 C 15.0625 -63.164062 20.003906 -67.800781 26.390625 -71.1875 C 32.773438 -74.570312 40.019531 -76.265625 48.125 -76.265625 C 56.226562 -76.265625 63.359375 -74.570312 69.515625 -71.1875 C 75.679688 -67.800781 80.425781 -63.164062 83.75 -57.28125 C 87.082031 -51.394531 88.75 -44.734375 88.75 -37.296875 C 88.75 -29.859375 87.082031 -23.140625 83.75 -17.140625 C 80.425781 -11.148438 75.679688 -6.460938 69.515625 -3.078125 C 63.359375 0.304688 56.117188 2 47.796875 2 C 39.691406 2 32.5 0.414062 26.21875 -2.75 C 19.945312 -5.914062 15.0625 -10.4375 11.5625 -16.3125 C 8.070312 -22.195312 6.328125 -29.191406 6.328125 -37.296875 Z M 29.8125 -37.140625 C 29.8125 -31.359375 31.472656 -26.550781 34.796875 -22.71875 C 38.128906 -18.894531 42.347656 -16.984375 47.453125 -16.984375 C 52.785156 -16.984375 57.085938 -18.867188 60.359375 -22.640625 C 63.640625 -26.421875 65.28125 -31.253906 65.28125 -37.140625 C 65.28125 -43.015625 63.640625 -47.835938 60.359375 -51.609375 C 57.085938 -55.390625 52.785156 -57.28125 47.453125 -57.28125 C 42.347656 -57.28125 38.128906 -55.363281 34.796875 -51.53125 C 31.472656 -47.707031 29.8125 -42.910156 29.8125 -37.140625 Z M 29.8125 -37.140625 "/></g></g><g style="fill:#ffffff;fill-opacity:1;"><g transform="translate(1560.264269, 1157.378026)"><path style="stroke:none" d="M 90.25 -72.765625 L 90.25 0 L 66.9375 0 L 66.9375 -8.984375 C 59.945312 -1.660156 51.84375 2 42.625 2 C 31.851562 2 23.109375 -1.21875 16.390625 -7.65625 C 9.679688 -14.09375 6.328125 -23.640625 6.328125 -36.296875 C 6.328125 -44.296875 7.960938 -51.316406 11.234375 -57.359375 C 14.515625 -63.410156 18.875 -68.101562 24.3125 -71.4375 C 29.75 -74.769531 35.578125 -76.4375 41.796875 -76.4375 C 48.234375 -76.4375 53.335938 -75.460938 57.109375 -73.515625 C 60.890625 -71.578125 64.222656 -68.832031 67.109375 -65.28125 L 68.609375 -72.765625 Z M 49.28125 -16.984375 C 57.382812 -16.984375 63.269531 -20.644531 66.9375 -27.96875 L 66.9375 -45.796875 C 65.601562 -49.347656 63.296875 -52.175781 60.015625 -54.28125 C 56.742188 -56.394531 52.890625 -57.453125 48.453125 -57.453125 C 43.347656 -57.453125 38.988281 -55.5625 35.375 -51.78125 C 31.769531 -48.007812 29.96875 -43.238281 29.96875 -37.46875 C 29.96875 -33.6875 30.851562 -30.210938 32.625 -27.046875 C 34.40625 -23.890625 36.765625 -21.421875 39.703125 -19.640625 C 42.648438 -17.867188 45.84375 -16.984375 49.28125 -16.984375 Z M 49.28125 -16.984375 "/></g></g><g style="fill:#ffffff;fill-opacity:1;"><g transform="translate(1662.49331, 1157.378026)"><path style="stroke:none" d="M 62.609375 -76.265625 C 69.492188 -76.265625 75.238281 -74.207031 79.84375 -70.09375 C 84.445312 -65.988281 86.804688 -60.773438 86.921875 -54.453125 L 86.921875 0 L 63.609375 0 L 63.609375 -45.796875 C 63.273438 -52.898438 59.722656 -56.453125 52.953125 -56.453125 C 47.617188 -56.453125 43.34375 -53.953125 40.125 -48.953125 C 36.90625 -43.960938 35.296875 -37.523438 35.296875 -29.640625 L 35.296875 0 L 11.984375 0 L 11.984375 -72.765625 L 33.140625 -72.765625 L 34.796875 -61.109375 C 37.460938 -65.878906 41.15625 -69.597656 45.875 -72.265625 C 50.59375 -74.929688 56.171875 -76.265625 62.609375 -76.265625 Z M 62.609375 -76.265625 "/></g></g><g style="fill:#ffffff;fill-opacity:1;"><g transform="translate(3189.950773, 920.485226)"><path style="stroke:none" d="M 117.234375 -122.5625 L 61.28125 5.65625 L 5.328125 -122.5625 L 34.296875 -122.5625 L 62.28125 -53.453125 L 88.59375 -122.5625 Z M 117.234375 -122.5625 "/></g></g><g style="fill:#ffffff;fill-opacity:1;"><g transform="translate(3312.492422, 920.485226)"><path style="stroke:none" d="M 48.296875 -17.8125 C 52.953125 -17.8125 57.78125 -19.421875 62.78125 -22.640625 L 73.09375 -5.328125 C 69.101562 -3.109375 64.882812 -1.332031 60.4375 0 C 56 1.332031 51.785156 2 47.796875 2 C 39.128906 2 31.660156 0.363281 25.390625 -2.90625 C 19.117188 -6.1875 14.375 -10.796875 11.15625 -16.734375 C 7.9375 -22.671875 6.328125 -29.472656 6.328125 -37.140625 C 6.328125 -44.242188 8.1875 -50.789062 11.90625 -56.78125 C 15.625 -62.78125 20.703125 -67.523438 27.140625 -71.015625 C 33.578125 -74.515625 40.628906 -76.265625 48.296875 -76.265625 C 58.722656 -76.265625 67.296875 -73.210938 74.015625 -67.109375 C 80.734375 -61.003906 85.09375 -52.289062 87.09375 -40.96875 L 33.796875 -23.984375 C 37.347656 -19.867188 42.179688 -17.8125 48.296875 -17.8125 Z M 46.453125 -58.109375 C 41.234375 -58.109375 37.070312 -56.332031 33.96875 -52.78125 C 30.863281 -49.226562 29.3125 -44.457031 29.3125 -38.46875 L 29.3125 -36.96875 L 61.28125 -47.796875 C 58.945312 -54.671875 54.003906 -58.109375 46.453125 -58.109375 Z M 46.453125 -58.109375 "/></g></g><g style="fill:#ffffff;fill-opacity:1;"><g transform="translate(3404.565125, 920.485226)"><path style="stroke:none" d="M 34.796875 -56.109375 C 36.796875 -59.992188 39.546875 -63.488281 43.046875 -66.59375 C 46.546875 -69.707031 50.125 -72.125 53.78125 -73.84375 C 57.445312 -75.570312 60.332031 -76.4375 62.4375 -76.4375 L 61.28125 -53.125 C 60.613281 -53.226562 59.671875 -53.28125 58.453125 -53.28125 C 53.785156 -53.28125 49.675781 -52.054688 46.125 -49.609375 C 42.570312 -47.171875 39.851562 -44.035156 37.96875 -40.203125 C 36.082031 -36.378906 35.140625 -32.46875 35.140625 -28.46875 L 35.140625 0 L 11.984375 0 L 11.984375 -72.765625 L 32.96875 -72.765625 Z M 34.796875 -56.109375 "/></g></g><g style="fill:#ffffff;fill-opacity:1;"><g transform="translate(3472.828776, 920.485226)"><path style="stroke:none" d="M 35.296875 -72.765625 L 35.296875 0 L 11.984375 0 L 11.984375 -72.765625 Z M 11.484375 -98.578125 C 11.484375 -101.910156 12.785156 -104.710938 15.390625 -106.984375 C 18.003906 -109.265625 20.976562 -110.40625 24.3125 -110.40625 C 27.53125 -110.40625 30.414062 -109.265625 32.96875 -106.984375 C 35.519531 -104.710938 36.796875 -101.910156 36.796875 -98.578125 C 36.796875 -95.242188 35.519531 -92.46875 32.96875 -90.25 C 30.414062 -88.03125 27.53125 -86.921875 24.3125 -86.921875 C 20.976562 -86.921875 18.003906 -88.03125 15.390625 -90.25 C 12.785156 -92.46875 11.484375 -95.242188 11.484375 -98.578125 Z M 11.484375 -98.578125 "/></g></g><g style="fill:#ffffff;fill-opacity:1;"><g transform="translate(3520.113832, 920.485226)"><path style="stroke:none" d="M 18.984375 -52.453125 L 6.65625 -52.453125 L 6.65625 -73.09375 L 18.984375 -73.09375 L 18.984375 -98.40625 C 18.984375 -108.175781 21.785156 -116.03125 27.390625 -121.96875 C 32.992188 -127.90625 40.90625 -130.875 51.125 -130.875 C 54.445312 -130.875 57.992188 -130.375 61.765625 -129.375 C 65.546875 -128.382812 68.828125 -126.890625 71.609375 -124.890625 L 61.78125 -108.0625 C 59.78125 -110.507812 57.0625 -111.734375 53.625 -111.734375 C 50.175781 -111.734375 47.425781 -110.566406 45.375 -108.234375 C 43.320312 -105.898438 42.296875 -102.40625 42.296875 -97.75 L 42.296875 -73.09375 L 64.28125 -73.09375 L 64.28125 -52.453125 L 42.296875 -52.453125 L 42.296875 0 L 18.984375 0 Z M 18.984375 -52.453125 "/></g></g><g style="fill:#ffffff;fill-opacity:1;"><g transform="translate(3592.539907, 920.485226)"><path style="stroke:none" d="M 35.296875 -72.765625 L 35.296875 0 L 11.984375 0 L 11.984375 -72.765625 Z M 11.484375 -98.578125 C 11.484375 -101.910156 12.785156 -104.710938 15.390625 -106.984375 C 18.003906 -109.265625 20.976562 -110.40625 24.3125 -110.40625 C 27.53125 -110.40625 30.414062 -109.265625 32.96875 -106.984375 C 35.519531 -104.710938 36.796875 -101.910156 36.796875 -98.578125 C 36.796875 -95.242188 35.519531 -92.46875 32.96875 -90.25 C 30.414062 -88.03125 27.53125 -86.921875 24.3125 -86.921875 C 20.976562 -86.921875 18.003906 -88.03125 15.390625 -90.25 C 12.785156 -92.46875 11.484375 -95.242188 11.484375 -98.578125 Z M 11.484375 -98.578125 "/></g></g><g style="fill:#ffffff;fill-opacity:1;"><g transform="translate(3639.824963, 920.485226)"><path style="stroke:none" d="M 48.296875 -17.8125 C 52.953125 -17.8125 57.78125 -19.421875 62.78125 -22.640625 L 73.09375 -5.328125 C 69.101562 -3.109375 64.882812 -1.332031 60.4375 0 C 56 1.332031 51.785156 2 47.796875 2 C 39.128906 2 31.660156 0.363281 25.390625 -2.90625 C 19.117188 -6.1875 14.375 -10.796875 11.15625 -16.734375 C 7.9375 -22.671875 6.328125 -29.472656 6.328125 -37.140625 C 6.328125 -44.242188 8.1875 -50.789062 11.90625 -56.78125 C 15.625 -62.78125 20.703125 -67.523438 27.140625 -71.015625 C 33.578125 -74.515625 40.628906 -76.265625 48.296875 -76.265625 C 58.722656 -76.265625 67.296875 -73.210938 74.015625 -67.109375 C 80.734375 -61.003906 85.09375 -52.289062 87.09375 -40.96875 L 33.796875 -23.984375 C 37.347656 -19.867188 42.179688 -17.8125 48.296875 -17.8125 Z M 46.453125 -58.109375 C 41.234375 -58.109375 37.070312 -56.332031 33.96875 -52.78125 C 30.863281 -49.226562 29.3125 -44.457031 29.3125 -38.46875 L 29.3125 -36.96875 L 61.28125 -47.796875 C 58.945312 -54.671875 54.003906 -58.109375 46.453125 -58.109375 Z M 46.453125 -58.109375 "/></g></g><g style="fill:#ffffff;fill-opacity:1;"><g transform="translate(3731.897666, 920.485226)"><path style="stroke:none" d="M 91.921875 -131.375 L 91.921875 0 L 68.609375 0 L 68.609375 -7.65625 C 60.171875 -1.21875 51.175781 2 41.625 2 C 34.851562 2 28.800781 0.390625 23.46875 -2.828125 C 18.144531 -6.046875 13.957031 -10.648438 10.90625 -16.640625 C 7.851562 -22.640625 6.328125 -29.691406 6.328125 -37.796875 C 6.328125 -45.785156 7.960938 -52.691406 11.234375 -58.515625 C 14.515625 -64.347656 19.039062 -68.789062 24.8125 -71.84375 C 30.582031 -74.90625 37.1875 -76.4375 44.625 -76.4375 C 49.394531 -76.4375 53.890625 -75.6875 58.109375 -74.1875 C 62.328125 -72.6875 65.878906 -70.492188 68.765625 -67.609375 L 68.765625 -131.375 Z M 49.28125 -17.65625 C 53.945312 -17.65625 57.832031 -18.566406 60.9375 -20.390625 C 64.050781 -22.222656 66.609375 -24.972656 68.609375 -28.640625 L 68.609375 -46.453125 C 67.273438 -50.003906 64.882812 -52.832031 61.4375 -54.9375 C 58 -57.050781 53.945312 -58.109375 49.28125 -58.109375 C 44.070312 -58.109375 39.550781 -56.222656 35.71875 -52.453125 C 31.882812 -48.679688 29.96875 -43.90625 29.96875 -38.125 C 29.96875 -34.351562 30.851562 -30.882812 32.625 -27.71875 C 34.40625 -24.5625 36.765625 -22.09375 39.703125 -20.3125 C 42.648438 -18.539062 45.84375 -17.65625 49.28125 -17.65625 Z M 49.28125 -17.65625 "/></g></g><g style="fill:#ffffff;fill-opacity:1;"><g transform="translate(3253.622164, 1150.77562)"><path style="stroke:none" d="M 81.265625 -92.921875 C 70.609375 -98.796875 61.335938 -101.734375 53.453125 -101.734375 C 48.117188 -101.734375 43.984375 -100.675781 41.046875 -98.5625 C 38.109375 -96.457031 36.640625 -93.296875 36.640625 -89.078125 C 36.640625 -85.191406 38.773438 -81.78125 43.046875 -78.84375 C 47.316406 -75.90625 53.003906 -73.101562 60.109375 -70.4375 C 65.878906 -68.320312 70.816406 -65.90625 74.921875 -63.1875 C 79.035156 -60.46875 82.453125 -56.722656 85.171875 -51.953125 C 87.890625 -47.179688 89.25 -41.128906 89.25 -33.796875 C 89.25 -27.472656 87.609375 -21.617188 84.328125 -16.234375 C 81.054688 -10.847656 76.253906 -6.570312 69.921875 -3.40625 C 63.597656 -0.25 56.054688 1.328125 47.296875 1.328125 C 39.960938 1.328125 32.6875 0.25 25.46875 -1.90625 C 18.257812 -4.070312 11.546875 -7.378906 5.328125 -11.828125 L 15.984375 -30.640625 C 20.203125 -27.523438 25.03125 -24.96875 30.46875 -22.96875 C 35.90625 -20.976562 40.789062 -19.984375 45.125 -19.984375 C 50.226562 -19.984375 54.664062 -21.0625 58.4375 -23.21875 C 62.21875 -25.382812 64.109375 -28.910156 64.109375 -33.796875 C 64.109375 -40.128906 58.171875 -45.625 46.296875 -50.28125 C 39.296875 -53.0625 33.460938 -55.726562 28.796875 -58.28125 C 24.140625 -60.832031 20.117188 -64.492188 16.734375 -69.265625 C 13.347656 -74.046875 11.65625 -80.039062 11.65625 -87.25 C 11.65625 -97.800781 15.125 -106.296875 22.0625 -112.734375 C 29 -119.171875 38.238281 -122.664062 49.78125 -123.21875 C 58.882812 -123.21875 66.488281 -122.191406 72.59375 -120.140625 C 78.707031 -118.085938 84.648438 -115.175781 90.421875 -111.40625 Z M 81.265625 -92.921875 "/></g></g><g style="fill:#ffffff;fill-opacity:1;"><g transform="translate(3350.689803, 1150.77562)"><path style="stroke:none" d="M 48.296875 -17.8125 C 52.953125 -17.8125 57.78125 -19.421875 62.78125 -22.640625 L 73.09375 -5.328125 C 69.101562 -3.109375 64.882812 -1.332031 60.4375 0 C 56 1.332031 51.785156 2 47.796875 2 C 39.128906 2 31.660156 0.363281 25.390625 -2.90625 C 19.117188 -6.1875 14.375 -10.796875 11.15625 -16.734375 C 7.9375 -22.671875 6.328125 -29.472656 6.328125 -37.140625 C 6.328125 -44.242188 8.1875 -50.789062 11.90625 -56.78125 C 15.625 -62.78125 20.703125 -67.523438 27.140625 -71.015625 C 33.578125 -74.515625 40.628906 -76.265625 48.296875 -76.265625 C 58.722656 -76.265625 67.296875 -73.210938 74.015625 -67.109375 C 80.734375 -61.003906 85.09375 -52.289062 87.09375 -40.96875 L 33.796875 -23.984375 C 37.347656 -19.867188 42.179688 -17.8125 48.296875 -17.8125 Z M 46.453125 -58.109375 C 41.234375 -58.109375 37.070312 -56.332031 33.96875 -52.78125 C 30.863281 -49.226562 29.3125 -44.457031 29.3125 -38.46875 L 29.3125 -36.96875 L 61.28125 -47.796875 C 58.945312 -54.671875 54.003906 -58.109375 46.453125 -58.109375 Z M 46.453125 -58.109375 "/></g></g><g style="fill:#ffffff;fill-opacity:1;"><g transform="translate(3442.762507, 1150.77562)"><path style="stroke:none" d="M 35.296875 -131.375 L 35.296875 0 L 11.984375 0 L 11.984375 -131.375 Z M 35.296875 -131.375 "/></g></g><g style="fill:#ffffff;fill-opacity:1;"><g transform="translate(3490.047563, 1150.77562)"><path style="stroke:none" d="M 35.296875 -131.375 L 35.296875 0 L 11.984375 0 L 11.984375 -131.375 Z M 35.296875 -131.375 "/></g></g><g style="fill:#ffffff;fill-opacity:1;"><g transform="translate(3537.332619, 1150.77562)"><path style="stroke:none" d="M 48.296875 -17.8125 C 52.953125 -17.8125 57.78125 -19.421875 62.78125 -22.640625 L 73.09375 -5.328125 C 69.101562 -3.109375 64.882812 -1.332031 60.4375 0 C 56 1.332031 51.785156 2 47.796875 2 C 39.128906 2 31.660156 0.363281 25.390625 -2.90625 C 19.117188 -6.1875 14.375 -10.796875 11.15625 -16.734375 C 7.9375 -22.671875 6.328125 -29.472656 6.328125 -37.140625 C 6.328125 -44.242188 8.1875 -50.789062 11.90625 -56.78125 C 15.625 -62.78125 20.703125 -67.523438 27.140625 -71.015625 C 33.578125 -74.515625 40.628906 -76.265625 48.296875 -76.265625 C 58.722656 -76.265625 67.296875 -73.210938 74.015625 -67.109375 C 80.734375 -61.003906 85.09375 -52.289062 87.09375 -40.96875 L 33.796875 -23.984375 C 37.347656 -19.867188 42.179688 -17.8125 48.296875 -17.8125 Z M 46.453125 -58.109375 C 41.234375 -58.109375 37.070312 -56.332031 33.96875 -52.78125 C 30.863281 -49.226562 29.3125 -44.457031 29.3125 -38.46875 L 29.3125 -36.96875 L 61.28125 -47.796875 C 58.945312 -54.671875 54.003906 -58.109375 46.453125 -58.109375 Z M 46.453125 -58.109375 "/></g></g><g style="fill:#ffffff;fill-opacity:1;"><g transform="translate(3629.405322, 1150.77562)"><path style="stroke:none" d="M 34.796875 -56.109375 C 36.796875 -59.992188 39.546875 -63.488281 43.046875 -66.59375 C 46.546875 -69.707031 50.125 -72.125 53.78125 -73.84375 C 57.445312 -75.570312 60.332031 -76.4375 62.4375 -76.4375 L 61.28125 -53.125 C 60.613281 -53.226562 59.671875 -53.28125 58.453125 -53.28125 C 53.785156 -53.28125 49.675781 -52.054688 46.125 -49.609375 C 42.570312 -47.171875 39.851562 -44.035156 37.96875 -40.203125 C 36.082031 -36.378906 35.140625 -32.46875 35.140625 -28.46875 L 35.140625 0 L 11.984375 0 L 11.984375 -72.765625 L 32.96875 -72.765625 Z M 34.796875 -56.109375 "/></g></g><g style="fill:#ffffff;fill-opacity:1;"><g transform="translate(3697.668972, 1150.77562)"><path style="stroke:none" d="M 35.640625 1.5 C 29.640625 1.5 24.03125 0.445312 18.8125 -1.65625 C 13.59375 -3.769531 9.265625 -6.710938 5.828125 -10.484375 L 15.484375 -23.3125 C 21.921875 -17.320312 27.972656 -14.328125 33.640625 -14.328125 C 36.628906 -14.328125 39.039062 -14.796875 40.875 -15.734375 C 42.707031 -16.679688 43.625 -18.097656 43.625 -19.984375 C 43.625 -22.203125 42.566406 -23.894531 40.453125 -25.0625 C 38.347656 -26.226562 35.988281 -27.195312 33.375 -27.96875 C 30.769531 -28.75 29.023438 -29.25 28.140625 -29.46875 C 21.816406 -31.46875 17.097656 -34.4375 13.984375 -38.375 C 10.878906 -42.320312 9.328125 -46.847656 9.328125 -51.953125 C 9.328125 -55.835938 10.351562 -59.640625 12.40625 -63.359375 C 14.457031 -67.078125 17.644531 -70.128906 21.96875 -72.515625 C 26.300781 -74.898438 31.6875 -76.09375 38.125 -76.09375 C 44.125 -76.09375 49.234375 -75.484375 53.453125 -74.265625 C 57.671875 -73.046875 61.722656 -71.046875 65.609375 -68.265625 L 56.78125 -54.609375 C 54.5625 -56.390625 52.09375 -57.863281 49.375 -59.03125 C 46.65625 -60.195312 44.1875 -60.78125 41.96875 -60.78125 C 39.300781 -60.78125 37.132812 -60.222656 35.46875 -59.109375 C 33.800781 -58.003906 32.96875 -56.671875 32.96875 -55.109375 C 32.851562 -52.785156 33.820312 -51.039062 35.875 -49.875 C 37.9375 -48.707031 41.128906 -47.515625 45.453125 -46.296875 C 46.117188 -46.066406 46.8125 -45.84375 47.53125 -45.625 C 48.257812 -45.40625 49.007812 -45.179688 49.78125 -44.953125 C 61.21875 -41.179688 66.9375 -34.300781 66.9375 -24.3125 C 66.9375 -19.644531 65.769531 -15.367188 63.4375 -11.484375 C 61.113281 -7.597656 57.59375 -4.460938 52.875 -2.078125 C 48.15625 0.304688 42.410156 1.5 35.640625 1.5 Z M 35.640625 1.5 "/></g></g><g style="fill:#ffffff;fill-opacity:1;"><g transform="translate(4363.233954, 927.087632)"><path style="stroke:none" d="M 140.375 0 L 83.59375 0 C 79.15625 0.882812 74.878906 1.328125 70.765625 1.328125 C 59.441406 1.328125 49.003906 -1.472656 39.453125 -7.078125 C 29.910156 -12.679688 22.335938 -20.253906 16.734375 -29.796875 C 11.128906 -39.347656 8.328125 -49.785156 8.328125 -61.109375 C 8.328125 -72.210938 11.128906 -82.59375 16.734375 -92.25 C 22.335938 -101.90625 29.941406 -109.59375 39.546875 -115.3125 C 49.148438 -121.03125 59.554688 -123.890625 70.765625 -123.890625 C 81.984375 -123.890625 92.390625 -121.03125 101.984375 -115.3125 C 111.585938 -109.59375 119.25 -101.90625 124.96875 -92.25 C 130.6875 -82.59375 133.546875 -72.210938 133.546875 -61.109375 C 133.546875 -54.222656 132.4375 -47.585938 130.21875 -41.203125 C 128 -34.828125 124.890625 -28.972656 120.890625 -23.640625 L 140.375 -23.640625 Z M 33.296875 -61.109375 C 33.296875 -54.003906 34.988281 -47.484375 38.375 -41.546875 C 41.757812 -35.609375 46.363281 -30.890625 52.1875 -27.390625 C 58.019531 -23.890625 64.492188 -22.140625 71.609375 -22.140625 C 78.484375 -22.140625 84.75 -23.890625 90.40625 -27.390625 C 96.070312 -30.890625 100.515625 -35.609375 103.734375 -41.546875 C 106.953125 -47.484375 108.5625 -54.003906 108.5625 -61.109375 C 108.5625 -68.210938 106.894531 -74.734375 103.5625 -80.671875 C 100.238281 -86.609375 95.691406 -91.296875 89.921875 -94.734375 C 84.148438 -98.179688 77.820312 -99.90625 70.9375 -99.90625 C 63.9375 -99.90625 57.578125 -98.179688 51.859375 -94.734375 C 46.148438 -91.296875 41.628906 -86.609375 38.296875 -80.671875 C 34.960938 -74.734375 33.296875 -68.210938 33.296875 -61.109375 Z M 33.296875 -61.109375 "/></g></g><g style="fill:#ffffff;fill-opacity:1;"><g transform="translate(4511.915541, 927.087632)"><path style="stroke:none" d="M 85.25 -72.765625 L 85.25 0 L 64.109375 0 L 62.4375 -11.65625 C 59.882812 -6.988281 56.304688 -3.296875 51.703125 -0.578125 C 47.097656 2.140625 41.6875 3.5 35.46875 3.5 C 28.8125 3.5 23.257812 1.445312 18.8125 -2.65625 C 14.375 -6.769531 12.097656 -11.988281 11.984375 -18.3125 L 11.984375 -72.765625 L 35.296875 -72.765625 L 35.296875 -26.96875 C 35.628906 -19.863281 38.90625 -16.3125 45.125 -16.3125 C 50.226562 -16.3125 54.304688 -18.8125 57.359375 -23.8125 C 60.410156 -28.8125 61.9375 -35.25 61.9375 -43.125 L 61.9375 -72.765625 Z M 85.25 -72.765625 "/></g></g><g style="fill:#ffffff;fill-opacity:1;"><g transform="translate(4609.149645, 927.087632)"><path style="stroke:none" d="M 35.296875 -72.765625 L 35.296875 0 L 11.984375 0 L 11.984375 -72.765625 Z M 11.484375 -98.578125 C 11.484375 -101.910156 12.785156 -104.710938 15.390625 -106.984375 C 18.003906 -109.265625 20.976562 -110.40625 24.3125 -110.40625 C 27.53125 -110.40625 30.414062 -109.265625 32.96875 -106.984375 C 35.519531 -104.710938 36.796875 -101.910156 36.796875 -98.578125 C 36.796875 -95.242188 35.519531 -92.46875 32.96875 -90.25 C 30.414062 -88.03125 27.53125 -86.921875 24.3125 -86.921875 C 20.976562 -86.921875 18.003906 -88.03125 15.390625 -90.25 C 12.785156 -92.46875 11.484375 -95.242188 11.484375 -98.578125 Z M 11.484375 -98.578125 "/></g></g><g style="fill:#ffffff;fill-opacity:1;"><g transform="translate(4656.434701, 927.087632)"><path style="stroke:none" d="M 73.765625 -6.5 C 70.546875 -3.945312 66.519531 -1.890625 61.6875 -0.328125 C 56.863281 1.222656 52.117188 2 47.453125 2 C 34.796875 2 24.773438 -1.410156 17.390625 -8.234375 C 10.015625 -15.066406 6.328125 -24.476562 6.328125 -36.46875 C 6.328125 -44.238281 8.128906 -51.035156 11.734375 -56.859375 C 15.347656 -62.691406 20.09375 -67.132812 25.96875 -70.1875 C 31.851562 -73.238281 38.179688 -74.765625 44.953125 -74.765625 C 57.054688 -74.765625 66.882812 -71.546875 74.4375 -65.109375 L 63.109375 -50.125 C 58.335938 -53.894531 53.007812 -55.78125 47.125 -55.78125 C 42.238281 -55.78125 38.101562 -53.945312 34.71875 -50.28125 C 31.332031 -46.625 29.640625 -42.019531 29.640625 -36.46875 C 29.640625 -30.914062 31.46875 -26.28125 35.125 -22.5625 C 38.789062 -18.84375 43.566406 -16.984375 49.453125 -16.984375 C 54.554688 -16.984375 58.773438 -18.367188 62.109375 -21.140625 Z M 73.765625 -6.5 "/></g></g><g style="fill:#ffffff;fill-opacity:1;"><g transform="translate(4736.186654, 927.087632)"><path style="stroke:none" d="M 41.796875 -30.3125 L 35.296875 -25.484375 L 35.296875 0 L 11.984375 0 L 11.984375 -131.375 L 35.296875 -131.375 L 35.296875 -49.125 L 69.9375 -74.59375 L 84.09375 -62.109375 L 58.28125 -42.625 L 86.75 0 L 59.609375 0 Z M 41.796875 -30.3125 "/></g></g><g style="fill:#ffffff;fill-opacity:1;"><g transform="translate(4312.431014, 1157.378026)"><path style="stroke:none" d="M 81.265625 -92.921875 C 70.609375 -98.796875 61.335938 -101.734375 53.453125 -101.734375 C 48.117188 -101.734375 43.984375 -100.675781 41.046875 -98.5625 C 38.109375 -96.457031 36.640625 -93.296875 36.640625 -89.078125 C 36.640625 -85.191406 38.773438 -81.78125 43.046875 -78.84375 C 47.316406 -75.90625 53.003906 -73.101562 60.109375 -70.4375 C 65.878906 -68.320312 70.816406 -65.90625 74.921875 -63.1875 C 79.035156 -60.46875 82.453125 -56.722656 85.171875 -51.953125 C 87.890625 -47.179688 89.25 -41.128906 89.25 -33.796875 C 89.25 -27.472656 87.609375 -21.617188 84.328125 -16.234375 C 81.054688 -10.847656 76.253906 -6.570312 69.921875 -3.40625 C 63.597656 -0.25 56.054688 1.328125 47.296875 1.328125 C 39.960938 1.328125 32.6875 0.25 25.46875 -1.90625 C 18.257812 -4.070312 11.546875 -7.378906 5.328125 -11.828125 L 15.984375 -30.640625 C 20.203125 -27.523438 25.03125 -24.96875 30.46875 -22.96875 C 35.90625 -20.976562 40.789062 -19.984375 45.125 -19.984375 C 50.226562 -19.984375 54.664062 -21.0625 58.4375 -23.21875 C 62.21875 -25.382812 64.109375 -28.910156 64.109375 -33.796875 C 64.109375 -40.128906 58.171875 -45.625 46.296875 -50.28125 C 39.296875 -53.0625 33.460938 -55.726562 28.796875 -58.28125 C 24.140625 -60.832031 20.117188 -64.492188 16.734375 -69.265625 C 13.347656 -74.046875 11.65625 -80.039062 11.65625 -87.25 C 11.65625 -97.800781 15.125 -106.296875 22.0625 -112.734375 C 29 -119.171875 38.238281 -122.664062 49.78125 -123.21875 C 58.882812 -123.21875 66.488281 -122.191406 72.59375 -120.140625 C 78.707031 -118.085938 84.648438 -115.175781 90.421875 -111.40625 Z M 81.265625 -92.921875 "/></g></g><g style="fill:#ffffff;fill-opacity:1;"><g transform="translate(4409.498654, 1157.378026)"><path style="stroke:none" d="M 48.296875 -17.8125 C 52.953125 -17.8125 57.78125 -19.421875 62.78125 -22.640625 L 73.09375 -5.328125 C 69.101562 -3.109375 64.882812 -1.332031 60.4375 0 C 56 1.332031 51.785156 2 47.796875 2 C 39.128906 2 31.660156 0.363281 25.390625 -2.90625 C 19.117188 -6.1875 14.375 -10.796875 11.15625 -16.734375 C 7.9375 -22.671875 6.328125 -29.472656 6.328125 -37.140625 C 6.328125 -44.242188 8.1875 -50.789062 11.90625 -56.78125 C 15.625 -62.78125 20.703125 -67.523438 27.140625 -71.015625 C 33.578125 -74.515625 40.628906 -76.265625 48.296875 -76.265625 C 58.722656 -76.265625 67.296875 -73.210938 74.015625 -67.109375 C 80.734375 -61.003906 85.09375 -52.289062 87.09375 -40.96875 L 33.796875 -23.984375 C 37.347656 -19.867188 42.179688 -17.8125 48.296875 -17.8125 Z M 46.453125 -58.109375 C 41.234375 -58.109375 37.070312 -56.332031 33.96875 -52.78125 C 30.863281 -49.226562 29.3125 -44.457031 29.3125 -38.46875 L 29.3125 -36.96875 L 61.28125 -47.796875 C 58.945312 -54.671875 54.003906 -58.109375 46.453125 -58.109375 Z M 46.453125 -58.109375 "/></g></g><g style="fill:#ffffff;fill-opacity:1;"><g transform="translate(4501.571357, 1157.378026)"><path style="stroke:none" d="M 34.796875 -56.109375 C 36.796875 -59.992188 39.546875 -63.488281 43.046875 -66.59375 C 46.546875 -69.707031 50.125 -72.125 53.78125 -73.84375 C 57.445312 -75.570312 60.332031 -76.4375 62.4375 -76.4375 L 61.28125 -53.125 C 60.613281 -53.226562 59.671875 -53.28125 58.453125 -53.28125 C 53.785156 -53.28125 49.675781 -52.054688 46.125 -49.609375 C 42.570312 -47.171875 39.851562 -44.035156 37.96875 -40.203125 C 36.082031 -36.378906 35.140625 -32.46875 35.140625 -28.46875 L 35.140625 0 L 11.984375 0 L 11.984375 -72.765625 L 32.96875 -72.765625 Z M 34.796875 -56.109375 "/></g></g><g style="fill:#ffffff;fill-opacity:1;"><g transform="translate(4569.835008, 1157.378026)"><path style="stroke:none" d="M 87.25 -72.765625 L 45.953125 1.5 L 45.296875 1.5 L 1.671875 -72.765625 L 29.3125 -72.765625 L 46.296875 -38.125 L 61.28125 -72.765625 Z M 87.25 -72.765625 "/></g></g><g style="fill:#ffffff;fill-opacity:1;"><g transform="translate(4658.744263, 1157.378026)"><path style="stroke:none" d="M 35.296875 -72.765625 L 35.296875 0 L 11.984375 0 L 11.984375 -72.765625 Z M 11.484375 -98.578125 C 11.484375 -101.910156 12.785156 -104.710938 15.390625 -106.984375 C 18.003906 -109.265625 20.976562 -110.40625 24.3125 -110.40625 C 27.53125 -110.40625 30.414062 -109.265625 32.96875 -106.984375 C 35.519531 -104.710938 36.796875 -101.910156 36.796875 -98.578125 C 36.796875 -95.242188 35.519531 -92.46875 32.96875 -90.25 C 30.414062 -88.03125 27.53125 -86.921875 24.3125 -86.921875 C 20.976562 -86.921875 18.003906 -88.03125 15.390625 -90.25 C 12.785156 -92.46875 11.484375 -95.242188 11.484375 -98.578125 Z M 11.484375 -98.578125 "/></g></g><g style="fill:#ffffff;fill-opacity:1;"><g transform="translate(4706.029318, 1157.378026)"><path style="stroke:none" d="M 73.765625 -6.5 C 70.546875 -3.945312 66.519531 -1.890625 61.6875 -0.328125 C 56.863281 1.222656 52.117188 2 47.453125 2 C 34.796875 2 24.773438 -1.410156 17.390625 -8.234375 C 10.015625 -15.066406 6.328125 -24.476562 6.328125 -36.46875 C 6.328125 -44.238281 8.128906 -51.035156 11.734375 -56.859375 C 15.347656 -62.691406 20.09375 -67.132812 25.96875 -70.1875 C 31.851562 -73.238281 38.179688 -74.765625 44.953125 -74.765625 C 57.054688 -74.765625 66.882812 -71.546875 74.4375 -65.109375 L 63.109375 -50.125 C 58.335938 -53.894531 53.007812 -55.78125 47.125 -55.78125 C 42.238281 -55.78125 38.101562 -53.945312 34.71875 -50.28125 C 31.332031 -46.625 29.640625 -42.019531 29.640625 -36.46875 C 29.640625 -30.914062 31.46875 -26.28125 35.125 -22.5625 C 38.789062 -18.84375 43.566406 -16.984375 49.453125 -16.984375 C 54.554688 -16.984375 58.773438 -18.367188 62.109375 -21.140625 Z M 73.765625 -6.5 "/></g></g><g style="fill:#ffffff;fill-opacity:1;"><g transform="translate(4785.781271, 1157.378026)"><path style="stroke:none" d="M 48.296875 -17.8125 C 52.953125 -17.8125 57.78125 -19.421875 62.78125 -22.640625 L 73.09375 -5.328125 C 69.101562 -3.109375 64.882812 -1.332031 60.4375 0 C 56 1.332031 51.785156 2 47.796875 2 C 39.128906 2 31.660156 0.363281 25.390625 -2.90625 C 19.117188 -6.1875 14.375 -10.796875 11.15625 -16.734375 C 7.9375 -22.671875 6.328125 -29.472656 6.328125 -37.140625 C 6.328125 -44.242188 8.1875 -50.789062 11.90625 -56.78125 C 15.625 -62.78125 20.703125 -67.523438 27.140625 -71.015625 C 33.578125 -74.515625 40.628906 -76.265625 48.296875 -76.265625 C 58.722656 -76.265625 67.296875 -73.210938 74.015625 -67.109375 C 80.734375 -61.003906 85.09375 -52.289062 87.09375 -40.96875 L 33.796875 -23.984375 C 37.347656 -19.867188 42.179688 -17.8125 48.296875 -17.8125 Z M 46.453125 -58.109375 C 41.234375 -58.109375 37.070312 -56.332031 33.96875 -52.78125 C 30.863281 -49.226562 29.3125 -44.457031 29.3125 -38.46875 L 29.3125 -36.96875 L 61.28125 -47.796875 C 58.945312 -54.671875 54.003906 -58.109375 46.453125 -58.109375 Z M 46.453125 -58.109375 "/></g></g></g></svg>