<svg xmlns="http://www.w3.org/2000/svg" xmlns:xlink="http://www.w3.org/1999/xlink" width="6912" zoomAndPan="magnify" viewBox="0 0 5184 1483.49996" height="1978" preserveAspectRatio="xMidYMid meet" version="1.2"><defs><clipPath id="b087ed6cd6"><path d="M 0.875 0 L 5183.125 0 L 5183.125 1483 L 0.875 1483 Z M 0.875 0 "/></clipPath><clipPath id="9908434de3"><path d="M 4358 276 L 4833 276 L 4833 751.257812 L 4358 751.257812 Z M 4358 276 "/></clipPath><clipPath id="9d819fa242"><path d="M 2365 274.417969 L 2819 274.417969 L 2819 751 L 2365 751 Z M 2365 274.417969 "/></clipPath><clipPath id="c24819cef3"><path d="M 1323.359375 440 L 1571 440 L 1571 609 L 1323.359375 609 Z M 1323.359375 440 "/></clipPath><clipPath id="ece6687666"><path d="M 1610 281.019531 L 1724 281.019531 L 1724 507 L 1610 507 Z M 1610 281.019531 "/></clipPath><clipPath id="22cbf9edd3"><path d="M 1740 281.019531 L 1796.449219 281.019531 L 1796.449219 531 L 1740 531 Z M 1740 281.019531 "/></clipPath><clipPath id="cad346d58f"><path d="M 1552 741 L 1569 741 L 1569 757.859375 L 1552 757.859375 Z M 1552 741 "/></clipPath><clipPath id="b2669060e9"><path d="M 3274.511719 267.816406 L 3751.351562 267.816406 L 3751.351562 744.652344 L 3274.511719 744.652344 Z M 3274.511719 267.816406 "/></clipPath></defs><g id="351796a3da"><g clip-rule="nonzero" clip-path="url(#b087ed6cd6)"><path style=" stroke:none;fill-rule:nonzero;fill:#ffffff;fill-opacity:1;" d="M 0.875 0 L 5183.125 0 L 5183.125 1483 L 0.875 1483 Z M 0.875 0 "/><path style=" stroke:none;fill-rule:nonzero;fill:#ffffff;fill-opacity:1;" d="M 0.875 0 L 5183.125 0 L 5183.125 1483 L 0.875 1483 Z M 0.875 0 "/></g><g clip-rule="nonzero" clip-path="url(#9908434de3)"><path style=" stroke:none;fill-rule:evenodd;fill:#000000;fill-opacity:1;" d="M 4502.726562 360.859375 C 4500.226562 360.859375 4497.722656 359.75 4496.335938 357.523438 L 4473.820312 318.332031 C 4469.09375 309.996094 4481.601562 302.769531 4486.328125 311.105469 L 4508.84375 350.296875 C 4511.621094 355.023438 4508.285156 360.859375 4502.726562 360.859375 Z M 4647.261719 601.289062 C 4643.09375 601.289062 4596.953125 581.554688 4595.007812 581.554688 L 4545.53125 600.734375 C 4540.527344 602.679688 4535.527344 599.066406 4535.804688 593.785156 L 4538.859375 540.695312 L 4504.949219 499.558594 C 4501.894531 495.390625 4503.839844 489.273438 4508.84375 487.882812 L 4560.261719 474.542969 L 4589.171875 429.515625 C 4591.949219 425.34375 4598.34375 425.34375 4601.121094 429.515625 L 4630.027344 474.542969 L 4681.449219 487.882812 C 4686.453125 489.273438 4688.398438 495.390625 4685.0625 499.558594 L 4651.429688 540.695312 L 4654.488281 593.785156 C 4654.765625 597.953125 4651.429688 601.289062 4647.261719 601.289062 Z M 4595.007812 566.542969 C 4598.066406 566.542969 4633.644531 580.996094 4639.480469 583.222656 L 4636.976562 538.75 C 4636.699219 536.804688 4637.257812 535.136719 4638.367188 533.746094 L 4666.996094 499.003906 L 4623.636719 487.605469 C 4621.691406 487.050781 4620.300781 486.214844 4619.1875 484.546875 L 4595.007812 446.746094 L 4570.824219 484.546875 C 4569.992188 486.214844 4568.324219 487.050781 4566.65625 487.605469 L 4523.296875 499.003906 L 4551.648438 533.746094 C 4552.757812 535.136719 4553.316406 536.804688 4553.316406 538.75 L 4550.8125 583.222656 C 4556.648438 580.996094 4591.949219 566.542969 4595.007812 566.542969 Z M 4595.007812 667.996094 C 4509.953125 667.996094 4440.742188 598.785156 4440.742188 513.734375 C 4440.742188 428.679688 4509.953125 359.46875 4595.007812 359.46875 C 4680.0625 359.46875 4749.269531 428.679688 4749.269531 513.734375 C 4749.269531 598.785156 4680.0625 667.996094 4595.007812 667.996094 Z M 4595.007812 373.921875 C 4518.015625 373.921875 4455.199219 436.742188 4455.199219 513.734375 C 4455.199219 591.003906 4518.015625 653.820312 4595.007812 653.820312 C 4672.277344 653.820312 4735.09375 591.003906 4735.09375 513.734375 C 4735.09375 436.742188 4672.277344 373.921875 4595.007812 373.921875 Z M 4595.007812 336.121094 C 4591.117188 336.121094 4587.78125 333.066406 4587.78125 328.894531 L 4587.78125 283.867188 C 4587.78125 274.417969 4602.234375 274.417969 4602.234375 283.867188 L 4602.234375 328.894531 C 4602.234375 333.066406 4599.175781 336.121094 4595.007812 336.121094 Z M 4687.566406 360.859375 C 4682.007812 360.859375 4678.394531 355.023438 4681.171875 350.296875 L 4703.964844 311.105469 C 4708.691406 302.769531 4721.199219 309.996094 4716.195312 318.332031 L 4693.679688 357.246094 C 4692.289062 359.75 4690.066406 360.859375 4687.566406 360.859375 Z M 4755.109375 428.679688 C 4747.878906 428.679688 4745.101562 418.953125 4751.496094 415.0625 L 4790.683594 392.546875 C 4799.023438 387.820312 4805.972656 400.328125 4797.914062 405.054688 L 4758.722656 427.570312 C 4757.609375 428.402344 4756.496094 428.679688 4755.109375 428.679688 Z M 4825.152344 520.960938 L 4779.84375 520.960938 C 4770.394531 520.960938 4770.394531 506.507812 4779.84375 506.507812 L 4825.152344 506.507812 C 4834.601562 506.507812 4834.601562 520.960938 4825.152344 520.960938 Z M 4794.300781 636.03125 C 4792.910156 636.03125 4791.796875 635.753906 4790.683594 634.921875 L 4751.496094 612.40625 C 4748.160156 610.460938 4747.046875 606.011719 4748.992188 602.679688 C 4750.9375 599.066406 4755.386719 597.953125 4758.722656 599.898438 L 4797.914062 622.691406 C 4804.304688 626.304688 4801.527344 636.03125 4794.300781 636.03125 Z M 4710.078125 720.25 C 4707.578125 720.25 4705.078125 718.863281 4703.964844 716.636719 L 4681.171875 677.449219 C 4676.445312 669.386719 4688.953125 662.160156 4693.679688 670.21875 L 4716.195312 709.410156 C 4719.25 714.136719 4715.636719 720.25 4710.078125 720.25 Z M 4595.007812 751.105469 C 4591.117188 751.105469 4587.78125 747.769531 4587.78125 743.878906 L 4587.78125 698.570312 C 4587.78125 689.121094 4602.234375 689.121094 4602.234375 698.570312 L 4602.234375 743.878906 C 4602.234375 747.769531 4599.175781 751.105469 4595.007812 751.105469 Z M 4480.214844 720.25 C 4474.652344 720.25 4471.039062 714.136719 4473.820312 709.410156 L 4496.335938 670.21875 C 4501.335938 662.160156 4513.566406 669.386719 4508.84375 677.449219 L 4486.328125 716.636719 C 4484.9375 718.863281 4482.714844 720.25 4480.214844 720.25 Z M 4395.992188 636.03125 C 4388.488281 636.03125 4385.988281 626.304688 4392.378906 622.691406 L 4431.570312 599.898438 C 4439.632812 595.171875 4446.859375 607.679688 4438.796875 612.40625 L 4399.605469 634.921875 C 4398.496094 635.753906 4397.105469 636.03125 4395.992188 636.03125 Z M 4410.167969 520.960938 L 4365.140625 520.960938 C 4355.691406 520.960938 4355.691406 506.507812 4365.140625 506.507812 L 4410.167969 506.507812 C 4419.898438 506.507812 4419.898438 520.960938 4410.167969 520.960938 Z M 4435.183594 428.679688 C 4433.796875 428.679688 4432.683594 428.402344 4431.570312 427.570312 L 4392.378906 405.054688 C 4384.042969 400.328125 4391.269531 387.820312 4399.605469 392.546875 L 4438.796875 415.0625 C 4444.914062 418.953125 4442.410156 428.679688 4435.183594 428.679688 Z M 4435.183594 428.679688 "/></g><path style=" stroke:none;fill-rule:nonzero;fill:#000000;fill-opacity:1;" d="M 2500.304688 311.980469 L 2470.507812 311.773438 C 2466.472656 311.773438 2463.011719 315.167969 2463.011719 319.210938 L 2463.011719 383.261719 C 2463.011719 387.351562 2466.3125 390.671875 2470.40625 390.703125 L 2500.207031 390.914062 C 2500.25 390.914062 2500.292969 390.914062 2500.335938 390.914062 C 2505.832031 390.914062 2511.082031 388.703125 2515.128906 384.6875 C 2519.597656 380.246094 2522.160156 373.972656 2522.160156 367.453125 C 2522.160156 361.253906 2519.84375 355.632812 2516.128906 351.425781 C 2519.925781 347.089844 2522.160156 341.398438 2522.160156 335.441406 C 2522.160156 322.582031 2512.351562 312.0625 2500.304688 311.980469 Z M 2507.273438 335.441406 C 2507.273438 338.003906 2506.3125 340.429688 2504.636719 342.09375 C 2503.753906 342.972656 2502.296875 344.316406 2500.300781 343.996094 L 2477.898438 343.851562 L 2477.898438 326.699219 L 2500.207031 326.859375 C 2504.101562 326.882812 2507.273438 330.730469 2507.273438 335.441406 Z M 2504.632812 374.132812 C 2503.757812 375.003906 2502.304688 376.035156 2500.339844 376.035156 C 2500.328125 376.035156 2500.320312 376.035156 2500.304688 376.035156 L 2477.898438 375.875 L 2477.898438 358.738281 L 2500.207031 358.875 C 2504.035156 358.898438 2507.269531 362.828125 2507.269531 367.457031 C 2507.273438 370.035156 2506.308594 372.46875 2504.632812 374.132812 Z M 2504.632812 374.132812 "/><path style=" stroke:none;fill-rule:nonzero;fill:#000000;fill-opacity:1;" d="M 2586.871094 326.648438 C 2590.980469 326.648438 2594.3125 323.324219 2594.3125 319.210938 C 2594.3125 315.097656 2590.980469 311.773438 2586.871094 311.773438 L 2550.078125 311.773438 C 2545.96875 311.773438 2542.632812 315.097656 2542.632812 319.210938 L 2542.632812 383.261719 C 2542.632812 387.375 2545.96875 390.703125 2550.078125 390.703125 L 2586.871094 390.703125 C 2590.980469 390.703125 2594.3125 387.375 2594.3125 383.261719 C 2594.3125 379.152344 2590.980469 375.824219 2586.871094 375.824219 L 2557.523438 375.824219 L 2557.523438 358.6875 L 2586.871094 358.6875 C 2590.980469 358.6875 2594.3125 355.359375 2594.3125 351.25 C 2594.3125 347.136719 2590.980469 343.808594 2586.871094 343.808594 L 2557.523438 343.808594 L 2557.523438 326.648438 Z M 2586.871094 326.648438 "/><path style=" stroke:none;fill-rule:nonzero;fill:#000000;fill-opacity:1;" d="M 2639.449219 343.84375 C 2628.933594 341.949219 2628.496094 337.664062 2628.925781 333.433594 C 2629.78125 327.992188 2635.089844 326.484375 2638.089844 326.453125 C 2640.035156 326.511719 2645.957031 326.890625 2647.160156 333.601562 C 2647.886719 337.640625 2651.75 340.328125 2655.804688 339.609375 C 2659.847656 338.882812 2662.542969 335.019531 2661.816406 330.972656 C 2659.699219 319.230469 2650.265625 311.292969 2637.921875 311.574219 C 2625.75 311.714844 2616.003906 319.753906 2614.171875 331.507812 C 2613.289062 339.898438 2615.066406 354.558594 2637.089844 358.535156 C 2648.941406 360.191406 2648.941406 365.398438 2648.941406 368.488281 C 2648.933594 370.613281 2648.160156 372.25 2646.574219 373.484375 C 2644.636719 374.996094 2641.667969 375.824219 2638.164062 375.824219 C 2638.128906 375.816406 2638.089844 375.816406 2638.050781 375.824219 C 2631.570312 375.824219 2627.742188 372.425781 2627.28125 366.242188 C 2626.976562 362.144531 2623.4375 359.007812 2619.300781 359.375 C 2615.207031 359.683594 2612.128906 363.25 2612.4375 367.347656 C 2613.480469 381.324219 2623.769531 390.703125 2638.011719 390.703125 C 2638.085938 390.703125 2638.148438 390.703125 2638.207031 390.703125 C 2645.070312 390.703125 2651.128906 388.804688 2655.734375 385.210938 C 2660.933594 381.15625 2663.808594 375.226562 2663.828125 368.507812 C 2663.828125 360.570312 2660.621094 346.800781 2639.449219 343.84375 Z M 2639.449219 343.84375 "/><g clip-rule="nonzero" clip-path="url(#9d819fa242)"><path style=" stroke:none;fill-rule:nonzero;fill:#000000;fill-opacity:1;" d="M 2800.402344 410.839844 L 2778.339844 410.839844 L 2778.339844 292.453125 C 2778.339844 282.511719 2770.230469 274.417969 2760.261719 274.417969 L 2424.0625 274.417969 C 2414.089844 274.417969 2405.980469 282.511719 2405.980469 292.453125 L 2405.980469 410.839844 L 2383.917969 410.839844 C 2373.949219 410.839844 2365.839844 418.933594 2365.839844 428.878906 L 2365.839844 544.09375 C 2365.839844 554.046875 2373.949219 562.140625 2383.917969 562.140625 L 2438.890625 562.140625 L 2438.890625 743.074219 C 2438.890625 745.898438 2440.492188 748.476562 2443.019531 749.734375 C 2445.542969 750.992188 2448.570312 750.707031 2450.824219 749.007812 L 2592.148438 642.234375 L 2733.5 749.007812 C 2734.820312 750.003906 2736.394531 750.511719 2737.988281 750.511719 C 2739.121094 750.511719 2740.257812 750.257812 2741.304688 749.734375 C 2743.832031 748.476562 2745.433594 745.898438 2745.433594 743.074219 L 2745.433594 562.140625 L 2800.40625 562.140625 C 2810.375 562.140625 2818.484375 554.046875 2818.484375 544.09375 L 2818.484375 428.878906 C 2818.484375 418.933594 2810.375 410.839844 2800.402344 410.839844 Z M 2420.871094 292.453125 C 2420.871094 290.710938 2422.300781 289.296875 2424.0625 289.296875 L 2760.261719 289.296875 C 2762.019531 289.296875 2763.453125 290.710938 2763.453125 292.453125 L 2763.453125 410.839844 L 2420.871094 410.839844 Z M 2453.78125 562.140625 L 2498.824219 562.140625 L 2498.824219 694.089844 L 2453.78125 728.125 Z M 2587.65625 626.96875 L 2513.710938 682.839844 L 2513.710938 562.140625 L 2670.609375 562.140625 L 2670.609375 682.851562 L 2596.636719 626.972656 C 2593.980469 624.964844 2590.3125 624.964844 2587.65625 626.96875 Z M 2730.542969 728.125 L 2685.5 694.097656 L 2685.5 562.140625 L 2730.542969 562.140625 Z M 2803.59375 544.09375 C 2803.59375 545.839844 2802.164062 547.261719 2800.402344 547.261719 L 2383.917969 547.261719 C 2382.160156 547.261719 2380.726562 545.839844 2380.726562 544.09375 L 2380.726562 428.878906 C 2380.726562 427.164062 2382.1875 425.71875 2383.917969 425.71875 L 2800.402344 425.71875 C 2802.132812 425.71875 2803.59375 427.164062 2803.59375 428.878906 Z M 2803.59375 544.09375 "/></g><path style=" stroke:none;fill-rule:nonzero;fill:#000000;fill-opacity:1;" d="M 2759.023438 462.039062 C 2763.132812 462.039062 2766.464844 458.714844 2766.464844 454.601562 C 2766.464844 450.492188 2763.132812 447.164062 2759.023438 447.164062 L 2720.726562 447.164062 C 2716.617188 447.164062 2713.28125 450.492188 2713.28125 454.601562 L 2713.28125 518.371094 C 2713.28125 522.484375 2716.617188 525.808594 2720.726562 525.808594 L 2759.023438 525.808594 C 2763.132812 525.808594 2766.464844 522.484375 2766.464844 518.371094 C 2766.464844 514.257812 2763.132812 510.933594 2759.023438 510.933594 L 2728.171875 510.933594 L 2728.171875 493.925781 L 2759.023438 493.925781 C 2763.132812 493.925781 2766.464844 490.597656 2766.464844 486.488281 C 2766.464844 482.375 2763.132812 479.046875 2759.023438 479.046875 L 2728.171875 479.046875 L 2728.171875 462.042969 L 2759.023438 462.042969 Z M 2759.023438 462.039062 "/><path style=" stroke:none;fill-rule:nonzero;fill:#000000;fill-opacity:1;" d="M 2477.609375 447.714844 C 2473.78125 446.160156 2469.457031 447.976562 2467.894531 451.785156 L 2448.636719 498.75 L 2429.390625 451.785156 C 2427.835938 447.992188 2423.507812 446.160156 2419.679688 447.714844 C 2415.875 449.277344 2414.054688 453.621094 2415.613281 457.421875 L 2441.746094 521.191406 C 2444.289062 527.125 2453.015625 527.304688 2455.519531 521.191406 L 2481.671875 457.421875 C 2483.230469 453.621094 2481.410156 449.277344 2477.609375 447.714844 Z M 2477.609375 447.714844 "/><path style=" stroke:none;fill-rule:nonzero;fill:#000000;fill-opacity:1;" d="M 2548.605469 499.929688 C 2548.597656 499.910156 2548.59375 499.894531 2548.585938 499.875 L 2529.609375 451.871094 C 2527.253906 445.808594 2518.121094 445.808594 2515.761719 451.871094 L 2496.792969 499.863281 C 2496.78125 499.890625 2496.773438 499.917969 2496.761719 499.945312 L 2490.558594 515.640625 C 2489.050781 519.460938 2490.925781 523.78125 2494.75 525.285156 C 2495.648438 525.644531 2496.570312 525.808594 2497.480469 525.808594 C 2500.445312 525.808594 2503.25 524.03125 2504.40625 521.101562 L 2508.703125 510.234375 L 2536.671875 510.234375 L 2540.964844 521.101562 C 2542.121094 524.03125 2544.921875 525.808594 2547.894531 525.808594 C 2548.800781 525.808594 2549.726562 525.640625 2550.625 525.285156 C 2554.449219 523.78125 2556.324219 519.460938 2554.8125 515.640625 Z M 2514.582031 495.355469 L 2522.6875 474.851562 L 2530.789062 495.355469 Z M 2514.582031 495.355469 "/><path style=" stroke:none;fill-rule:nonzero;fill:#000000;fill-opacity:1;" d="M 2609.277344 510.933594 L 2586.84375 510.933594 L 2586.84375 454.601562 C 2586.84375 450.492188 2583.511719 447.164062 2579.398438 447.164062 C 2575.289062 447.164062 2571.957031 450.492188 2571.957031 454.601562 L 2571.957031 518.371094 C 2571.957031 522.484375 2575.289062 525.808594 2579.398438 525.808594 L 2609.277344 525.808594 C 2613.386719 525.808594 2616.722656 522.484375 2616.722656 518.371094 C 2616.722656 514.257812 2613.390625 510.933594 2609.277344 510.933594 Z M 2609.277344 510.933594 "/><path style=" stroke:none;fill-rule:nonzero;fill:#000000;fill-opacity:1;" d="M 2685.445312 447.164062 C 2681.332031 447.164062 2678 450.492188 2678 454.601562 L 2678 496.691406 C 2678 504.574219 2671.132812 510.984375 2662.695312 510.984375 C 2654.238281 510.984375 2647.363281 504.574219 2647.363281 496.691406 L 2647.363281 454.601562 C 2647.363281 450.492188 2644.027344 447.164062 2639.917969 447.164062 C 2635.808594 447.164062 2632.472656 450.492188 2632.472656 454.601562 L 2632.472656 496.691406 C 2632.472656 512.777344 2646.03125 525.859375 2662.695312 525.859375 C 2679.339844 525.859375 2692.886719 512.777344 2692.886719 496.691406 L 2692.886719 454.601562 C 2692.886719 450.492188 2689.554688 447.164062 2685.445312 447.164062 Z M 2685.445312 447.164062 "/><path style=" stroke:none;fill-rule:nonzero;fill:#000000;fill-opacity:1;" d="M 2726.851562 311.5625 L 2683.464844 311.5625 C 2679.351562 311.5625 2676.019531 314.890625 2676.019531 319 C 2676.019531 323.113281 2679.351562 326.4375 2683.464844 326.4375 L 2697.710938 326.4375 L 2697.710938 383.261719 C 2697.710938 387.375 2701.046875 390.703125 2705.15625 390.703125 C 2709.265625 390.703125 2712.601562 387.375 2712.601562 383.261719 L 2712.601562 326.4375 L 2726.851562 326.4375 C 2730.964844 326.4375 2734.296875 323.113281 2734.296875 319 C 2734.296875 314.890625 2730.960938 311.5625 2726.851562 311.5625 Z M 2726.851562 311.5625 "/><g clip-rule="nonzero" clip-path="url(#c24819cef3)"><path style=" stroke:none;fill-rule:nonzero;fill:#000000;fill-opacity:1;" d="M 1336.625 608.707031 L 1323.546875 598.304688 L 1409.765625 489.84375 C 1417.445312 480.003906 1427.765625 472.511719 1439.550781 468.222656 L 1509.65625 442.714844 C 1522.335938 438.09375 1536.832031 439.496094 1548.414062 446.4375 L 1570.433594 459.652344 L 1561.824219 474 L 1539.804688 460.785156 C 1532.507812 456.410156 1523.378906 455.53125 1515.375 458.4375 L 1445.273438 483.945312 C 1436.429688 487.164062 1428.6875 492.78125 1422.898438 500.203125 L 1336.625 608.71875 Z M 1336.625 608.707031 "/></g><g clip-rule="nonzero" clip-path="url(#ece6687666)"><path style=" stroke:none;fill-rule:nonzero;fill:#000000;fill-opacity:1;" d="M 1641.644531 506.910156 C 1633.632812 506.910156 1625.910156 503.777344 1620.46875 498.332031 C 1609.632812 487.484375 1606.203125 467.699219 1618.355469 455.546875 C 1626.433594 446.863281 1640.425781 429.039062 1642.730469 419.078125 C 1644.148438 412.96875 1644.835938 404.46875 1645.625 394.640625 C 1647.757812 368.175781 1650.410156 335.238281 1669.5 311.40625 C 1670.367188 310.3125 1671.410156 309.15625 1672.488281 307.945312 C 1674.167969 306.066406 1677.308594 302.578125 1677.507812 301.132812 L 1677.507812 281.054688 L 1694.230469 281.054688 L 1694.230469 301.210938 C 1694.230469 308.761719 1689.074219 314.503906 1684.933594 319.117188 C 1684.066406 320.082031 1683.246094 320.996094 1682.542969 321.863281 C 1666.671875 341.691406 1664.246094 371.792969 1662.289062 395.980469 C 1661.445312 406.480469 1660.714844 415.546875 1659.011719 422.863281 C 1654.941406 440.417969 1632.878906 464.472656 1630.371094 467.160156 C 1625.378906 472.164062 1627.371094 481.585938 1632.285156 486.511719 C 1636.867188 491.09375 1645.964844 491.226562 1650.695312 486.78125 L 1710.007812 413.117188 L 1723.027344 423.609375 L 1662.800781 498.34375 C 1657.367188 503.789062 1649.644531 506.917969 1641.632812 506.917969 Z M 1641.644531 506.910156 "/></g><path style=" stroke:none;fill-rule:nonzero;fill:#000000;fill-opacity:1;" d="M 1361.628906 726.609375 L 1348.984375 715.664062 L 1399.574219 657.183594 C 1404.136719 651.546875 1410.746094 647.464844 1418.019531 645.890625 C 1442.839844 640.523438 1463.691406 618.6875 1480.460938 601.140625 C 1487.730469 593.535156 1494.007812 586.957031 1499.941406 582.347656 C 1514.097656 571.34375 1545.648438 566.035156 1549.199219 565.460938 C 1559.660156 564.355469 1560.433594 554.082031 1560.433594 550.949219 C 1560.433594 547.460938 1558.582031 545.058594 1557.023438 543.660156 C 1554.382812 541.277344 1550.703125 540.058594 1547.074219 540.433594 L 1447.769531 559.039062 L 1444.699219 542.589844 L 1544.675781 523.882812 C 1553.605469 522.945312 1562.007812 525.632812 1568.21875 531.234375 C 1573.976562 536.429688 1577.148438 543.433594 1577.148438 550.949219 C 1577.148438 567.941406 1566.792969 580.433594 1551.378906 582.042969 C 1543.363281 583.339844 1519.34375 588.445312 1510.195312 595.5625 C 1505.246094 599.398438 1499.367188 605.558594 1492.558594 612.691406 C 1474.214844 631.894531 1451.386719 655.78125 1421.546875 662.238281 C 1417.992188 663.003906 1414.738281 665.023438 1412.382812 667.917969 L 1361.621094 726.609375 Z M 1361.628906 726.609375 "/><g clip-rule="nonzero" clip-path="url(#22cbf9edd3)"><path style=" stroke:none;fill-rule:nonzero;fill:#000000;fill-opacity:1;" d="M 1755.132812 530.332031 L 1740.566406 522.128906 L 1773.441406 463.691406 C 1776.648438 456.730469 1778.625 447.613281 1779.371094 435.574219 L 1760.109375 283.238281 L 1776.703125 281.132812 L 1796.164062 435 L 1796.113281 435.765625 C 1795.285156 450.363281 1792.808594 461.664062 1788.304688 471.320312 L 1755.132812 530.324219 Z M 1755.132812 530.332031 "/></g><path style=" stroke:none;fill-rule:nonzero;fill:#000000;fill-opacity:1;" d="M 1471.527344 553.089844 L 1459.589844 541.371094 C 1515.039062 484.839844 1589.976562 436.066406 1646.0625 420 L 1650.671875 436.078125 C 1597.117188 451.414062 1525.132812 498.4375 1471.527344 553.082031 Z M 1471.527344 553.089844 "/><path style=" stroke:none;fill-rule:nonzero;fill:#000000;fill-opacity:1;" d="M 1515.863281 672.050781 L 1504.664062 659.636719 C 1593.949219 579.023438 1677.804688 530.46875 1737.585938 524.300781 C 1728.617188 507.199219 1710.433594 482.421875 1685.882812 454.042969 L 1698.527344 443.097656 C 1717.027344 464.472656 1749.351562 504.101562 1758.046875 529.269531 L 1761.875 540.371094 L 1750.140625 540.371094 C 1694.789062 540.371094 1607.203125 589.59375 1515.863281 672.0625 Z M 1515.863281 672.050781 "/><path style=" stroke:none;fill-rule:nonzero;fill:#000000;fill-opacity:1;" d="M 1514.28125 673.183594 L 1506.246094 658.515625 C 1576.851562 619.828125 1649.3125 600.320312 1727.488281 599 C 1726.503906 577.050781 1721.574219 557.039062 1712.808594 539.429688 L 1727.765625 531.964844 C 1738.8125 554.117188 1744.402344 579.460938 1744.402344 607.300781 L 1744.402344 615.667969 L 1736.035156 615.667969 C 1657.453125 615.667969 1584.921875 634.484375 1514.273438 673.191406 Z M 1514.28125 673.183594 "/><path style=" stroke:none;fill-rule:nonzero;fill:#000000;fill-opacity:1;" d="M 1678.910156 693.550781 L 1672.871094 689.546875 C 1635.9375 664.988281 1578.792969 659.472656 1512.039062 674.027344 L 1505.679688 675.410156 L 1502.777344 669.589844 C 1496.851562 657.730469 1483.878906 641.339844 1468.085938 625.742188 L 1479.824219 613.832031 C 1485.597656 619.53125 1503.835938 638.164062 1514.601562 656.382812 C 1579.585938 643.273438 1636.242188 648.648438 1675.683594 671.589844 C 1684.394531 660.394531 1703.058594 633.511719 1704.164062 607.492188 L 1720.871094 608.195312 C 1719.191406 648.101562 1685.167969 686.539062 1683.71875 688.15625 L 1678.890625 693.550781 Z M 1678.910156 693.550781 "/><path style=" stroke:none;fill-rule:nonzero;fill:#000000;fill-opacity:1;" d="M 1576.53125 509.46875 L 1567.433594 495.4375 C 1583.507812 485.003906 1599.671875 475.878906 1615.492188 468.320312 L 1622.691406 483.414062 C 1607.535156 490.660156 1592.003906 499.421875 1576.53125 509.460938 Z M 1576.53125 509.46875 "/><path style=" stroke:none;fill-rule:nonzero;fill:#000000;fill-opacity:1;" d="M 1608.664062 560.597656 L 1599.898438 546.347656 C 1624.875 530.964844 1648.523438 518.960938 1670.253906 510.625 C 1671.714844 505.582031 1674.65625 500.910156 1679.019531 496.652344 C 1674.761719 491.347656 1670.132812 485.8125 1665.039062 479.925781 L 1677.691406 468.980469 C 1685.066406 477.515625 1691.484375 485.316406 1697.300781 492.84375 L 1702.773438 499.898438 L 1695.371094 504.902344 C 1689.34375 508.972656 1686.25 513.089844 1685.898438 517.480469 L 1685.472656 522.839844 L 1680.429688 524.675781 C 1658.539062 532.652344 1634.398438 544.746094 1608.65625 560.597656 Z M 1608.664062 560.597656 "/><path style=" stroke:none;fill-rule:nonzero;fill:#000000;fill-opacity:1;" d="M 1568.800781 306.144531 L 1552.078125 306.144531 L 1552.078125 322.875 L 1568.800781 322.875 Z M 1568.800781 306.144531 "/><path style=" stroke:none;fill-rule:nonzero;fill:#000000;fill-opacity:1;" d="M 1435.003906 356.335938 L 1418.277344 356.335938 L 1418.277344 373.0625 L 1435.003906 373.0625 Z M 1435.003906 356.335938 "/><path style=" stroke:none;fill-rule:nonzero;fill:#000000;fill-opacity:1;" d="M 1476.816406 331.234375 L 1460.09375 331.234375 L 1460.09375 347.964844 L 1476.816406 347.964844 Z M 1476.816406 331.234375 "/><path style=" stroke:none;fill-rule:nonzero;fill:#000000;fill-opacity:1;" d="M 1518.621094 314.503906 L 1501.898438 314.503906 L 1501.898438 331.234375 L 1518.621094 331.234375 Z M 1518.621094 314.503906 "/><path style=" stroke:none;fill-rule:nonzero;fill:#000000;fill-opacity:1;" d="M 1401.554688 389.792969 L 1384.832031 389.792969 L 1384.832031 406.523438 L 1401.554688 406.523438 Z M 1401.554688 389.792969 "/><path style=" stroke:none;fill-rule:nonzero;fill:#000000;fill-opacity:1;" d="M 1376.464844 431.621094 L 1359.742188 431.621094 L 1359.742188 448.351562 L 1376.464844 448.351562 Z M 1376.464844 431.621094 "/><path style=" stroke:none;fill-rule:nonzero;fill:#000000;fill-opacity:1;" d="M 1359.742188 473.441406 L 1343.019531 473.441406 L 1343.019531 490.179688 L 1359.742188 490.179688 Z M 1359.742188 473.441406 "/><g clip-rule="nonzero" clip-path="url(#cad346d58f)"><path style=" stroke:none;fill-rule:nonzero;fill:#000000;fill-opacity:1;" d="M 1568.800781 741.136719 L 1552.078125 741.136719 L 1552.078125 757.867188 L 1568.800781 757.867188 Z M 1568.800781 741.136719 "/></g><path style=" stroke:none;fill-rule:nonzero;fill:#000000;fill-opacity:1;" d="M 1618.972656 732.769531 L 1602.246094 732.769531 L 1602.246094 749.5 L 1618.972656 749.5 Z M 1618.972656 732.769531 "/><path style=" stroke:none;fill-rule:nonzero;fill:#000000;fill-opacity:1;" d="M 1435.003906 690.9375 L 1418.277344 690.9375 L 1418.277344 707.679688 L 1435.003906 707.679688 Z M 1435.003906 690.9375 "/><path style=" stroke:none;fill-rule:nonzero;fill:#000000;fill-opacity:1;" d="M 1476.816406 716.039062 L 1460.09375 716.039062 L 1460.09375 732.769531 L 1476.816406 732.769531 Z M 1476.816406 716.039062 "/><path style=" stroke:none;fill-rule:nonzero;fill:#000000;fill-opacity:1;" d="M 1518.621094 732.769531 L 1501.898438 732.769531 L 1501.898438 749.5 L 1518.621094 749.5 Z M 1518.621094 732.769531 "/><path style=" stroke:none;fill-rule:nonzero;fill:#000000;fill-opacity:1;" d="M 3512.914062 644.878906 C 3494.199219 644.878906 3476.058594 641.203125 3458.964844 633.972656 C 3442.445312 627 3427.632812 616.988281 3414.902344 604.261719 C 3402.175781 591.53125 3392.195312 576.71875 3385.195312 560.203125 C 3377.960938 543.105469 3374.289062 524.9375 3374.289062 506.25 C 3374.289062 487.558594 3377.960938 469.394531 3385.195312 452.296875 C 3392.164062 435.777344 3402.175781 420.964844 3414.902344 408.238281 C 3427.632812 395.507812 3442.445312 385.527344 3458.964844 378.527344 C 3476.058594 371.292969 3494.226562 367.621094 3512.914062 367.621094 C 3531.605469 367.621094 3549.773438 371.292969 3566.867188 378.527344 C 3583.386719 385.5 3598.199219 395.507812 3610.929688 408.238281 C 3623.65625 420.964844 3633.636719 435.777344 3640.636719 452.296875 C 3647.871094 469.394531 3651.542969 487.558594 3651.542969 506.25 C 3651.542969 524.9375 3647.871094 543.105469 3640.636719 560.203125 C 3633.667969 576.71875 3623.65625 591.53125 3610.929688 604.261719 C 3598.199219 616.988281 3583.386719 626.96875 3566.867188 633.972656 C 3549.773438 641.203125 3531.632812 644.878906 3512.914062 644.878906 Z M 3512.914062 391.226562 C 3449.503906 391.226562 3397.894531 442.835938 3397.894531 506.25 C 3397.894531 569.660156 3449.503906 621.269531 3512.914062 621.269531 C 3576.328125 621.269531 3627.9375 569.660156 3627.9375 506.25 C 3627.9375 442.835938 3576.328125 391.226562 3512.914062 391.226562 Z M 3512.914062 391.226562 "/><path style=" stroke:none;fill-rule:nonzero;fill:#000000;fill-opacity:1;" d="M 3488.355469 574.230469 C 3485.347656 574.230469 3482.308594 573.074219 3479.996094 570.761719 L 3443.253906 534.019531 C 3438.65625 529.421875 3438.65625 521.929688 3443.253906 517.328125 C 3447.855469 512.730469 3455.347656 512.730469 3459.945312 517.328125 L 3488.355469 545.738281 L 3571.988281 462.101562 C 3576.589844 457.503906 3584.082031 457.503906 3588.679688 462.101562 C 3593.28125 466.703125 3593.28125 474.195312 3588.679688 478.792969 L 3496.6875 570.761719 C 3494.402344 573.074219 3491.363281 574.230469 3488.355469 574.230469 Z M 3488.355469 574.230469 "/><g clip-rule="nonzero" clip-path="url(#b2669060e9)"><path style=" stroke:none;fill-rule:nonzero;fill:#000000;fill-opacity:1;" d="M 3540.226562 744.625 L 3485.605469 744.625 C 3480.601562 744.625 3476.148438 741.472656 3474.46875 736.785156 L 3456.242188 685.582031 L 3426.15625 673.113281 L 3377.066406 696.457031 C 3372.550781 698.597656 3367.171875 697.671875 3363.640625 694.144531 L 3324.992188 655.496094 C 3321.460938 651.964844 3320.539062 646.582031 3322.679688 642.070312 L 3346.023438 592.976562 L 3333.554688 562.890625 L 3282.351562 544.667969 C 3277.636719 542.988281 3274.511719 538.535156 3274.511719 533.527344 L 3274.511719 478.941406 C 3274.511719 473.933594 3277.664062 469.480469 3282.351562 467.800781 L 3333.554688 449.578125 L 3346.023438 419.488281 L 3322.679688 370.398438 C 3320.539062 365.882812 3321.460938 360.503906 3324.992188 356.972656 L 3363.640625 318.324219 C 3367.171875 314.796875 3372.550781 313.871094 3377.066406 316.011719 L 3426.15625 339.355469 L 3456.242188 326.886719 L 3474.46875 275.683594 C 3476.148438 270.96875 3480.601562 267.84375 3485.605469 267.84375 L 3540.253906 267.84375 C 3545.257812 267.84375 3549.714844 270.996094 3551.390625 275.683594 L 3569.617188 326.886719 L 3599.703125 339.355469 L 3648.796875 316.011719 C 3653.308594 313.871094 3658.691406 314.796875 3662.21875 318.324219 L 3700.867188 356.972656 C 3704.398438 360.503906 3705.324219 365.882812 3703.183594 370.398438 L 3679.835938 419.488281 L 3692.304688 449.578125 L 3743.511719 467.800781 C 3748.226562 469.480469 3751.351562 473.933594 3751.351562 478.941406 L 3751.351562 533.585938 C 3751.351562 538.589844 3748.195312 543.046875 3743.511719 544.722656 L 3692.304688 562.949219 L 3679.835938 593.035156 L 3703.183594 642.128906 C 3705.324219 646.640625 3704.398438 652.023438 3700.867188 655.550781 L 3662.21875 694.203125 C 3658.691406 697.730469 3653.308594 698.65625 3648.796875 696.515625 L 3599.703125 673.167969 L 3569.617188 685.636719 L 3551.390625 736.84375 C 3549.683594 741.472656 3545.230469 744.625 3540.226562 744.625 Z M 3493.9375 721.019531 L 3531.921875 721.019531 L 3549.105469 672.707031 C 3550.234375 669.554688 3552.636719 667.035156 3555.703125 665.765625 L 3595.480469 649.304688 C 3598.574219 648.03125 3602.046875 648.117188 3605.054688 649.535156 L 3651.371094 671.550781 L 3678.21875 644.703125 L 3656.203125 598.386719 C 3654.753906 595.378906 3654.667969 591.878906 3655.96875 588.8125 L 3672.429688 549.035156 C 3673.703125 545.941406 3676.25 543.539062 3679.375 542.4375 L 3727.6875 525.253906 L 3727.6875 487.269531 L 3679.375 470.085938 C 3676.222656 468.957031 3673.703125 466.558594 3672.429688 463.492188 L 3655.96875 423.714844 C 3654.699219 420.617188 3654.785156 417.148438 3656.203125 414.136719 L 3678.21875 367.824219 L 3651.371094 340.976562 L 3605.054688 362.992188 C 3602.046875 364.4375 3598.546875 364.523438 3595.480469 363.222656 L 3555.703125 346.761719 C 3552.605469 345.488281 3550.207031 342.972656 3549.105469 339.820312 L 3531.921875 291.507812 L 3493.9375 291.507812 L 3476.753906 339.820312 C 3475.625 342.972656 3473.226562 345.488281 3470.160156 346.761719 L 3430.382812 363.222656 C 3427.285156 364.496094 3423.8125 364.410156 3420.804688 362.992188 L 3374.488281 340.976562 L 3347.644531 367.824219 L 3369.660156 414.136719 C 3371.105469 417.148438 3371.191406 420.648438 3369.890625 423.714844 L 3353.429688 463.492188 C 3352.15625 466.585938 3349.640625 468.988281 3346.488281 470.085938 L 3298.175781 487.269531 L 3298.175781 525.253906 L 3346.488281 542.4375 C 3349.640625 543.566406 3352.15625 545.96875 3353.429688 549.035156 L 3369.890625 588.8125 C 3371.164062 591.90625 3371.078125 595.378906 3369.660156 598.386719 L 3347.644531 644.703125 L 3374.488281 671.550781 L 3420.804688 649.535156 C 3423.8125 648.089844 3427.316406 648 3430.382812 649.304688 L 3470.160156 665.765625 C 3473.253906 667.035156 3475.65625 669.582031 3476.753906 672.707031 Z M 3493.9375 721.019531 "/></g><path style=" stroke:none;fill-rule:nonzero;fill:#000000;fill-opacity:1;" d="M 710.816406 640.460938 C 707.101562 642.652344 702.671875 643.414062 698.203125 644.128906 L 698.203125 556.511719 C 719 560.265625 735.324219 578.066406 735.324219 600.34375 C 736.082031 618.144531 725.707031 632.992188 710.816406 640.417969 Z M 684.113281 654.550781 C 684.113281 670.117188 660.363281 670.875 660.363281 653.789062 L 660.363281 547.609375 C 660.363281 542.421875 663.316406 537.234375 668.503906 535.757812 C 673.691406 534.238281 677.445312 535.757812 679.640625 537.234375 C 682.636719 539.46875 684.828125 543.179688 684.828125 546.894531 L 684.871094 654.550781 Z M 720.476562 483.027344 C 724.945312 483.027344 729.375 483.027344 734.605469 480.789062 C 737.558594 508.292969 735.324219 503.0625 736.082031 561.742188 C 731.613281 557.269531 727.183594 552.84375 721.234375 549.847656 C 721.234375 502.347656 722.710938 506.777344 720.476562 483.027344 Z M 531.148438 318.96875 C 447.246094 318.96875 374.519531 375.371094 353.722656 456.324219 C 352.246094 462.988281 346.296875 467.460938 339.589844 467.460938 C 329.210938 467.460938 323.265625 457.800781 325.5 449.617188 C 349.25 356.09375 433.914062 289.988281 531.148438 289.988281 C 628.429688 289.988281 713.050781 356.050781 736.800781 450.375 C 741.273438 468.175781 713.050781 476.359375 708.621094 457.039062 C 687.824219 376.128906 615.054688 318.929688 531.148438 318.929688 Z M 378.230469 546.851562 C 378.230469 540.1875 383.417969 534.996094 390.085938 534.996094 C 397.507812 534.996094 401.980469 540.945312 401.980469 547.609375 L 401.980469 653.789062 C 401.980469 670.875 378.230469 670.117188 378.230469 654.550781 Z M 326.257812 601.058594 C 326.257812 578.785156 342.585938 560.984375 363.382812 557.269531 L 363.382812 644.890625 C 342.585938 641.175781 326.257812 622.617188 326.257812 601.058594 Z M 339.589844 483.027344 L 341.824219 483.027344 C 339.589844 506.777344 341.109375 501.585938 340.347656 549.847656 C 335.160156 552.84375 329.972656 557.269531 325.5 561.699219 C 326.257812 502.304688 324.023438 509.011719 326.976562 480.789062 C 331.449219 482.265625 335.878906 483.027344 339.589844 483.027344 Z M 529.675781 735.460938 C 515.585938 735.460938 505.925781 728.792969 505.925781 722.085938 C 505.925781 715.421875 515.585938 708.714844 529.675781 708.714844 C 543.761719 708.714844 553.425781 715.421875 553.425781 722.085938 C 553.425781 728.792969 543.761719 735.460938 529.675781 735.460938 Z M 750.933594 446.664062 C 725.664062 345.671875 635.09375 275.140625 531.148438 275.140625 C 427.207031 275.140625 336.636719 345.671875 311.410156 446.664062 C 309.175781 454.085938 310.652344 461.511719 314.363281 468.175781 C 309.175781 515.675781 312.886719 511.964844 311.410156 600.300781 L 311.410156 601.058594 C 311.410156 631.515625 334.402344 656.742188 364.097656 659.738281 C 366.335938 672.351562 377.472656 681.253906 390.085938 681.253906 C 405.691406 681.253906 416.828125 668.640625 416.828125 653.789062 L 416.828125 547.609375 C 416.828125 514.199219 370.046875 510.488281 363.382812 541.664062 C 360.386719 541.664062 357.433594 542.421875 355.199219 543.179688 C 355.957031 508.253906 353.722656 510.488281 357.433594 476.359375 C 362.621094 472.605469 366.335938 466.699219 367.851562 459.992188 C 387.132812 385.75 453.953125 333.777344 530.433594 333.777344 C 606.914062 333.777344 674.453125 385.75 693.011719 459.992188 C 694.488281 466.699219 698.960938 472.605469 703.433594 476.359375 C 707.144531 510.488281 704.910156 507.535156 705.667969 543.179688 C 702.671875 542.421875 700.4375 541.664062 697.484375 541.664062 C 696.007812 534.996094 692.296875 529.050781 687.105469 525.335938 C 680.398438 520.148438 671.5 518.628906 662.597656 521.625 C 651.460938 525.335938 644.753906 535.757812 644.753906 547.609375 L 644.753906 653.789062 C 644.753906 668.640625 655.890625 681.253906 671.5 681.253906 C 684.113281 681.253906 695.25 672.351562 697.484375 659.738281 C 700.4375 659.738281 703.433594 658.980469 705.625 658.261719 L 705.625 702.050781 C 705.625 709.472656 699.71875 714.664062 693.011719 714.664062 L 566.796875 714.664062 C 562.367188 702.808594 547.519531 693.867188 529.675781 693.867188 C 508.160156 693.867188 491.074219 706.519531 491.074219 722.085938 C 491.074219 737.695312 508.160156 750.308594 529.675781 750.308594 C 547.519531 750.308594 562.367188 741.40625 566.796875 729.511719 L 693.011719 729.511719 C 708.621094 729.511719 720.476562 716.898438 720.476562 702.050781 L 720.476562 652.3125 C 738.320312 641.9375 749.457031 623.332031 750.171875 601.058594 C 748.695312 507.535156 753.167969 517.195312 747.21875 468.175781 C 751.691406 461.511719 753.167969 454.085938 750.933594 446.664062 "/><path style=" stroke:none;fill-rule:nonzero;fill:#000000;fill-opacity:1;" d="M 486.601562 543.898438 L 474.75 549.847656 L 465.847656 540.945312 L 471.753906 529.808594 C 473.273438 527.574219 473.273438 524.578125 471.753906 522.382812 C 467.324219 515.675781 464.328125 508.253906 462.851562 500.109375 C 462.09375 497.117188 459.902344 495.640625 457.664062 494.921875 L 445.050781 491.210938 L 445.050781 478.597656 L 457.664062 474.84375 C 460.617188 474.125 462.09375 471.890625 462.851562 469.652344 C 464.328125 461.511719 468.042969 454.085938 471.753906 447.378906 C 473.273438 445.144531 473.273438 442.191406 471.753906 439.957031 L 465.847656 428.820312 L 474.75 419.917969 L 485.886719 425.867188 C 488.121094 427.34375 491.074219 427.34375 493.3125 425.867188 C 499.976562 421.394531 507.398438 418.441406 515.585938 416.964844 C 518.539062 416.207031 520.011719 414.730469 520.773438 411.777344 L 524.484375 399.121094 L 537.097656 399.121094 L 540.8125 411.777344 C 541.570312 414.730469 543.804688 416.207031 546 416.964844 C 553.425781 418.441406 560.847656 421.394531 568.273438 425.867188 C 570.507812 427.34375 573.460938 427.34375 575.699219 425.867188 L 586.835938 419.917969 L 595.734375 428.820312 L 589.828125 439.957031 C 588.3125 442.191406 588.3125 445.144531 589.828125 447.378906 C 594.257812 454.085938 597.253906 461.511719 598.730469 469.652344 C 599.449219 472.648438 600.964844 474.125 603.917969 474.84375 C 609.867188 476.359375 613.578125 477.835938 616.53125 478.597656 L 616.53125 491.210938 L 603.917969 494.921875 C 600.964844 495.640625 599.449219 497.875 598.730469 500.109375 C 597.253906 508.253906 593.542969 515.675781 589.828125 522.382812 C 588.3125 524.578125 588.3125 527.574219 589.828125 529.808594 L 595.734375 540.945312 L 587.59375 549.847656 L 575.699219 543.898438 C 573.503906 542.421875 570.507812 542.421875 568.273438 543.898438 C 561.609375 548.371094 554.183594 551.324219 546 552.84375 C 543.046875 553.558594 541.570312 555.792969 540.8125 558.03125 L 537.097656 570.644531 L 524.484375 570.644531 L 520.773438 558.03125 C 520.011719 555.035156 517.820312 553.558594 515.585938 552.84375 C 508.160156 551.324219 499.976562 547.609375 493.3125 543.898438 C 491.835938 542.421875 488.839844 542.421875 486.601562 543.898438 Z M 512.589844 580.304688 C 513.347656 583.257812 516.300781 585.492188 520.011719 585.492188 L 543.804688 585.492188 C 546.757812 585.492188 549.710938 583.257812 551.230469 580.304688 L 554.941406 566.929688 C 561.609375 565.457031 567.554688 562.460938 573.503906 559.507812 L 586.117188 566.171875 C 589.070312 567.691406 592.78125 567.691406 595.019531 564.695312 L 611.34375 548.371094 C 613.578125 546.132812 614.339844 542.421875 612.820312 539.425781 L 606.15625 526.8125 C 609.109375 520.90625 612.101562 514.960938 613.578125 508.253906 L 626.953125 504.539062 C 629.90625 503.824219 632.140625 500.828125 632.140625 497.117188 L 632.140625 473.367188 C 632.140625 469.652344 629.90625 466.699219 626.191406 465.941406 C 625.476562 465.941406 618.050781 463.707031 612.820312 462.230469 C 611.34375 455.5625 608.390625 449.617188 605.394531 443.667969 L 612.101562 431.054688 C 613.578125 428.058594 613.578125 424.390625 610.625 422.152344 L 594.257812 405.785156 C 592.066406 403.59375 588.351562 402.832031 585.359375 404.308594 L 572.746094 411.015625 C 566.796875 408.023438 560.847656 405.070312 554.183594 403.59375 L 550.472656 390.21875 C 549.710938 387.265625 546.757812 385.03125 543.046875 385.03125 L 519.296875 385.03125 C 516.300781 385.03125 513.347656 387.265625 511.871094 390.21875 L 508.160156 403.59375 C 501.453125 405.070312 495.546875 408.023438 489.597656 411.015625 L 476.941406 404.308594 C 473.988281 402.832031 470.277344 403.59375 468.042969 405.785156 L 451.714844 422.152344 C 449.480469 424.390625 448.761719 428.058594 450.238281 431.054688 L 456.90625 443.667969 C 453.953125 449.617188 450.957031 455.5625 449.480469 462.230469 L 436.152344 465.941406 C 433.15625 466.699219 430.917969 469.652344 430.917969 473.367188 L 430.917969 497.117188 C 430.917969 500.109375 433.15625 503.0625 436.152344 504.539062 L 449.480469 508.253906 C 450.957031 514.960938 453.953125 520.90625 456.90625 526.8125 L 450.238281 539.425781 C 448.761719 542.421875 448.761719 546.132812 451.714844 548.371094 L 468.042969 564.695312 C 470.277344 566.929688 473.988281 567.691406 476.941406 566.171875 L 489.597656 559.507812 C 495.546875 562.460938 501.453125 565.457031 508.160156 566.929688 L 512.589844 580.304688 "/><path style=" stroke:none;fill-rule:nonzero;fill:#000000;fill-opacity:1;" d="M 513.347656 488.214844 C 511.871094 482.265625 514.066406 476.359375 518.539062 471.890625 C 522.25 468.175781 526.722656 466.699219 531.148438 466.699219 L 534.863281 466.699219 C 541.570312 468.175781 547.519531 474.125 548.996094 480.789062 C 550.472656 486.738281 548.234375 492.6875 543.804688 497.117188 C 539.335938 501.585938 533.386719 503.0625 527.4375 502.347656 C 520.773438 501.585938 514.824219 495.640625 513.347656 488.214844 Z M 531.148438 517.914062 C 540.09375 517.914062 548.234375 514.199219 554.183594 508.253906 C 561.609375 500.871094 565.320312 489.691406 563.085938 478.597656 C 560.847656 465.222656 550.472656 455.5625 537.097656 452.570312 C 525.960938 450.375 515.585938 454.085938 507.398438 461.511719 C 499.976562 468.9375 496.261719 480.074219 498.5 491.210938 C 500.734375 504.539062 511.113281 514.199219 524.484375 517.195312 C 526.722656 517.914062 528.914062 517.914062 531.148438 517.914062 "/><g style="fill:#000000;fill-opacity:1;"><g transform="translate(2394.966685, 927.087632)"><path style="stroke:none" d="M 78.921875 -64.609375 C 85.367188 -61.609375 90.394531 -57.691406 94 -52.859375 C 97.601562 -48.035156 99.40625 -42.460938 99.40625 -36.140625 C 99.40625 -23.703125 95.328125 -14.566406 87.171875 -8.734375 C 79.015625 -2.910156 68.828125 0 56.609375 0 L 15.8125 0 L 15.8125 -122.5625 L 51.78125 -122.5625 C 64.769531 -122.5625 74.984375 -119.921875 82.421875 -114.640625 C 89.859375 -109.367188 93.578125 -101.738281 93.578125 -91.75 C 93.578125 -85.644531 92.300781 -80.285156 89.75 -75.671875 C 87.195312 -71.066406 83.585938 -67.378906 78.921875 -64.609375 Z M 39.96875 -72.4375 L 54.609375 -72.4375 C 59.054688 -72.4375 62.5 -73.796875 64.9375 -76.515625 C 67.382812 -79.234375 68.609375 -82.59375 68.609375 -86.59375 C 68.609375 -90.695312 67.21875 -93.832031 64.4375 -96 C 61.664062 -98.164062 57.835938 -99.25 52.953125 -99.25 L 39.96875 -99.25 Z M 55.453125 -22.484375 C 61.109375 -22.484375 65.6875 -23.617188 69.1875 -25.890625 C 72.6875 -28.171875 74.4375 -31.585938 74.4375 -36.140625 C 74.4375 -44.796875 67.550781 -49.125 53.78125 -49.125 L 39.96875 -49.125 L 39.96875 -22.484375 Z M 55.453125 -22.484375 "/></g></g><g style="fill:#000000;fill-opacity:1;"><g transform="translate(2502.690118, 927.087632)"><path style="stroke:none" d="M 48.296875 -17.8125 C 52.953125 -17.8125 57.78125 -19.421875 62.78125 -22.640625 L 73.09375 -5.328125 C 69.101562 -3.109375 64.882812 -1.332031 60.4375 0 C 56 1.332031 51.785156 2 47.796875 2 C 39.128906 2 31.660156 0.363281 25.390625 -2.90625 C 19.117188 -6.1875 14.375 -10.796875 11.15625 -16.734375 C 7.9375 -22.671875 6.328125 -29.472656 6.328125 -37.140625 C 6.328125 -44.242188 8.1875 -50.789062 11.90625 -56.78125 C 15.625 -62.78125 20.703125 -67.523438 27.140625 -71.015625 C 33.578125 -74.515625 40.628906 -76.265625 48.296875 -76.265625 C 58.722656 -76.265625 67.296875 -73.210938 74.015625 -67.109375 C 80.734375 -61.003906 85.09375 -52.289062 87.09375 -40.96875 L 33.796875 -23.984375 C 37.347656 -19.867188 42.179688 -17.8125 48.296875 -17.8125 Z M 46.453125 -58.109375 C 41.234375 -58.109375 37.070312 -56.332031 33.96875 -52.78125 C 30.863281 -49.226562 29.3125 -44.457031 29.3125 -38.46875 L 29.3125 -36.96875 L 61.28125 -47.796875 C 58.945312 -54.671875 54.003906 -58.109375 46.453125 -58.109375 Z M 46.453125 -58.109375 "/></g></g><g style="fill:#000000;fill-opacity:1;"><g transform="translate(2594.762821, 927.087632)"><path style="stroke:none" d="M 35.640625 1.5 C 29.640625 1.5 24.03125 0.445312 18.8125 -1.65625 C 13.59375 -3.769531 9.265625 -6.710938 5.828125 -10.484375 L 15.484375 -23.3125 C 21.921875 -17.320312 27.972656 -14.328125 33.640625 -14.328125 C 36.628906 -14.328125 39.039062 -14.796875 40.875 -15.734375 C 42.707031 -16.679688 43.625 -18.097656 43.625 -19.984375 C 43.625 -22.203125 42.566406 -23.894531 40.453125 -25.0625 C 38.347656 -26.226562 35.988281 -27.195312 33.375 -27.96875 C 30.769531 -28.75 29.023438 -29.25 28.140625 -29.46875 C 21.816406 -31.46875 17.097656 -34.4375 13.984375 -38.375 C 10.878906 -42.320312 9.328125 -46.847656 9.328125 -51.953125 C 9.328125 -55.835938 10.351562 -59.640625 12.40625 -63.359375 C 14.457031 -67.078125 17.644531 -70.128906 21.96875 -72.515625 C 26.300781 -74.898438 31.6875 -76.09375 38.125 -76.09375 C 44.125 -76.09375 49.234375 -75.484375 53.453125 -74.265625 C 57.671875 -73.046875 61.722656 -71.046875 65.609375 -68.265625 L 56.78125 -54.609375 C 54.5625 -56.390625 52.09375 -57.863281 49.375 -59.03125 C 46.65625 -60.195312 44.1875 -60.78125 41.96875 -60.78125 C 39.300781 -60.78125 37.132812 -60.222656 35.46875 -59.109375 C 33.800781 -58.003906 32.96875 -56.671875 32.96875 -55.109375 C 32.851562 -52.785156 33.820312 -51.039062 35.875 -49.875 C 37.9375 -48.707031 41.128906 -47.515625 45.453125 -46.296875 C 46.117188 -46.066406 46.8125 -45.84375 47.53125 -45.625 C 48.257812 -45.40625 49.007812 -45.179688 49.78125 -44.953125 C 61.21875 -41.179688 66.9375 -34.300781 66.9375 -24.3125 C 66.9375 -19.644531 65.769531 -15.367188 63.4375 -11.484375 C 61.113281 -7.597656 57.59375 -4.460938 52.875 -2.078125 C 48.15625 0.304688 42.410156 1.5 35.640625 1.5 Z M 35.640625 1.5 "/></g></g><g style="fill:#000000;fill-opacity:1;"><g transform="translate(2669.186849, 927.087632)"><path style="stroke:none" d="M 42.125 -104.734375 L 42.125 -73.09375 L 59.78125 -73.09375 L 59.78125 -54.953125 L 42.125 -54.953125 L 42.125 0 L 18.8125 0 L 18.8125 -54.953125 L 7.5 -54.953125 L 7.5 -73.09375 L 18.8125 -73.09375 L 18.8125 -104.734375 Z M 42.125 -104.734375 "/></g></g><g style="fill:#000000;fill-opacity:1;"><g transform="translate(2734.791388, 927.087632)"><path style="stroke:none" d=""/></g></g><g style="fill:#000000;fill-opacity:1;"><g transform="translate(2395.332612, 1157.378026)"><path style="stroke:none" d="M 52.953125 -122.5625 C 67.941406 -122.5625 79.539062 -118.867188 87.75 -111.484375 C 95.96875 -104.097656 100.078125 -94.023438 100.078125 -81.265625 C 100.078125 -73.929688 98.660156 -67.070312 95.828125 -60.6875 C 92.992188 -54.3125 88.382812 -49.066406 82 -44.953125 C 75.625 -40.847656 67.382812 -38.796875 57.28125 -38.796875 L 39.96875 -38.796875 L 39.96875 0 L 15.8125 0 L 15.8125 -122.5625 Z M 57.109375 -62.28125 C 61.660156 -62.28125 65.320312 -63.304688 68.09375 -65.359375 C 70.875 -67.410156 72.875 -69.820312 74.09375 -72.59375 C 75.320312 -75.375 75.9375 -78.039062 75.9375 -80.59375 C 75.9375 -84.925781 74.65625 -89.117188 72.09375 -93.171875 C 69.539062 -97.222656 64.601562 -99.25 57.28125 -99.25 L 39.96875 -99.25 L 39.96875 -62.28125 Z M 57.109375 -62.28125 "/></g></g><g style="fill:#000000;fill-opacity:1;"><g transform="translate(2501.224558, 1157.378026)"><path style="stroke:none" d="M 34.796875 -56.109375 C 36.796875 -59.992188 39.546875 -63.488281 43.046875 -66.59375 C 46.546875 -69.707031 50.125 -72.125 53.78125 -73.84375 C 57.445312 -75.570312 60.332031 -76.4375 62.4375 -76.4375 L 61.28125 -53.125 C 60.613281 -53.226562 59.671875 -53.28125 58.453125 -53.28125 C 53.785156 -53.28125 49.675781 -52.054688 46.125 -49.609375 C 42.570312 -47.171875 39.851562 -44.035156 37.96875 -40.203125 C 36.082031 -36.378906 35.140625 -32.46875 35.140625 -28.46875 L 35.140625 0 L 11.984375 0 L 11.984375 -72.765625 L 32.96875 -72.765625 Z M 34.796875 -56.109375 "/></g></g><g style="fill:#000000;fill-opacity:1;"><g transform="translate(2569.488209, 1157.378026)"><path style="stroke:none" d="M 35.296875 -72.765625 L 35.296875 0 L 11.984375 0 L 11.984375 -72.765625 Z M 11.484375 -98.578125 C 11.484375 -101.910156 12.785156 -104.710938 15.390625 -106.984375 C 18.003906 -109.265625 20.976562 -110.40625 24.3125 -110.40625 C 27.53125 -110.40625 30.414062 -109.265625 32.96875 -106.984375 C 35.519531 -104.710938 36.796875 -101.910156 36.796875 -98.578125 C 36.796875 -95.242188 35.519531 -92.46875 32.96875 -90.25 C 30.414062 -88.03125 27.53125 -86.921875 24.3125 -86.921875 C 20.976562 -86.921875 18.003906 -88.03125 15.390625 -90.25 C 12.785156 -92.46875 11.484375 -95.242188 11.484375 -98.578125 Z M 11.484375 -98.578125 "/></g></g><g style="fill:#000000;fill-opacity:1;"><g transform="translate(2616.773264, 1157.378026)"><path style="stroke:none" d="M 73.765625 -6.5 C 70.546875 -3.945312 66.519531 -1.890625 61.6875 -0.328125 C 56.863281 1.222656 52.117188 2 47.453125 2 C 34.796875 2 24.773438 -1.410156 17.390625 -8.234375 C 10.015625 -15.066406 6.328125 -24.476562 6.328125 -36.46875 C 6.328125 -44.238281 8.128906 -51.035156 11.734375 -56.859375 C 15.347656 -62.691406 20.09375 -67.132812 25.96875 -70.1875 C 31.851562 -73.238281 38.179688 -74.765625 44.953125 -74.765625 C 57.054688 -74.765625 66.882812 -71.546875 74.4375 -65.109375 L 63.109375 -50.125 C 58.335938 -53.894531 53.007812 -55.78125 47.125 -55.78125 C 42.238281 -55.78125 38.101562 -53.945312 34.71875 -50.28125 C 31.332031 -46.625 29.640625 -42.019531 29.640625 -36.46875 C 29.640625 -30.914062 31.46875 -26.28125 35.125 -22.5625 C 38.789062 -18.84375 43.566406 -16.984375 49.453125 -16.984375 C 54.554688 -16.984375 58.773438 -18.367188 62.109375 -21.140625 Z M 73.765625 -6.5 "/></g></g><g style="fill:#000000;fill-opacity:1;"><g transform="translate(2696.525217, 1157.378026)"><path style="stroke:none" d="M 48.296875 -17.8125 C 52.953125 -17.8125 57.78125 -19.421875 62.78125 -22.640625 L 73.09375 -5.328125 C 69.101562 -3.109375 64.882812 -1.332031 60.4375 0 C 56 1.332031 51.785156 2 47.796875 2 C 39.128906 2 31.660156 0.363281 25.390625 -2.90625 C 19.117188 -6.1875 14.375 -10.796875 11.15625 -16.734375 C 7.9375 -22.671875 6.328125 -29.472656 6.328125 -37.140625 C 6.328125 -44.242188 8.1875 -50.789062 11.90625 -56.78125 C 15.625 -62.78125 20.703125 -67.523438 27.140625 -71.015625 C 33.578125 -74.515625 40.628906 -76.265625 48.296875 -76.265625 C 58.722656 -76.265625 67.296875 -73.210938 74.015625 -67.109375 C 80.734375 -61.003906 85.09375 -52.289062 87.09375 -40.96875 L 33.796875 -23.984375 C 37.347656 -19.867188 42.179688 -17.8125 48.296875 -17.8125 Z M 46.453125 -58.109375 C 41.234375 -58.109375 37.070312 -56.332031 33.96875 -52.78125 C 30.863281 -49.226562 29.3125 -44.457031 29.3125 -38.46875 L 29.3125 -36.96875 L 61.28125 -47.796875 C 58.945312 -54.671875 54.003906 -58.109375 46.453125 -58.109375 Z M 46.453125 -58.109375 "/></g></g><g style="fill:#000000;fill-opacity:1;"><g transform="translate(386.203455, 927.087632)"><path style="stroke:none" d="M 107.734375 -10.15625 C 104.628906 -7.601562 99.691406 -5.050781 92.921875 -2.5 C 86.148438 0.0507812 78.765625 1.328125 70.765625 1.328125 C 58.003906 1.328125 46.90625 -1.441406 37.46875 -6.984375 C 28.03125 -12.535156 20.8125 -20 15.8125 -29.375 C 10.820312 -38.757812 8.328125 -49.0625 8.328125 -60.28125 C 8.328125 -72.601562 10.820312 -83.59375 15.8125 -93.25 C 20.8125 -102.90625 27.804688 -110.425781 36.796875 -115.8125 C 45.785156 -121.195312 56.164062 -123.890625 67.9375 -123.890625 C 75.375 -123.890625 82.253906 -122.890625 88.578125 -120.890625 C 94.910156 -118.890625 100.460938 -116.390625 105.234375 -113.390625 L 95.75 -90.578125 C 86.976562 -97.242188 77.984375 -100.578125 68.765625 -100.578125 C 62.554688 -100.578125 56.726562 -98.851562 51.28125 -95.40625 C 45.84375 -91.96875 41.515625 -87.28125 38.296875 -81.34375 C 35.078125 -75.40625 33.46875 -68.828125 33.46875 -61.609375 C 33.46875 -53.722656 34.96875 -46.8125 37.96875 -40.875 C 40.96875 -34.9375 45.238281 -30.300781 50.78125 -26.96875 C 56.332031 -23.644531 62.828125 -21.984375 70.265625 -21.984375 C 76.265625 -21.984375 81.648438 -22.953125 86.421875 -24.890625 C 91.191406 -26.835938 94.96875 -29.140625 97.75 -31.796875 Z M 107.734375 -10.15625 "/></g></g><g style="fill:#000000;fill-opacity:1;"><g transform="translate(502.25168, 927.087632)"><path style="stroke:none" d="M 90.25 -72.765625 L 90.25 0 L 66.9375 0 L 66.9375 -8.984375 C 59.945312 -1.660156 51.84375 2 42.625 2 C 31.851562 2 23.109375 -1.21875 16.390625 -7.65625 C 9.679688 -14.09375 6.328125 -23.640625 6.328125 -36.296875 C 6.328125 -44.296875 7.960938 -51.316406 11.234375 -57.359375 C 14.515625 -63.410156 18.875 -68.101562 24.3125 -71.4375 C 29.75 -74.769531 35.578125 -76.4375 41.796875 -76.4375 C 48.234375 -76.4375 53.335938 -75.460938 57.109375 -73.515625 C 60.890625 -71.578125 64.222656 -68.832031 67.109375 -65.28125 L 68.609375 -72.765625 Z M 49.28125 -16.984375 C 57.382812 -16.984375 63.269531 -20.644531 66.9375 -27.96875 L 66.9375 -45.796875 C 65.601562 -49.347656 63.296875 -52.175781 60.015625 -54.28125 C 56.742188 -56.394531 52.890625 -57.453125 48.453125 -57.453125 C 43.347656 -57.453125 38.988281 -55.5625 35.375 -51.78125 C 31.769531 -48.007812 29.96875 -43.238281 29.96875 -37.46875 C 29.96875 -33.6875 30.851562 -30.210938 32.625 -27.046875 C 34.40625 -23.890625 36.765625 -21.421875 39.703125 -19.640625 C 42.648438 -17.867188 45.84375 -16.984375 49.28125 -16.984375 Z M 49.28125 -16.984375 "/></g></g><g style="fill:#000000;fill-opacity:1;"><g transform="translate(604.48072, 927.087632)"><path style="stroke:none" d="M 35.296875 -131.375 L 35.296875 0 L 11.984375 0 L 11.984375 -131.375 Z M 35.296875 -131.375 "/></g></g><g style="fill:#000000;fill-opacity:1;"><g transform="translate(651.765776, 927.087632)"><path style="stroke:none" d="M 35.296875 -131.375 L 35.296875 0 L 11.984375 0 L 11.984375 -131.375 Z M 35.296875 -131.375 "/></g></g><g style="fill:#000000;fill-opacity:1;"><g transform="translate(227.146954, 1157.378026)"><path style="stroke:none" d="M 81.265625 -92.921875 C 70.609375 -98.796875 61.335938 -101.734375 53.453125 -101.734375 C 48.117188 -101.734375 43.984375 -100.675781 41.046875 -98.5625 C 38.109375 -96.457031 36.640625 -93.296875 36.640625 -89.078125 C 36.640625 -85.191406 38.773438 -81.78125 43.046875 -78.84375 C 47.316406 -75.90625 53.003906 -73.101562 60.109375 -70.4375 C 65.878906 -68.320312 70.816406 -65.90625 74.921875 -63.1875 C 79.035156 -60.46875 82.453125 -56.722656 85.171875 -51.953125 C 87.890625 -47.179688 89.25 -41.128906 89.25 -33.796875 C 89.25 -27.472656 87.609375 -21.617188 84.328125 -16.234375 C 81.054688 -10.847656 76.253906 -6.570312 69.921875 -3.40625 C 63.597656 -0.25 56.054688 1.328125 47.296875 1.328125 C 39.960938 1.328125 32.6875 0.25 25.46875 -1.90625 C 18.257812 -4.070312 11.546875 -7.378906 5.328125 -11.828125 L 15.984375 -30.640625 C 20.203125 -27.523438 25.03125 -24.96875 30.46875 -22.96875 C 35.90625 -20.976562 40.789062 -19.984375 45.125 -19.984375 C 50.226562 -19.984375 54.664062 -21.0625 58.4375 -23.21875 C 62.21875 -25.382812 64.109375 -28.910156 64.109375 -33.796875 C 64.109375 -40.128906 58.171875 -45.625 46.296875 -50.28125 C 39.296875 -53.0625 33.460938 -55.726562 28.796875 -58.28125 C 24.140625 -60.832031 20.117188 -64.492188 16.734375 -69.265625 C 13.347656 -74.046875 11.65625 -80.039062 11.65625 -87.25 C 11.65625 -97.800781 15.125 -106.296875 22.0625 -112.734375 C 29 -119.171875 38.238281 -122.664062 49.78125 -123.21875 C 58.882812 -123.21875 66.488281 -122.191406 72.59375 -120.140625 C 78.707031 -118.085938 84.648438 -115.175781 90.421875 -111.40625 Z M 81.265625 -92.921875 "/></g></g><g style="fill:#000000;fill-opacity:1;"><g transform="translate(324.214593, 1157.378026)"><path style="stroke:none" d="M 85.25 -72.765625 L 85.25 0 L 64.109375 0 L 62.4375 -11.65625 C 59.882812 -6.988281 56.304688 -3.296875 51.703125 -0.578125 C 47.097656 2.140625 41.6875 3.5 35.46875 3.5 C 28.8125 3.5 23.257812 1.445312 18.8125 -2.65625 C 14.375 -6.769531 12.097656 -11.988281 11.984375 -18.3125 L 11.984375 -72.765625 L 35.296875 -72.765625 L 35.296875 -26.96875 C 35.628906 -19.863281 38.90625 -16.3125 45.125 -16.3125 C 50.226562 -16.3125 54.304688 -18.8125 57.359375 -23.8125 C 60.410156 -28.8125 61.9375 -35.25 61.9375 -43.125 L 61.9375 -72.765625 Z M 85.25 -72.765625 "/></g></g><g style="fill:#000000;fill-opacity:1;"><g transform="translate(421.448697, 1157.378026)"><path style="stroke:none" d="M 62.28125 -76.4375 C 69.050781 -76.4375 75.097656 -74.820312 80.421875 -71.59375 C 85.753906 -68.375 89.945312 -63.769531 93 -57.78125 C 96.050781 -51.789062 97.578125 -44.742188 97.578125 -36.640625 C 97.578125 -28.640625 95.882812 -21.722656 92.5 -15.890625 C 89.113281 -10.066406 84.394531 -5.628906 78.34375 -2.578125 C 72.289062 0.472656 65.378906 2 57.609375 2 C 53.390625 2 49.253906 1.25 45.203125 -0.25 C 41.148438 -1.75 37.796875 -3.882812 35.140625 -6.65625 L 35.140625 34.96875 L 11.984375 34.96875 L 11.984375 -74.4375 L 31.96875 -74.4375 L 33.96875 -65.78125 C 42.851562 -72.882812 52.289062 -76.4375 62.28125 -76.4375 Z M 52.953125 -16.3125 C 58.722656 -16.3125 63.660156 -18.195312 67.765625 -21.96875 C 71.878906 -25.75 73.9375 -30.523438 73.9375 -36.296875 C 73.9375 -42.296875 72.078125 -47.207031 68.359375 -51.03125 C 64.640625 -54.863281 60.054688 -56.78125 54.609375 -56.78125 C 50.066406 -56.78125 46.210938 -55.863281 43.046875 -54.03125 C 39.878906 -52.195312 37.296875 -49.453125 35.296875 -45.796875 L 35.296875 -27.96875 C 36.523438 -24.414062 38.71875 -21.582031 41.875 -19.46875 C 45.039062 -17.363281 48.734375 -16.3125 52.953125 -16.3125 Z M 52.953125 -16.3125 "/></g></g><g style="fill:#000000;fill-opacity:1;"><g transform="translate(525.342694, 1157.378026)"><path style="stroke:none" d="M 62.28125 -76.4375 C 69.050781 -76.4375 75.097656 -74.820312 80.421875 -71.59375 C 85.753906 -68.375 89.945312 -63.769531 93 -57.78125 C 96.050781 -51.789062 97.578125 -44.742188 97.578125 -36.640625 C 97.578125 -28.640625 95.882812 -21.722656 92.5 -15.890625 C 89.113281 -10.066406 84.394531 -5.628906 78.34375 -2.578125 C 72.289062 0.472656 65.378906 2 57.609375 2 C 53.390625 2 49.253906 1.25 45.203125 -0.25 C 41.148438 -1.75 37.796875 -3.882812 35.140625 -6.65625 L 35.140625 34.96875 L 11.984375 34.96875 L 11.984375 -74.4375 L 31.96875 -74.4375 L 33.96875 -65.78125 C 42.851562 -72.882812 52.289062 -76.4375 62.28125 -76.4375 Z M 52.953125 -16.3125 C 58.722656 -16.3125 63.660156 -18.195312 67.765625 -21.96875 C 71.878906 -25.75 73.9375 -30.523438 73.9375 -36.296875 C 73.9375 -42.296875 72.078125 -47.207031 68.359375 -51.03125 C 64.640625 -54.863281 60.054688 -56.78125 54.609375 -56.78125 C 50.066406 -56.78125 46.210938 -55.863281 43.046875 -54.03125 C 39.878906 -52.195312 37.296875 -49.453125 35.296875 -45.796875 L 35.296875 -27.96875 C 36.523438 -24.414062 38.71875 -21.582031 41.875 -19.46875 C 45.039062 -17.363281 48.734375 -16.3125 52.953125 -16.3125 Z M 52.953125 -16.3125 "/></g></g><g style="fill:#000000;fill-opacity:1;"><g transform="translate(629.236692, 1157.378026)"><path style="stroke:none" d="M 6.328125 -37.296875 C 6.328125 -44.734375 8.070312 -51.394531 11.5625 -57.28125 C 15.0625 -63.164062 20.003906 -67.800781 26.390625 -71.1875 C 32.773438 -74.570312 40.019531 -76.265625 48.125 -76.265625 C 56.226562 -76.265625 63.359375 -74.570312 69.515625 -71.1875 C 75.679688 -67.800781 80.425781 -63.164062 83.75 -57.28125 C 87.082031 -51.394531 88.75 -44.734375 88.75 -37.296875 C 88.75 -29.859375 87.082031 -23.140625 83.75 -17.140625 C 80.425781 -11.148438 75.679688 -6.460938 69.515625 -3.078125 C 63.359375 0.304688 56.117188 2 47.796875 2 C 39.691406 2 32.5 0.414062 26.21875 -2.75 C 19.945312 -5.914062 15.0625 -10.4375 11.5625 -16.3125 C 8.070312 -22.195312 6.328125 -29.191406 6.328125 -37.296875 Z M 29.8125 -37.140625 C 29.8125 -31.359375 31.472656 -26.550781 34.796875 -22.71875 C 38.128906 -18.894531 42.347656 -16.984375 47.453125 -16.984375 C 52.785156 -16.984375 57.085938 -18.867188 60.359375 -22.640625 C 63.640625 -26.421875 65.28125 -31.253906 65.28125 -37.140625 C 65.28125 -43.015625 63.640625 -47.835938 60.359375 -51.609375 C 57.085938 -55.390625 52.785156 -57.28125 47.453125 -57.28125 C 42.347656 -57.28125 38.128906 -55.363281 34.796875 -51.53125 C 31.472656 -47.707031 29.8125 -42.910156 29.8125 -37.140625 Z M 29.8125 -37.140625 "/></g></g><g style="fill:#000000;fill-opacity:1;"><g transform="translate(724.30632, 1157.378026)"><path style="stroke:none" d="M 34.796875 -56.109375 C 36.796875 -59.992188 39.546875 -63.488281 43.046875 -66.59375 C 46.546875 -69.707031 50.125 -72.125 53.78125 -73.84375 C 57.445312 -75.570312 60.332031 -76.4375 62.4375 -76.4375 L 61.28125 -53.125 C 60.613281 -53.226562 59.671875 -53.28125 58.453125 -53.28125 C 53.785156 -53.28125 49.675781 -52.054688 46.125 -49.609375 C 42.570312 -47.171875 39.851562 -44.035156 37.96875 -40.203125 C 36.082031 -36.378906 35.140625 -32.46875 35.140625 -28.46875 L 35.140625 0 L 11.984375 0 L 11.984375 -72.765625 L 32.96875 -72.765625 Z M 34.796875 -56.109375 "/></g></g><g style="fill:#000000;fill-opacity:1;"><g transform="translate(792.56997, 1157.378026)"><path style="stroke:none" d="M 42.125 -104.734375 L 42.125 -73.09375 L 59.78125 -73.09375 L 59.78125 -54.953125 L 42.125 -54.953125 L 42.125 0 L 18.8125 0 L 18.8125 -54.953125 L 7.5 -54.953125 L 7.5 -73.09375 L 18.8125 -73.09375 L 18.8125 -104.734375 Z M 42.125 -104.734375 "/></g></g><g style="fill:#000000;fill-opacity:1;"><g transform="translate(1371.704563, 927.087632)"><path style="stroke:none" d="M 99.40625 -122.5625 L 99.40625 -99.25 L 39.96875 -99.25 L 39.96875 -73.09375 L 92.578125 -73.09375 L 92.578125 -49.78125 L 39.96875 -49.78125 L 39.96875 -23.3125 L 101.734375 -23.3125 L 101.734375 0 L 15.8125 0 L 15.8125 -122.5625 Z M 99.40625 -122.5625 "/></g></g><g style="fill:#000000;fill-opacity:1;"><g transform="translate(1482.591386, 927.087632)"><path style="stroke:none" d="M 90.25 -72.765625 L 90.25 0 L 66.9375 0 L 66.9375 -8.984375 C 59.945312 -1.660156 51.84375 2 42.625 2 C 31.851562 2 23.109375 -1.21875 16.390625 -7.65625 C 9.679688 -14.09375 6.328125 -23.640625 6.328125 -36.296875 C 6.328125 -44.296875 7.960938 -51.316406 11.234375 -57.359375 C 14.515625 -63.410156 18.875 -68.101562 24.3125 -71.4375 C 29.75 -74.769531 35.578125 -76.4375 41.796875 -76.4375 C 48.234375 -76.4375 53.335938 -75.460938 57.109375 -73.515625 C 60.890625 -71.578125 64.222656 -68.832031 67.109375 -65.28125 L 68.609375 -72.765625 Z M 49.28125 -16.984375 C 57.382812 -16.984375 63.269531 -20.644531 66.9375 -27.96875 L 66.9375 -45.796875 C 65.601562 -49.347656 63.296875 -52.175781 60.015625 -54.28125 C 56.742188 -56.394531 52.890625 -57.453125 48.453125 -57.453125 C 43.347656 -57.453125 38.988281 -55.5625 35.375 -51.78125 C 31.769531 -48.007812 29.96875 -43.238281 29.96875 -37.46875 C 29.96875 -33.6875 30.851562 -30.210938 32.625 -27.046875 C 34.40625 -23.890625 36.765625 -21.421875 39.703125 -19.640625 C 42.648438 -17.867188 45.84375 -16.984375 49.28125 -16.984375 Z M 49.28125 -16.984375 "/></g></g><g style="fill:#000000;fill-opacity:1;"><g transform="translate(1584.820427, 927.087632)"><path style="stroke:none" d="M 35.640625 1.5 C 29.640625 1.5 24.03125 0.445312 18.8125 -1.65625 C 13.59375 -3.769531 9.265625 -6.710938 5.828125 -10.484375 L 15.484375 -23.3125 C 21.921875 -17.320312 27.972656 -14.328125 33.640625 -14.328125 C 36.628906 -14.328125 39.039062 -14.796875 40.875 -15.734375 C 42.707031 -16.679688 43.625 -18.097656 43.625 -19.984375 C 43.625 -22.203125 42.566406 -23.894531 40.453125 -25.0625 C 38.347656 -26.226562 35.988281 -27.195312 33.375 -27.96875 C 30.769531 -28.75 29.023438 -29.25 28.140625 -29.46875 C 21.816406 -31.46875 17.097656 -34.4375 13.984375 -38.375 C 10.878906 -42.320312 9.328125 -46.847656 9.328125 -51.953125 C 9.328125 -55.835938 10.351562 -59.640625 12.40625 -63.359375 C 14.457031 -67.078125 17.644531 -70.128906 21.96875 -72.515625 C 26.300781 -74.898438 31.6875 -76.09375 38.125 -76.09375 C 44.125 -76.09375 49.234375 -75.484375 53.453125 -74.265625 C 57.671875 -73.046875 61.722656 -71.046875 65.609375 -68.265625 L 56.78125 -54.609375 C 54.5625 -56.390625 52.09375 -57.863281 49.375 -59.03125 C 46.65625 -60.195312 44.1875 -60.78125 41.96875 -60.78125 C 39.300781 -60.78125 37.132812 -60.222656 35.46875 -59.109375 C 33.800781 -58.003906 32.96875 -56.671875 32.96875 -55.109375 C 32.851562 -52.785156 33.820312 -51.039062 35.875 -49.875 C 37.9375 -48.707031 41.128906 -47.515625 45.453125 -46.296875 C 46.117188 -46.066406 46.8125 -45.84375 47.53125 -45.625 C 48.257812 -45.40625 49.007812 -45.179688 49.78125 -44.953125 C 61.21875 -41.179688 66.9375 -34.300781 66.9375 -24.3125 C 66.9375 -19.644531 65.769531 -15.367188 63.4375 -11.484375 C 61.113281 -7.597656 57.59375 -4.460938 52.875 -2.078125 C 48.15625 0.304688 42.410156 1.5 35.640625 1.5 Z M 35.640625 1.5 "/></g></g><g style="fill:#000000;fill-opacity:1;"><g transform="translate(1659.244455, 927.087632)"><path style="stroke:none" d="M 87.25 -72.765625 L 40.296875 34.96875 L 17.8125 34.96875 L 35.296875 -3.828125 L 1.671875 -72.765625 L 27.8125 -72.765625 L 46.953125 -29.8125 L 66.265625 -72.765625 Z M 87.25 -72.765625 "/></g></g><g style="fill:#000000;fill-opacity:1;"><g transform="translate(1358.470184, 1157.378026)"><path style="stroke:none" d="M 39.96875 -122.5625 L 39.96875 -23.3125 L 97.578125 -23.3125 L 97.578125 0 L 15.8125 0 L 15.8125 -122.5625 Z M 39.96875 -122.5625 "/></g></g><g style="fill:#000000;fill-opacity:1;"><g transform="translate(1465.194641, 1157.378026)"><path style="stroke:none" d="M 6.328125 -37.296875 C 6.328125 -44.734375 8.070312 -51.394531 11.5625 -57.28125 C 15.0625 -63.164062 20.003906 -67.800781 26.390625 -71.1875 C 32.773438 -74.570312 40.019531 -76.265625 48.125 -76.265625 C 56.226562 -76.265625 63.359375 -74.570312 69.515625 -71.1875 C 75.679688 -67.800781 80.425781 -63.164062 83.75 -57.28125 C 87.082031 -51.394531 88.75 -44.734375 88.75 -37.296875 C 88.75 -29.859375 87.082031 -23.140625 83.75 -17.140625 C 80.425781 -11.148438 75.679688 -6.460938 69.515625 -3.078125 C 63.359375 0.304688 56.117188 2 47.796875 2 C 39.691406 2 32.5 0.414062 26.21875 -2.75 C 19.945312 -5.914062 15.0625 -10.4375 11.5625 -16.3125 C 8.070312 -22.195312 6.328125 -29.191406 6.328125 -37.296875 Z M 29.8125 -37.140625 C 29.8125 -31.359375 31.472656 -26.550781 34.796875 -22.71875 C 38.128906 -18.894531 42.347656 -16.984375 47.453125 -16.984375 C 52.785156 -16.984375 57.085938 -18.867188 60.359375 -22.640625 C 63.640625 -26.421875 65.28125 -31.253906 65.28125 -37.140625 C 65.28125 -43.015625 63.640625 -47.835938 60.359375 -51.609375 C 57.085938 -55.390625 52.785156 -57.28125 47.453125 -57.28125 C 42.347656 -57.28125 38.128906 -55.363281 34.796875 -51.53125 C 31.472656 -47.707031 29.8125 -42.910156 29.8125 -37.140625 Z M 29.8125 -37.140625 "/></g></g><g style="fill:#000000;fill-opacity:1;"><g transform="translate(1560.264269, 1157.378026)"><path style="stroke:none" d="M 90.25 -72.765625 L 90.25 0 L 66.9375 0 L 66.9375 -8.984375 C 59.945312 -1.660156 51.84375 2 42.625 2 C 31.851562 2 23.109375 -1.21875 16.390625 -7.65625 C 9.679688 -14.09375 6.328125 -23.640625 6.328125 -36.296875 C 6.328125 -44.296875 7.960938 -51.316406 11.234375 -57.359375 C 14.515625 -63.410156 18.875 -68.101562 24.3125 -71.4375 C 29.75 -74.769531 35.578125 -76.4375 41.796875 -76.4375 C 48.234375 -76.4375 53.335938 -75.460938 57.109375 -73.515625 C 60.890625 -71.578125 64.222656 -68.832031 67.109375 -65.28125 L 68.609375 -72.765625 Z M 49.28125 -16.984375 C 57.382812 -16.984375 63.269531 -20.644531 66.9375 -27.96875 L 66.9375 -45.796875 C 65.601562 -49.347656 63.296875 -52.175781 60.015625 -54.28125 C 56.742188 -56.394531 52.890625 -57.453125 48.453125 -57.453125 C 43.347656 -57.453125 38.988281 -55.5625 35.375 -51.78125 C 31.769531 -48.007812 29.96875 -43.238281 29.96875 -37.46875 C 29.96875 -33.6875 30.851562 -30.210938 32.625 -27.046875 C 34.40625 -23.890625 36.765625 -21.421875 39.703125 -19.640625 C 42.648438 -17.867188 45.84375 -16.984375 49.28125 -16.984375 Z M 49.28125 -16.984375 "/></g></g><g style="fill:#000000;fill-opacity:1;"><g transform="translate(1662.49331, 1157.378026)"><path style="stroke:none" d="M 62.609375 -76.265625 C 69.492188 -76.265625 75.238281 -74.207031 79.84375 -70.09375 C 84.445312 -65.988281 86.804688 -60.773438 86.921875 -54.453125 L 86.921875 0 L 63.609375 0 L 63.609375 -45.796875 C 63.273438 -52.898438 59.722656 -56.453125 52.953125 -56.453125 C 47.617188 -56.453125 43.34375 -53.953125 40.125 -48.953125 C 36.90625 -43.960938 35.296875 -37.523438 35.296875 -29.640625 L 35.296875 0 L 11.984375 0 L 11.984375 -72.765625 L 33.140625 -72.765625 L 34.796875 -61.109375 C 37.460938 -65.878906 41.15625 -69.597656 45.875 -72.265625 C 50.59375 -74.929688 56.171875 -76.265625 62.609375 -76.265625 Z M 62.609375 -76.265625 "/></g></g><g style="fill:#000000;fill-opacity:1;"><g transform="translate(3189.950773, 920.485226)"><path style="stroke:none" d="M 117.234375 -122.5625 L 61.28125 5.65625 L 5.328125 -122.5625 L 34.296875 -122.5625 L 62.28125 -53.453125 L 88.59375 -122.5625 Z M 117.234375 -122.5625 "/></g></g><g style="fill:#000000;fill-opacity:1;"><g transform="translate(3312.492422, 920.485226)"><path style="stroke:none" d="M 48.296875 -17.8125 C 52.953125 -17.8125 57.78125 -19.421875 62.78125 -22.640625 L 73.09375 -5.328125 C 69.101562 -3.109375 64.882812 -1.332031 60.4375 0 C 56 1.332031 51.785156 2 47.796875 2 C 39.128906 2 31.660156 0.363281 25.390625 -2.90625 C 19.117188 -6.1875 14.375 -10.796875 11.15625 -16.734375 C 7.9375 -22.671875 6.328125 -29.472656 6.328125 -37.140625 C 6.328125 -44.242188 8.1875 -50.789062 11.90625 -56.78125 C 15.625 -62.78125 20.703125 -67.523438 27.140625 -71.015625 C 33.578125 -74.515625 40.628906 -76.265625 48.296875 -76.265625 C 58.722656 -76.265625 67.296875 -73.210938 74.015625 -67.109375 C 80.734375 -61.003906 85.09375 -52.289062 87.09375 -40.96875 L 33.796875 -23.984375 C 37.347656 -19.867188 42.179688 -17.8125 48.296875 -17.8125 Z M 46.453125 -58.109375 C 41.234375 -58.109375 37.070312 -56.332031 33.96875 -52.78125 C 30.863281 -49.226562 29.3125 -44.457031 29.3125 -38.46875 L 29.3125 -36.96875 L 61.28125 -47.796875 C 58.945312 -54.671875 54.003906 -58.109375 46.453125 -58.109375 Z M 46.453125 -58.109375 "/></g></g><g style="fill:#000000;fill-opacity:1;"><g transform="translate(3404.565125, 920.485226)"><path style="stroke:none" d="M 34.796875 -56.109375 C 36.796875 -59.992188 39.546875 -63.488281 43.046875 -66.59375 C 46.546875 -69.707031 50.125 -72.125 53.78125 -73.84375 C 57.445312 -75.570312 60.332031 -76.4375 62.4375 -76.4375 L 61.28125 -53.125 C 60.613281 -53.226562 59.671875 -53.28125 58.453125 -53.28125 C 53.785156 -53.28125 49.675781 -52.054688 46.125 -49.609375 C 42.570312 -47.171875 39.851562 -44.035156 37.96875 -40.203125 C 36.082031 -36.378906 35.140625 -32.46875 35.140625 -28.46875 L 35.140625 0 L 11.984375 0 L 11.984375 -72.765625 L 32.96875 -72.765625 Z M 34.796875 -56.109375 "/></g></g><g style="fill:#000000;fill-opacity:1;"><g transform="translate(3472.828776, 920.485226)"><path style="stroke:none" d="M 35.296875 -72.765625 L 35.296875 0 L 11.984375 0 L 11.984375 -72.765625 Z M 11.484375 -98.578125 C 11.484375 -101.910156 12.785156 -104.710938 15.390625 -106.984375 C 18.003906 -109.265625 20.976562 -110.40625 24.3125 -110.40625 C 27.53125 -110.40625 30.414062 -109.265625 32.96875 -106.984375 C 35.519531 -104.710938 36.796875 -101.910156 36.796875 -98.578125 C 36.796875 -95.242188 35.519531 -92.46875 32.96875 -90.25 C 30.414062 -88.03125 27.53125 -86.921875 24.3125 -86.921875 C 20.976562 -86.921875 18.003906 -88.03125 15.390625 -90.25 C 12.785156 -92.46875 11.484375 -95.242188 11.484375 -98.578125 Z M 11.484375 -98.578125 "/></g></g><g style="fill:#000000;fill-opacity:1;"><g transform="translate(3520.113832, 920.485226)"><path style="stroke:none" d="M 18.984375 -52.453125 L 6.65625 -52.453125 L 6.65625 -73.09375 L 18.984375 -73.09375 L 18.984375 -98.40625 C 18.984375 -108.175781 21.785156 -116.03125 27.390625 -121.96875 C 32.992188 -127.90625 40.90625 -130.875 51.125 -130.875 C 54.445312 -130.875 57.992188 -130.375 61.765625 -129.375 C 65.546875 -128.382812 68.828125 -126.890625 71.609375 -124.890625 L 61.78125 -108.0625 C 59.78125 -110.507812 57.0625 -111.734375 53.625 -111.734375 C 50.175781 -111.734375 47.425781 -110.566406 45.375 -108.234375 C 43.320312 -105.898438 42.296875 -102.40625 42.296875 -97.75 L 42.296875 -73.09375 L 64.28125 -73.09375 L 64.28125 -52.453125 L 42.296875 -52.453125 L 42.296875 0 L 18.984375 0 Z M 18.984375 -52.453125 "/></g></g><g style="fill:#000000;fill-opacity:1;"><g transform="translate(3592.539907, 920.485226)"><path style="stroke:none" d="M 35.296875 -72.765625 L 35.296875 0 L 11.984375 0 L 11.984375 -72.765625 Z M 11.484375 -98.578125 C 11.484375 -101.910156 12.785156 -104.710938 15.390625 -106.984375 C 18.003906 -109.265625 20.976562 -110.40625 24.3125 -110.40625 C 27.53125 -110.40625 30.414062 -109.265625 32.96875 -106.984375 C 35.519531 -104.710938 36.796875 -101.910156 36.796875 -98.578125 C 36.796875 -95.242188 35.519531 -92.46875 32.96875 -90.25 C 30.414062 -88.03125 27.53125 -86.921875 24.3125 -86.921875 C 20.976562 -86.921875 18.003906 -88.03125 15.390625 -90.25 C 12.785156 -92.46875 11.484375 -95.242188 11.484375 -98.578125 Z M 11.484375 -98.578125 "/></g></g><g style="fill:#000000;fill-opacity:1;"><g transform="translate(3639.824963, 920.485226)"><path style="stroke:none" d="M 48.296875 -17.8125 C 52.953125 -17.8125 57.78125 -19.421875 62.78125 -22.640625 L 73.09375 -5.328125 C 69.101562 -3.109375 64.882812 -1.332031 60.4375 0 C 56 1.332031 51.785156 2 47.796875 2 C 39.128906 2 31.660156 0.363281 25.390625 -2.90625 C 19.117188 -6.1875 14.375 -10.796875 11.15625 -16.734375 C 7.9375 -22.671875 6.328125 -29.472656 6.328125 -37.140625 C 6.328125 -44.242188 8.1875 -50.789062 11.90625 -56.78125 C 15.625 -62.78125 20.703125 -67.523438 27.140625 -71.015625 C 33.578125 -74.515625 40.628906 -76.265625 48.296875 -76.265625 C 58.722656 -76.265625 67.296875 -73.210938 74.015625 -67.109375 C 80.734375 -61.003906 85.09375 -52.289062 87.09375 -40.96875 L 33.796875 -23.984375 C 37.347656 -19.867188 42.179688 -17.8125 48.296875 -17.8125 Z M 46.453125 -58.109375 C 41.234375 -58.109375 37.070312 -56.332031 33.96875 -52.78125 C 30.863281 -49.226562 29.3125 -44.457031 29.3125 -38.46875 L 29.3125 -36.96875 L 61.28125 -47.796875 C 58.945312 -54.671875 54.003906 -58.109375 46.453125 -58.109375 Z M 46.453125 -58.109375 "/></g></g><g style="fill:#000000;fill-opacity:1;"><g transform="translate(3731.897666, 920.485226)"><path style="stroke:none" d="M 91.921875 -131.375 L 91.921875 0 L 68.609375 0 L 68.609375 -7.65625 C 60.171875 -1.21875 51.175781 2 41.625 2 C 34.851562 2 28.800781 0.390625 23.46875 -2.828125 C 18.144531 -6.046875 13.957031 -10.648438 10.90625 -16.640625 C 7.851562 -22.640625 6.328125 -29.691406 6.328125 -37.796875 C 6.328125 -45.785156 7.960938 -52.691406 11.234375 -58.515625 C 14.515625 -64.347656 19.039062 -68.789062 24.8125 -71.84375 C 30.582031 -74.90625 37.1875 -76.4375 44.625 -76.4375 C 49.394531 -76.4375 53.890625 -75.6875 58.109375 -74.1875 C 62.328125 -72.6875 65.878906 -70.492188 68.765625 -67.609375 L 68.765625 -131.375 Z M 49.28125 -17.65625 C 53.945312 -17.65625 57.832031 -18.566406 60.9375 -20.390625 C 64.050781 -22.222656 66.609375 -24.972656 68.609375 -28.640625 L 68.609375 -46.453125 C 67.273438 -50.003906 64.882812 -52.832031 61.4375 -54.9375 C 58 -57.050781 53.945312 -58.109375 49.28125 -58.109375 C 44.070312 -58.109375 39.550781 -56.222656 35.71875 -52.453125 C 31.882812 -48.679688 29.96875 -43.90625 29.96875 -38.125 C 29.96875 -34.351562 30.851562 -30.882812 32.625 -27.71875 C 34.40625 -24.5625 36.765625 -22.09375 39.703125 -20.3125 C 42.648438 -18.539062 45.84375 -17.65625 49.28125 -17.65625 Z M 49.28125 -17.65625 "/></g></g><g style="fill:#000000;fill-opacity:1;"><g transform="translate(3253.622164, 1150.77562)"><path style="stroke:none" d="M 81.265625 -92.921875 C 70.609375 -98.796875 61.335938 -101.734375 53.453125 -101.734375 C 48.117188 -101.734375 43.984375 -100.675781 41.046875 -98.5625 C 38.109375 -96.457031 36.640625 -93.296875 36.640625 -89.078125 C 36.640625 -85.191406 38.773438 -81.78125 43.046875 -78.84375 C 47.316406 -75.90625 53.003906 -73.101562 60.109375 -70.4375 C 65.878906 -68.320312 70.816406 -65.90625 74.921875 -63.1875 C 79.035156 -60.46875 82.453125 -56.722656 85.171875 -51.953125 C 87.890625 -47.179688 89.25 -41.128906 89.25 -33.796875 C 89.25 -27.472656 87.609375 -21.617188 84.328125 -16.234375 C 81.054688 -10.847656 76.253906 -6.570312 69.921875 -3.40625 C 63.597656 -0.25 56.054688 1.328125 47.296875 1.328125 C 39.960938 1.328125 32.6875 0.25 25.46875 -1.90625 C 18.257812 -4.070312 11.546875 -7.378906 5.328125 -11.828125 L 15.984375 -30.640625 C 20.203125 -27.523438 25.03125 -24.96875 30.46875 -22.96875 C 35.90625 -20.976562 40.789062 -19.984375 45.125 -19.984375 C 50.226562 -19.984375 54.664062 -21.0625 58.4375 -23.21875 C 62.21875 -25.382812 64.109375 -28.910156 64.109375 -33.796875 C 64.109375 -40.128906 58.171875 -45.625 46.296875 -50.28125 C 39.296875 -53.0625 33.460938 -55.726562 28.796875 -58.28125 C 24.140625 -60.832031 20.117188 -64.492188 16.734375 -69.265625 C 13.347656 -74.046875 11.65625 -80.039062 11.65625 -87.25 C 11.65625 -97.800781 15.125 -106.296875 22.0625 -112.734375 C 29 -119.171875 38.238281 -122.664062 49.78125 -123.21875 C 58.882812 -123.21875 66.488281 -122.191406 72.59375 -120.140625 C 78.707031 -118.085938 84.648438 -115.175781 90.421875 -111.40625 Z M 81.265625 -92.921875 "/></g></g><g style="fill:#000000;fill-opacity:1;"><g transform="translate(3350.689803, 1150.77562)"><path style="stroke:none" d="M 48.296875 -17.8125 C 52.953125 -17.8125 57.78125 -19.421875 62.78125 -22.640625 L 73.09375 -5.328125 C 69.101562 -3.109375 64.882812 -1.332031 60.4375 0 C 56 1.332031 51.785156 2 47.796875 2 C 39.128906 2 31.660156 0.363281 25.390625 -2.90625 C 19.117188 -6.1875 14.375 -10.796875 11.15625 -16.734375 C 7.9375 -22.671875 6.328125 -29.472656 6.328125 -37.140625 C 6.328125 -44.242188 8.1875 -50.789062 11.90625 -56.78125 C 15.625 -62.78125 20.703125 -67.523438 27.140625 -71.015625 C 33.578125 -74.515625 40.628906 -76.265625 48.296875 -76.265625 C 58.722656 -76.265625 67.296875 -73.210938 74.015625 -67.109375 C 80.734375 -61.003906 85.09375 -52.289062 87.09375 -40.96875 L 33.796875 -23.984375 C 37.347656 -19.867188 42.179688 -17.8125 48.296875 -17.8125 Z M 46.453125 -58.109375 C 41.234375 -58.109375 37.070312 -56.332031 33.96875 -52.78125 C 30.863281 -49.226562 29.3125 -44.457031 29.3125 -38.46875 L 29.3125 -36.96875 L 61.28125 -47.796875 C 58.945312 -54.671875 54.003906 -58.109375 46.453125 -58.109375 Z M 46.453125 -58.109375 "/></g></g><g style="fill:#000000;fill-opacity:1;"><g transform="translate(3442.762507, 1150.77562)"><path style="stroke:none" d="M 35.296875 -131.375 L 35.296875 0 L 11.984375 0 L 11.984375 -131.375 Z M 35.296875 -131.375 "/></g></g><g style="fill:#000000;fill-opacity:1;"><g transform="translate(3490.047563, 1150.77562)"><path style="stroke:none" d="M 35.296875 -131.375 L 35.296875 0 L 11.984375 0 L 11.984375 -131.375 Z M 35.296875 -131.375 "/></g></g><g style="fill:#000000;fill-opacity:1;"><g transform="translate(3537.332619, 1150.77562)"><path style="stroke:none" d="M 48.296875 -17.8125 C 52.953125 -17.8125 57.78125 -19.421875 62.78125 -22.640625 L 73.09375 -5.328125 C 69.101562 -3.109375 64.882812 -1.332031 60.4375 0 C 56 1.332031 51.785156 2 47.796875 2 C 39.128906 2 31.660156 0.363281 25.390625 -2.90625 C 19.117188 -6.1875 14.375 -10.796875 11.15625 -16.734375 C 7.9375 -22.671875 6.328125 -29.472656 6.328125 -37.140625 C 6.328125 -44.242188 8.1875 -50.789062 11.90625 -56.78125 C 15.625 -62.78125 20.703125 -67.523438 27.140625 -71.015625 C 33.578125 -74.515625 40.628906 -76.265625 48.296875 -76.265625 C 58.722656 -76.265625 67.296875 -73.210938 74.015625 -67.109375 C 80.734375 -61.003906 85.09375 -52.289062 87.09375 -40.96875 L 33.796875 -23.984375 C 37.347656 -19.867188 42.179688 -17.8125 48.296875 -17.8125 Z M 46.453125 -58.109375 C 41.234375 -58.109375 37.070312 -56.332031 33.96875 -52.78125 C 30.863281 -49.226562 29.3125 -44.457031 29.3125 -38.46875 L 29.3125 -36.96875 L 61.28125 -47.796875 C 58.945312 -54.671875 54.003906 -58.109375 46.453125 -58.109375 Z M 46.453125 -58.109375 "/></g></g><g style="fill:#000000;fill-opacity:1;"><g transform="translate(3629.405322, 1150.77562)"><path style="stroke:none" d="M 34.796875 -56.109375 C 36.796875 -59.992188 39.546875 -63.488281 43.046875 -66.59375 C 46.546875 -69.707031 50.125 -72.125 53.78125 -73.84375 C 57.445312 -75.570312 60.332031 -76.4375 62.4375 -76.4375 L 61.28125 -53.125 C 60.613281 -53.226562 59.671875 -53.28125 58.453125 -53.28125 C 53.785156 -53.28125 49.675781 -52.054688 46.125 -49.609375 C 42.570312 -47.171875 39.851562 -44.035156 37.96875 -40.203125 C 36.082031 -36.378906 35.140625 -32.46875 35.140625 -28.46875 L 35.140625 0 L 11.984375 0 L 11.984375 -72.765625 L 32.96875 -72.765625 Z M 34.796875 -56.109375 "/></g></g><g style="fill:#000000;fill-opacity:1;"><g transform="translate(3697.668972, 1150.77562)"><path style="stroke:none" d="M 35.640625 1.5 C 29.640625 1.5 24.03125 0.445312 18.8125 -1.65625 C 13.59375 -3.769531 9.265625 -6.710938 5.828125 -10.484375 L 15.484375 -23.3125 C 21.921875 -17.320312 27.972656 -14.328125 33.640625 -14.328125 C 36.628906 -14.328125 39.039062 -14.796875 40.875 -15.734375 C 42.707031 -16.679688 43.625 -18.097656 43.625 -19.984375 C 43.625 -22.203125 42.566406 -23.894531 40.453125 -25.0625 C 38.347656 -26.226562 35.988281 -27.195312 33.375 -27.96875 C 30.769531 -28.75 29.023438 -29.25 28.140625 -29.46875 C 21.816406 -31.46875 17.097656 -34.4375 13.984375 -38.375 C 10.878906 -42.320312 9.328125 -46.847656 9.328125 -51.953125 C 9.328125 -55.835938 10.351562 -59.640625 12.40625 -63.359375 C 14.457031 -67.078125 17.644531 -70.128906 21.96875 -72.515625 C 26.300781 -74.898438 31.6875 -76.09375 38.125 -76.09375 C 44.125 -76.09375 49.234375 -75.484375 53.453125 -74.265625 C 57.671875 -73.046875 61.722656 -71.046875 65.609375 -68.265625 L 56.78125 -54.609375 C 54.5625 -56.390625 52.09375 -57.863281 49.375 -59.03125 C 46.65625 -60.195312 44.1875 -60.78125 41.96875 -60.78125 C 39.300781 -60.78125 37.132812 -60.222656 35.46875 -59.109375 C 33.800781 -58.003906 32.96875 -56.671875 32.96875 -55.109375 C 32.851562 -52.785156 33.820312 -51.039062 35.875 -49.875 C 37.9375 -48.707031 41.128906 -47.515625 45.453125 -46.296875 C 46.117188 -46.066406 46.8125 -45.84375 47.53125 -45.625 C 48.257812 -45.40625 49.007812 -45.179688 49.78125 -44.953125 C 61.21875 -41.179688 66.9375 -34.300781 66.9375 -24.3125 C 66.9375 -19.644531 65.769531 -15.367188 63.4375 -11.484375 C 61.113281 -7.597656 57.59375 -4.460938 52.875 -2.078125 C 48.15625 0.304688 42.410156 1.5 35.640625 1.5 Z M 35.640625 1.5 "/></g></g><g style="fill:#000000;fill-opacity:1;"><g transform="translate(4363.233954, 927.087632)"><path style="stroke:none" d="M 140.375 0 L 83.59375 0 C 79.15625 0.882812 74.878906 1.328125 70.765625 1.328125 C 59.441406 1.328125 49.003906 -1.472656 39.453125 -7.078125 C 29.910156 -12.679688 22.335938 -20.253906 16.734375 -29.796875 C 11.128906 -39.347656 8.328125 -49.785156 8.328125 -61.109375 C 8.328125 -72.210938 11.128906 -82.59375 16.734375 -92.25 C 22.335938 -101.90625 29.941406 -109.59375 39.546875 -115.3125 C 49.148438 -121.03125 59.554688 -123.890625 70.765625 -123.890625 C 81.984375 -123.890625 92.390625 -121.03125 101.984375 -115.3125 C 111.585938 -109.59375 119.25 -101.90625 124.96875 -92.25 C 130.6875 -82.59375 133.546875 -72.210938 133.546875 -61.109375 C 133.546875 -54.222656 132.4375 -47.585938 130.21875 -41.203125 C 128 -34.828125 124.890625 -28.972656 120.890625 -23.640625 L 140.375 -23.640625 Z M 33.296875 -61.109375 C 33.296875 -54.003906 34.988281 -47.484375 38.375 -41.546875 C 41.757812 -35.609375 46.363281 -30.890625 52.1875 -27.390625 C 58.019531 -23.890625 64.492188 -22.140625 71.609375 -22.140625 C 78.484375 -22.140625 84.75 -23.890625 90.40625 -27.390625 C 96.070312 -30.890625 100.515625 -35.609375 103.734375 -41.546875 C 106.953125 -47.484375 108.5625 -54.003906 108.5625 -61.109375 C 108.5625 -68.210938 106.894531 -74.734375 103.5625 -80.671875 C 100.238281 -86.609375 95.691406 -91.296875 89.921875 -94.734375 C 84.148438 -98.179688 77.820312 -99.90625 70.9375 -99.90625 C 63.9375 -99.90625 57.578125 -98.179688 51.859375 -94.734375 C 46.148438 -91.296875 41.628906 -86.609375 38.296875 -80.671875 C 34.960938 -74.734375 33.296875 -68.210938 33.296875 -61.109375 Z M 33.296875 -61.109375 "/></g></g><g style="fill:#000000;fill-opacity:1;"><g transform="translate(4511.915541, 927.087632)"><path style="stroke:none" d="M 85.25 -72.765625 L 85.25 0 L 64.109375 0 L 62.4375 -11.65625 C 59.882812 -6.988281 56.304688 -3.296875 51.703125 -0.578125 C 47.097656 2.140625 41.6875 3.5 35.46875 3.5 C 28.8125 3.5 23.257812 1.445312 18.8125 -2.65625 C 14.375 -6.769531 12.097656 -11.988281 11.984375 -18.3125 L 11.984375 -72.765625 L 35.296875 -72.765625 L 35.296875 -26.96875 C 35.628906 -19.863281 38.90625 -16.3125 45.125 -16.3125 C 50.226562 -16.3125 54.304688 -18.8125 57.359375 -23.8125 C 60.410156 -28.8125 61.9375 -35.25 61.9375 -43.125 L 61.9375 -72.765625 Z M 85.25 -72.765625 "/></g></g><g style="fill:#000000;fill-opacity:1;"><g transform="translate(4609.149645, 927.087632)"><path style="stroke:none" d="M 35.296875 -72.765625 L 35.296875 0 L 11.984375 0 L 11.984375 -72.765625 Z M 11.484375 -98.578125 C 11.484375 -101.910156 12.785156 -104.710938 15.390625 -106.984375 C 18.003906 -109.265625 20.976562 -110.40625 24.3125 -110.40625 C 27.53125 -110.40625 30.414062 -109.265625 32.96875 -106.984375 C 35.519531 -104.710938 36.796875 -101.910156 36.796875 -98.578125 C 36.796875 -95.242188 35.519531 -92.46875 32.96875 -90.25 C 30.414062 -88.03125 27.53125 -86.921875 24.3125 -86.921875 C 20.976562 -86.921875 18.003906 -88.03125 15.390625 -90.25 C 12.785156 -92.46875 11.484375 -95.242188 11.484375 -98.578125 Z M 11.484375 -98.578125 "/></g></g><g style="fill:#000000;fill-opacity:1;"><g transform="translate(4656.434701, 927.087632)"><path style="stroke:none" d="M 73.765625 -6.5 C 70.546875 -3.945312 66.519531 -1.890625 61.6875 -0.328125 C 56.863281 1.222656 52.117188 2 47.453125 2 C 34.796875 2 24.773438 -1.410156 17.390625 -8.234375 C 10.015625 -15.066406 6.328125 -24.476562 6.328125 -36.46875 C 6.328125 -44.238281 8.128906 -51.035156 11.734375 -56.859375 C 15.347656 -62.691406 20.09375 -67.132812 25.96875 -70.1875 C 31.851562 -73.238281 38.179688 -74.765625 44.953125 -74.765625 C 57.054688 -74.765625 66.882812 -71.546875 74.4375 -65.109375 L 63.109375 -50.125 C 58.335938 -53.894531 53.007812 -55.78125 47.125 -55.78125 C 42.238281 -55.78125 38.101562 -53.945312 34.71875 -50.28125 C 31.332031 -46.625 29.640625 -42.019531 29.640625 -36.46875 C 29.640625 -30.914062 31.46875 -26.28125 35.125 -22.5625 C 38.789062 -18.84375 43.566406 -16.984375 49.453125 -16.984375 C 54.554688 -16.984375 58.773438 -18.367188 62.109375 -21.140625 Z M 73.765625 -6.5 "/></g></g><g style="fill:#000000;fill-opacity:1;"><g transform="translate(4736.186654, 927.087632)"><path style="stroke:none" d="M 41.796875 -30.3125 L 35.296875 -25.484375 L 35.296875 0 L 11.984375 0 L 11.984375 -131.375 L 35.296875 -131.375 L 35.296875 -49.125 L 69.9375 -74.59375 L 84.09375 -62.109375 L 58.28125 -42.625 L 86.75 0 L 59.609375 0 Z M 41.796875 -30.3125 "/></g></g><g style="fill:#000000;fill-opacity:1;"><g transform="translate(4312.431014, 1157.378026)"><path style="stroke:none" d="M 81.265625 -92.921875 C 70.609375 -98.796875 61.335938 -101.734375 53.453125 -101.734375 C 48.117188 -101.734375 43.984375 -100.675781 41.046875 -98.5625 C 38.109375 -96.457031 36.640625 -93.296875 36.640625 -89.078125 C 36.640625 -85.191406 38.773438 -81.78125 43.046875 -78.84375 C 47.316406 -75.90625 53.003906 -73.101562 60.109375 -70.4375 C 65.878906 -68.320312 70.816406 -65.90625 74.921875 -63.1875 C 79.035156 -60.46875 82.453125 -56.722656 85.171875 -51.953125 C 87.890625 -47.179688 89.25 -41.128906 89.25 -33.796875 C 89.25 -27.472656 87.609375 -21.617188 84.328125 -16.234375 C 81.054688 -10.847656 76.253906 -6.570312 69.921875 -3.40625 C 63.597656 -0.25 56.054688 1.328125 47.296875 1.328125 C 39.960938 1.328125 32.6875 0.25 25.46875 -1.90625 C 18.257812 -4.070312 11.546875 -7.378906 5.328125 -11.828125 L 15.984375 -30.640625 C 20.203125 -27.523438 25.03125 -24.96875 30.46875 -22.96875 C 35.90625 -20.976562 40.789062 -19.984375 45.125 -19.984375 C 50.226562 -19.984375 54.664062 -21.0625 58.4375 -23.21875 C 62.21875 -25.382812 64.109375 -28.910156 64.109375 -33.796875 C 64.109375 -40.128906 58.171875 -45.625 46.296875 -50.28125 C 39.296875 -53.0625 33.460938 -55.726562 28.796875 -58.28125 C 24.140625 -60.832031 20.117188 -64.492188 16.734375 -69.265625 C 13.347656 -74.046875 11.65625 -80.039062 11.65625 -87.25 C 11.65625 -97.800781 15.125 -106.296875 22.0625 -112.734375 C 29 -119.171875 38.238281 -122.664062 49.78125 -123.21875 C 58.882812 -123.21875 66.488281 -122.191406 72.59375 -120.140625 C 78.707031 -118.085938 84.648438 -115.175781 90.421875 -111.40625 Z M 81.265625 -92.921875 "/></g></g><g style="fill:#000000;fill-opacity:1;"><g transform="translate(4409.498654, 1157.378026)"><path style="stroke:none" d="M 48.296875 -17.8125 C 52.953125 -17.8125 57.78125 -19.421875 62.78125 -22.640625 L 73.09375 -5.328125 C 69.101562 -3.109375 64.882812 -1.332031 60.4375 0 C 56 1.332031 51.785156 2 47.796875 2 C 39.128906 2 31.660156 0.363281 25.390625 -2.90625 C 19.117188 -6.1875 14.375 -10.796875 11.15625 -16.734375 C 7.9375 -22.671875 6.328125 -29.472656 6.328125 -37.140625 C 6.328125 -44.242188 8.1875 -50.789062 11.90625 -56.78125 C 15.625 -62.78125 20.703125 -67.523438 27.140625 -71.015625 C 33.578125 -74.515625 40.628906 -76.265625 48.296875 -76.265625 C 58.722656 -76.265625 67.296875 -73.210938 74.015625 -67.109375 C 80.734375 -61.003906 85.09375 -52.289062 87.09375 -40.96875 L 33.796875 -23.984375 C 37.347656 -19.867188 42.179688 -17.8125 48.296875 -17.8125 Z M 46.453125 -58.109375 C 41.234375 -58.109375 37.070312 -56.332031 33.96875 -52.78125 C 30.863281 -49.226562 29.3125 -44.457031 29.3125 -38.46875 L 29.3125 -36.96875 L 61.28125 -47.796875 C 58.945312 -54.671875 54.003906 -58.109375 46.453125 -58.109375 Z M 46.453125 -58.109375 "/></g></g><g style="fill:#000000;fill-opacity:1;"><g transform="translate(4501.571357, 1157.378026)"><path style="stroke:none" d="M 34.796875 -56.109375 C 36.796875 -59.992188 39.546875 -63.488281 43.046875 -66.59375 C 46.546875 -69.707031 50.125 -72.125 53.78125 -73.84375 C 57.445312 -75.570312 60.332031 -76.4375 62.4375 -76.4375 L 61.28125 -53.125 C 60.613281 -53.226562 59.671875 -53.28125 58.453125 -53.28125 C 53.785156 -53.28125 49.675781 -52.054688 46.125 -49.609375 C 42.570312 -47.171875 39.851562 -44.035156 37.96875 -40.203125 C 36.082031 -36.378906 35.140625 -32.46875 35.140625 -28.46875 L 35.140625 0 L 11.984375 0 L 11.984375 -72.765625 L 32.96875 -72.765625 Z M 34.796875 -56.109375 "/></g></g><g style="fill:#000000;fill-opacity:1;"><g transform="translate(4569.835008, 1157.378026)"><path style="stroke:none" d="M 87.25 -72.765625 L 45.953125 1.5 L 45.296875 1.5 L 1.671875 -72.765625 L 29.3125 -72.765625 L 46.296875 -38.125 L 61.28125 -72.765625 Z M 87.25 -72.765625 "/></g></g><g style="fill:#000000;fill-opacity:1;"><g transform="translate(4658.744263, 1157.378026)"><path style="stroke:none" d="M 35.296875 -72.765625 L 35.296875 0 L 11.984375 0 L 11.984375 -72.765625 Z M 11.484375 -98.578125 C 11.484375 -101.910156 12.785156 -104.710938 15.390625 -106.984375 C 18.003906 -109.265625 20.976562 -110.40625 24.3125 -110.40625 C 27.53125 -110.40625 30.414062 -109.265625 32.96875 -106.984375 C 35.519531 -104.710938 36.796875 -101.910156 36.796875 -98.578125 C 36.796875 -95.242188 35.519531 -92.46875 32.96875 -90.25 C 30.414062 -88.03125 27.53125 -86.921875 24.3125 -86.921875 C 20.976562 -86.921875 18.003906 -88.03125 15.390625 -90.25 C 12.785156 -92.46875 11.484375 -95.242188 11.484375 -98.578125 Z M 11.484375 -98.578125 "/></g></g><g style="fill:#000000;fill-opacity:1;"><g transform="translate(4706.029318, 1157.378026)"><path style="stroke:none" d="M 73.765625 -6.5 C 70.546875 -3.945312 66.519531 -1.890625 61.6875 -0.328125 C 56.863281 1.222656 52.117188 2 47.453125 2 C 34.796875 2 24.773438 -1.410156 17.390625 -8.234375 C 10.015625 -15.066406 6.328125 -24.476562 6.328125 -36.46875 C 6.328125 -44.238281 8.128906 -51.035156 11.734375 -56.859375 C 15.347656 -62.691406 20.09375 -67.132812 25.96875 -70.1875 C 31.851562 -73.238281 38.179688 -74.765625 44.953125 -74.765625 C 57.054688 -74.765625 66.882812 -71.546875 74.4375 -65.109375 L 63.109375 -50.125 C 58.335938 -53.894531 53.007812 -55.78125 47.125 -55.78125 C 42.238281 -55.78125 38.101562 -53.945312 34.71875 -50.28125 C 31.332031 -46.625 29.640625 -42.019531 29.640625 -36.46875 C 29.640625 -30.914062 31.46875 -26.28125 35.125 -22.5625 C 38.789062 -18.84375 43.566406 -16.984375 49.453125 -16.984375 C 54.554688 -16.984375 58.773438 -18.367188 62.109375 -21.140625 Z M 73.765625 -6.5 "/></g></g><g style="fill:#000000;fill-opacity:1;"><g transform="translate(4785.781271, 1157.378026)"><path style="stroke:none" d="M 48.296875 -17.8125 C 52.953125 -17.8125 57.78125 -19.421875 62.78125 -22.640625 L 73.09375 -5.328125 C 69.101562 -3.109375 64.882812 -1.332031 60.4375 0 C 56 1.332031 51.785156 2 47.796875 2 C 39.128906 2 31.660156 0.363281 25.390625 -2.90625 C 19.117188 -6.1875 14.375 -10.796875 11.15625 -16.734375 C 7.9375 -22.671875 6.328125 -29.472656 6.328125 -37.140625 C 6.328125 -44.242188 8.1875 -50.789062 11.90625 -56.78125 C 15.625 -62.78125 20.703125 -67.523438 27.140625 -71.015625 C 33.578125 -74.515625 40.628906 -76.265625 48.296875 -76.265625 C 58.722656 -76.265625 67.296875 -73.210938 74.015625 -67.109375 C 80.734375 -61.003906 85.09375 -52.289062 87.09375 -40.96875 L 33.796875 -23.984375 C 37.347656 -19.867188 42.179688 -17.8125 48.296875 -17.8125 Z M 46.453125 -58.109375 C 41.234375 -58.109375 37.070312 -56.332031 33.96875 -52.78125 C 30.863281 -49.226562 29.3125 -44.457031 29.3125 -38.46875 L 29.3125 -36.96875 L 61.28125 -47.796875 C 58.945312 -54.671875 54.003906 -58.109375 46.453125 -58.109375 Z M 46.453125 -58.109375 "/></g></g></g></svg>